<ttFont>
    <TTGlyph name="A" xMin="112" yMin="-2" xMax="1768" yMax="1375">
      <contour>
        <pt x="715" y="1364" on="1"/>
        <pt x="716" y="1364" on="0"/>
        <pt x="747" y="1365" on="0"/>
        <pt x="792" y="1367" on="0"/>
        <pt x="844" y="1369" on="0"/>
        <pt x="888" y="1372" on="0"/>
        <pt x="916" y="1373" on="0"/>
        <pt x="915" y="1374" on="1"/>
        <pt x="921" y="1374" on="0"/>
        <pt x="979" y="1375" on="0"/>
        <pt x="1059" y="1375" on="0"/>
        <pt x="1150" y="1375" on="0"/>
        <pt x="1229" y="1373" on="0"/>
        <pt x="1284" y="1368" on="0"/>
        <pt x="1288" y="1364" on="1"/>
        <pt x="1317" y="1364" on="0"/>
        <pt x="1370" y="1374" on="0"/>
        <pt x="1399" y="1374" on="1"/>
        <pt x="1411" y="1374" on="0"/>
        <pt x="1435" y="1362" on="0"/>
        <pt x="1448" y="1362" on="1"/>
        <pt x="1454" y="1362" on="0"/>
        <pt x="1461" y="1364" on="0"/>
        <pt x="1466" y="1364" on="1"/>
        <pt x="1472" y="1361" on="0"/>
        <pt x="1487" y="1346" on="0"/>
        <pt x="1487" y="1341" on="1"/>
        <pt x="1630" y="694" on="1"/>
        <pt x="1662" y="570" on="0"/>
        <pt x="1723" y="310" on="0"/>
        <pt x="1749" y="186" on="1"/>
        <pt x="1751" y="177" on="0"/>
        <pt x="1759" y="142" on="0"/>
        <pt x="1766" y="100" on="0"/>
        <pt x="1770" y="57" on="0"/>
        <pt x="1765" y="21" on="0"/>
        <pt x="1748" y="-2" on="0"/>
        <pt x="1732" y="-2" on="1"/>
        <pt x="1725" y="-2" on="0"/>
        <pt x="1685" y="-2" on="0"/>
        <pt x="1633" y="-1" on="0"/>
        <pt x="1578" y="0" on="0"/>
        <pt x="1530" y="1" on="0"/>
        <pt x="1498" y="1" on="0"/>
        <pt x="1497" y="2" on="1"/>
        <pt x="1368" y="2" on="1"/>
        <pt x="1368" y="4" on="0"/>
        <pt x="1363" y="10" on="0"/>
        <pt x="1347" y="10" on="1"/>
        <pt x="1345" y="10" on="0"/>
        <pt x="1342" y="2" on="0"/>
        <pt x="1339" y="2" on="1"/>
        <pt x="1333" y="2" on="1"/>
        <pt x="1332" y="2" on="0"/>
        <pt x="1299" y="4" on="0"/>
        <pt x="1252" y="7" on="0"/>
        <pt x="1199" y="10" on="0"/>
        <pt x="1179" y="10" on="1"/>
        <pt x="1164" y="35" on="0"/>
        <pt x="1135" y="163" on="0"/>
        <pt x="1118" y="250" on="1"/>
        <pt x="1094" y="246" on="0"/>
        <pt x="1036" y="243" on="0"/>
        <pt x="974" y="243" on="0"/>
        <pt x="910" y="244" on="0"/>
        <pt x="882" y="244" on="1"/>
        <pt x="865" y="160" on="0"/>
        <pt x="837" y="35" on="0"/>
        <pt x="823" y="10" on="1"/>
        <pt x="815" y="10" on="0"/>
        <pt x="794" y="2" on="0"/>
        <pt x="792" y="2" on="1"/>
        <pt x="786" y="2" on="1"/>
        <pt x="775" y="2" on="0"/>
        <pt x="763" y="10" on="0"/>
        <pt x="758" y="10" on="1"/>
        <pt x="705" y="9" on="0"/>
        <pt x="665" y="7" on="1"/>
        <pt x="648" y="6" on="0"/>
        <pt x="615" y="5" on="0"/>
        <pt x="589" y="3" on="0"/>
        <pt x="573" y="2" on="0"/>
        <pt x="573" y="2" on="1"/>
        <pt x="383" y="2" on="1"/>
        <pt x="381" y="2" on="0"/>
        <pt x="350" y="1" on="0"/>
        <pt x="302" y="0" on="0"/>
        <pt x="246" y="-1" on="0"/>
        <pt x="195" y="-2" on="0"/>
        <pt x="155" y="-2" on="0"/>
        <pt x="147" y="-2" on="1"/>
        <pt x="131" y="-2" on="0"/>
        <pt x="115" y="21" on="0"/>
        <pt x="110" y="57" on="0"/>
        <pt x="114" y="100" on="0"/>
        <pt x="122" y="142" on="0"/>
        <pt x="129" y="177" on="0"/>
        <pt x="131" y="186" on="1"/>
        <pt x="157" y="310" on="0"/>
        <pt x="218" y="570" on="0"/>
        <pt x="250" y="694" on="1"/>
        <pt x="393" y="1341" on="1"/>
        <pt x="393" y="1346" on="0"/>
        <pt x="407" y="1361" on="0"/>
        <pt x="414" y="1364" on="1"/>
        <pt x="419" y="1364" on="0"/>
        <pt x="426" y="1362" on="0"/>
        <pt x="432" y="1362" on="1"/>
        <pt x="458" y="1362" on="0"/>
        <pt x="514" y="1374" on="0"/>
        <pt x="543" y="1374" on="1"/>
        <pt x="586" y="1374" on="0"/>
        <pt x="667" y="1364" on="0"/>
      </contour>
      <contour>
        <pt x="995" y="1016" on="1"/>
        <pt x="995" y="1015" on="0"/>
        <pt x="986" y="962" on="0"/>
        <pt x="971" y="877" on="0"/>
        <pt x="952" y="769" on="0"/>
        <pt x="933" y="657" on="0"/>
        <pt x="914" y="548" on="0"/>
        <pt x="907" y="506" on="1"/>
        <pt x="1012" y="506" on="1"/>
        <pt x="1014" y="508" on="0"/>
        <pt x="1024" y="512" on="0"/>
        <pt x="1026" y="512" on="1"/>
        <pt x="1030" y="512" on="1"/>
        <pt x="1050" y="512" on="0"/>
        <pt x="1081" y="503" on="0"/>
        <pt x="1095" y="500" on="1"/>
        <pt x="1088" y="542" on="0"/>
        <pt x="1070" y="651" on="0"/>
        <pt x="1050" y="765" on="0"/>
        <pt x="1031" y="875" on="0"/>
        <pt x="1016" y="961" on="0"/>
        <pt x="1007" y="1015" on="0"/>
        <pt x="1007" y="1016" on="1"/>
        <pt x="1006" y="1020" on="0"/>
        <pt x="1005" y="1024" on="1"/>
        <pt x="1004" y="1028" on="0"/>
        <pt x="1003" y="1039" on="0"/>
        <pt x="1001" y="1047" on="1"/>
        <pt x="999" y="1039" on="0"/>
        <pt x="997" y="1028" on="0"/>
        <pt x="996" y="1024" on="1"/>
        <pt x="995" y="1020" on="0"/>
      </contour>
    </TTGlyph>
    <TTGlyph name="AE" xMin="104" yMin="-2" xMax="2369" yMax="1382">
      <contour>
        <pt x="1025" y="1364" on="1"/>
        <pt x="1026" y="1364" on="0"/>
        <pt x="1051" y="1365" on="0"/>
        <pt x="1088" y="1367" on="0"/>
        <pt x="1130" y="1369" on="0"/>
        <pt x="1165" y="1372" on="0"/>
        <pt x="1188" y="1373" on="0"/>
        <pt x="1187" y="1374" on="1"/>
        <pt x="1194" y="1374" on="0"/>
        <pt x="1261" y="1375" on="0"/>
        <pt x="1351" y="1375" on="0"/>
        <pt x="1450" y="1374" on="0"/>
        <pt x="1489" y="1373" on="1"/>
        <pt x="1591" y="1374" on="0"/>
        <pt x="1782" y="1380" on="0"/>
        <pt x="1976" y="1383" on="0"/>
        <pt x="2182" y="1379" on="0"/>
        <pt x="2300" y="1370" on="1"/>
        <pt x="2314" y="1370" on="0"/>
        <pt x="2330" y="1320" on="0"/>
        <pt x="2340" y="1244" on="0"/>
        <pt x="2350" y="1153" on="0"/>
        <pt x="2358" y="1113" on="1"/>
        <pt x="2358" y="1087" on="0"/>
        <pt x="2356" y="1064" on="0"/>
        <pt x="2349" y="1055" on="0"/>
        <pt x="2338" y="1057" on="0"/>
        <pt x="2331" y="1057" on="1"/>
        <pt x="2235" y="1057" on="0"/>
        <pt x="2035" y="1055" on="0"/>
        <pt x="1935" y="1055" on="1"/>
        <pt x="1926" y="1055" on="0"/>
        <pt x="1911" y="1005" on="0"/>
        <pt x="1901" y="938" on="0"/>
        <pt x="1896" y="872" on="0"/>
        <pt x="1896" y="856" on="1"/>
        <pt x="1896" y="828" on="0"/>
        <pt x="1911" y="813" on="0"/>
        <pt x="1928" y="813" on="1"/>
        <pt x="2021" y="813" on="0"/>
        <pt x="2201" y="814" on="0"/>
        <pt x="2291" y="805" on="1"/>
        <pt x="2307" y="803" on="0"/>
        <pt x="2329" y="801" on="0"/>
        <pt x="2345" y="794" on="0"/>
        <pt x="2356" y="776" on="0"/>
        <pt x="2361" y="758" on="1"/>
        <pt x="2369" y="575" on="1"/>
        <pt x="2369" y="569" on="1"/>
        <pt x="2369" y="551" on="0"/>
        <pt x="2329" y="531" on="0"/>
        <pt x="2262" y="521" on="0"/>
        <pt x="2176" y="518" on="0"/>
        <pt x="2131" y="518" on="1"/>
        <pt x="2043" y="518" on="0"/>
        <pt x="1945" y="522" on="0"/>
        <pt x="1899" y="511" on="0"/>
        <pt x="1889" y="475" on="0"/>
        <pt x="1889" y="436" on="1"/>
        <pt x="1889" y="400" on="0"/>
        <pt x="1881" y="329" on="0"/>
        <pt x="1883" y="291" on="1"/>
        <pt x="1982" y="291" on="0"/>
        <pt x="2180" y="293" on="0"/>
        <pt x="2277" y="293" on="1"/>
        <pt x="2280" y="293" on="0"/>
        <pt x="2288" y="263" on="0"/>
        <pt x="2296" y="215" on="0"/>
        <pt x="2304" y="158" on="0"/>
        <pt x="2310" y="105" on="0"/>
        <pt x="2314" y="62" on="0"/>
        <pt x="2314" y="53" on="1"/>
        <pt x="2314" y="35" on="0"/>
        <pt x="2295" y="10" on="0"/>
        <pt x="2273" y="10" on="1"/>
        <pt x="2208" y="10" on="0"/>
        <pt x="2089" y="2" on="0"/>
        <pt x="2023" y="2" on="1"/>
        <pt x="1945" y="2" on="0"/>
        <pt x="1788" y="1" on="0"/>
        <pt x="1708" y="1" on="1"/>
        <pt x="1702" y="-2" on="0"/>
        <pt x="1694" y="-2" on="1"/>
        <pt x="1686" y="-2" on="0"/>
        <pt x="1645" y="-2" on="0"/>
        <pt x="1592" y="-1" on="0"/>
        <pt x="1536" y="0" on="0"/>
        <pt x="1512" y="0" on="1"/>
        <pt x="1375" y="0" on="1"/>
        <pt x="1371" y="0" on="0"/>
        <pt x="1356" y="1" on="0"/>
        <pt x="1347" y="2" on="1"/>
        <pt x="1331" y="2" on="1"/>
        <pt x="1331" y="4" on="1"/>
        <pt x="1308" y="7" on="1"/>
        <pt x="1305" y="2" on="0"/>
        <pt x="1302" y="2" on="1"/>
        <pt x="1296" y="2" on="1"/>
        <pt x="1295" y="2" on="0"/>
        <pt x="1262" y="4" on="0"/>
        <pt x="1216" y="7" on="0"/>
        <pt x="1163" y="10" on="0"/>
        <pt x="1143" y="10" on="1"/>
        <pt x="1134" y="35" on="0"/>
        <pt x="1134" y="163" on="0"/>
        <pt x="1136" y="250" on="1"/>
        <pt x="1091" y="242" on="0"/>
        <pt x="972" y="244" on="0"/>
        <pt x="919" y="244" on="1"/>
        <pt x="884" y="160" on="0"/>
        <pt x="827" y="35" on="0"/>
        <pt x="807" y="10" on="1"/>
        <pt x="799" y="10" on="0"/>
        <pt x="776" y="2" on="0"/>
        <pt x="775" y="2" on="1"/>
        <pt x="769" y="2" on="1"/>
        <pt x="758" y="2" on="0"/>
        <pt x="747" y="10" on="0"/>
        <pt x="742" y="10" on="1"/>
        <pt x="689" y="9" on="0"/>
        <pt x="649" y="7" on="1"/>
        <pt x="631" y="6" on="0"/>
        <pt x="598" y="5" on="0"/>
        <pt x="572" y="3" on="0"/>
        <pt x="556" y="2" on="0"/>
        <pt x="556" y="2" on="1"/>
        <pt x="366" y="2" on="1"/>
        <pt x="364" y="2" on="0"/>
        <pt x="332" y="1" on="0"/>
        <pt x="285" y="0" on="0"/>
        <pt x="229" y="-1" on="0"/>
        <pt x="177" y="-2" on="0"/>
        <pt x="137" y="-2" on="0"/>
        <pt x="130" y="-2" on="1"/>
        <pt x="114" y="-2" on="0"/>
        <pt x="103" y="21" on="0"/>
        <pt x="106" y="57" on="0"/>
        <pt x="120" y="100" on="0"/>
        <pt x="136" y="142" on="0"/>
        <pt x="152" y="177" on="0"/>
        <pt x="155" y="186" on="1"/>
        <pt x="209" y="310" on="0"/>
        <pt x="329" y="570" on="0"/>
        <pt x="389" y="694" on="1"/>
        <pt x="698" y="1341" on="1"/>
        <pt x="699" y="1346" on="0"/>
        <pt x="716" y="1361" on="0"/>
        <pt x="724" y="1364" on="1"/>
        <pt x="729" y="1364" on="0"/>
        <pt x="735" y="1362" on="0"/>
        <pt x="741" y="1362" on="1"/>
        <pt x="767" y="1362" on="0"/>
        <pt x="826" y="1374" on="0"/>
        <pt x="855" y="1374" on="1"/>
        <pt x="898" y="1374" on="0"/>
        <pt x="977" y="1364" on="0"/>
      </contour>
      <contour>
        <pt x="1186" y="1016" on="1"/>
        <pt x="1186" y="1015" on="0"/>
        <pt x="1167" y="962" on="0"/>
        <pt x="1137" y="877" on="0"/>
        <pt x="1098" y="769" on="0"/>
        <pt x="1058" y="657" on="0"/>
        <pt x="1018" y="548" on="0"/>
        <pt x="1003" y="506" on="1"/>
        <pt x="1088" y="506" on="1"/>
        <pt x="1107" y="506" on="0"/>
        <pt x="1154" y="505" on="0"/>
        <pt x="1170" y="500" on="1"/>
        <pt x="1172" y="542" on="0"/>
        <pt x="1178" y="651" on="0"/>
        <pt x="1185" y="765" on="0"/>
        <pt x="1190" y="875" on="0"/>
        <pt x="1195" y="961" on="0"/>
        <pt x="1198" y="1015" on="0"/>
        <pt x="1198" y="1016" on="1"/>
        <pt x="1198" y="1024" on="1"/>
        <pt x="1198" y="1028" on="0"/>
        <pt x="1199" y="1039" on="0"/>
        <pt x="1199" y="1047" on="1"/>
        <pt x="1196" y="1039" on="0"/>
        <pt x="1191" y="1028" on="0"/>
        <pt x="1189" y="1024" on="1"/>
        <pt x="1187" y="1020" on="0"/>
      </contour>
    </TTGlyph>
    <TTGlyph name="Aacute" xMin="112" yMin="-2" xMax="1768" yMax="2371">
      <component glyphName="A" x="0" y="0" flags="0x1004"/>
      <component glyphName="acute" x="495" y="223" flags="0x1004"/>
    </TTGlyph>
    <TTGlyph name="Abreve" xMin="112" yMin="-2" xMax="1768" yMax="2090">
      <component glyphName="A" x="0" y="0" flags="0x1204"/>
      <component glyphName="breve" x="342" y="223" flags="0x1004"/>
    </TTGlyph>
    <TTGlyph name="Acircumflex" xMin="112" yMin="-2" xMax="1768" yMax="2269">
      <component glyphName="A" x="0" y="0" flags="0x1004"/>
      <component glyphName="circumflex" x="313" y="223" flags="0x1004"/>
    </TTGlyph>
    <TTGlyph name="Adieresis" xMin="112" yMin="-2" xMax="1768" yMax="1982">
      <component glyphName="A" x="0" y="0" flags="0x1004"/>
      <component glyphName="dieresis" x="272" y="243" flags="0x1004"/>
    </TTGlyph>
    <TTGlyph name="Agrave" xMin="112" yMin="-2" xMax="1768" yMax="2371">
      <component glyphName="A" x="0" y="0" flags="0x1004"/>
      <component glyphName="grave" x="539" y="223" flags="0x1004"/>
    </TTGlyph>
    <TTGlyph name="Amacron" xMin="112" yMin="-2" xMax="1768" yMax="2049">
      <component glyphName="A" x="0" y="0" flags="0x1204"/>
      <component glyphName="macron" x="392" y="223" flags="0x1004"/>
    </TTGlyph>
    <TTGlyph name="Aogonek" xMin="112" yMin="-565" xMax="1798" yMax="1375">
      <component glyphName="A" x="0" y="0" flags="0x1204"/>
      <component glyphName="ogonek" x="983" y="0" flags="0x1004"/>
    </TTGlyph>
    <TTGlyph name="Aring" xMin="112" yMin="-2" xMax="1768" yMax="2385">
      <component glyphName="A" x="0" y="0" flags="0x1004"/>
      <component glyphName="ring" x="394" y="243" flags="0x1004"/>
    </TTGlyph>
    <TTGlyph name="Atilde" xMin="112" yMin="-2" xMax="1768" yMax="2089">
      <component glyphName="A" x="0" y="0" flags="0x1004"/>
      <component glyphName="tilde" x="283" y="223" flags="0x1004"/>
    </TTGlyph>
    <TTGlyph name="B" xMin="116" yMin="-49" xMax="1597" yMax="1423">
      <contour>
        <pt x="118" y="1075" on="1"/>
        <pt x="118" y="1110" on="0"/>
        <pt x="116" y="1177" on="0"/>
        <pt x="116" y="1208" on="1"/>
        <pt x="116" y="1237" on="0"/>
        <pt x="120" y="1289" on="0"/>
        <pt x="125" y="1313" on="1"/>
        <pt x="128" y="1327" on="0"/>
        <pt x="133" y="1360" on="0"/>
        <pt x="147" y="1387" on="0"/>
        <pt x="177" y="1405" on="0"/>
        <pt x="206" y="1405" on="1"/>
        <pt x="243" y="1405" on="0"/>
        <pt x="342" y="1411" on="0"/>
        <pt x="447" y="1417" on="0"/>
        <pt x="548" y="1423" on="0"/>
        <pt x="589" y="1423" on="1"/>
        <pt x="685" y="1423" on="0"/>
        <pt x="887" y="1403" on="0"/>
        <pt x="983" y="1391" on="1"/>
        <pt x="1037" y="1384" on="0"/>
        <pt x="1164" y="1367" on="0"/>
        <pt x="1292" y="1337" on="0"/>
        <pt x="1410" y="1290" on="0"/>
        <pt x="1501" y="1216" on="0"/>
        <pt x="1556" y="1110" on="0"/>
        <pt x="1556" y="1036" on="1"/>
        <pt x="1556" y="948" on="0"/>
        <pt x="1487" y="821" on="0"/>
        <pt x="1415" y="776" on="1"/>
        <pt x="1398" y="767" on="0"/>
        <pt x="1362" y="753" on="0"/>
        <pt x="1329" y="739" on="0"/>
        <pt x="1303" y="723" on="0"/>
        <pt x="1296" y="713" on="1"/>
        <pt x="1298" y="711" on="0"/>
        <pt x="1300" y="707" on="0"/>
        <pt x="1302" y="705" on="1"/>
        <pt x="1381" y="672" on="0"/>
        <pt x="1493" y="600" on="0"/>
        <pt x="1564" y="525" on="0"/>
        <pt x="1597" y="448" on="0"/>
        <pt x="1597" y="410" on="1"/>
        <pt x="1597" y="350" on="0"/>
        <pt x="1524" y="234" on="0"/>
        <pt x="1396" y="132" on="0"/>
        <pt x="1225" y="48" on="0"/>
        <pt x="1126" y="20" on="1"/>
        <pt x="1050" y="-2" on="0"/>
        <pt x="903" y="-29" on="0"/>
        <pt x="768" y="-44" on="0"/>
        <pt x="650" y="-49" on="0"/>
        <pt x="602" y="-49" on="1"/>
        <pt x="467" y="-49" on="0"/>
        <pt x="285" y="-36" on="0"/>
        <pt x="175" y="6" on="0"/>
        <pt x="129" y="83" on="0"/>
        <pt x="129" y="147" on="1"/>
        <pt x="129" y="167" on="0"/>
        <pt x="131" y="229" on="0"/>
        <pt x="133" y="294" on="0"/>
        <pt x="135" y="352" on="0"/>
        <pt x="135" y="367" on="1"/>
        <pt x="135" y="543" on="0"/>
        <pt x="118" y="898" on="0"/>
      </contour>
      <contour>
        <pt x="817" y="522" on="1"/>
        <pt x="804" y="522" on="0"/>
        <pt x="794" y="505" on="0"/>
        <pt x="794" y="494" on="1"/>
        <pt x="794" y="330" on="1"/>
        <pt x="794" y="319" on="0"/>
        <pt x="806" y="315" on="0"/>
        <pt x="811" y="315" on="1"/>
        <pt x="813" y="315" on="0"/>
        <pt x="817" y="315" on="0"/>
        <pt x="817" y="317" on="1"/>
        <pt x="981" y="396" on="0"/>
        <pt x="1142" y="469" on="1"/>
        <pt x="1146" y="474" on="0"/>
        <pt x="1158" y="480" on="0"/>
        <pt x="1161" y="483" on="1"/>
        <pt x="1115" y="497" on="0"/>
        <pt x="1034" y="513" on="0"/>
        <pt x="953" y="520" on="0"/>
        <pt x="868" y="522" on="0"/>
      </contour>
      <contour>
        <pt x="829" y="928" on="1"/>
        <pt x="829" y="917" on="0"/>
        <pt x="831" y="905" on="0"/>
        <pt x="845" y="905" on="1"/>
        <pt x="850" y="905" on="0"/>
        <pt x="888" y="920" on="0"/>
        <pt x="940" y="943" on="0"/>
        <pt x="997" y="970" on="0"/>
        <pt x="1046" y="993" on="0"/>
        <pt x="1079" y="1008" on="0"/>
        <pt x="1081" y="1008" on="1"/>
        <pt x="1088" y="1010" on="0"/>
        <pt x="1106" y="1015" on="0"/>
        <pt x="1106" y="1025" on="1"/>
        <pt x="1106" y="1044" on="0"/>
        <pt x="1059" y="1066" on="0"/>
        <pt x="996" y="1078" on="0"/>
        <pt x="933" y="1081" on="0"/>
        <pt x="917" y="1081" on="1"/>
        <pt x="883" y="1081" on="0"/>
        <pt x="847" y="1056" on="0"/>
        <pt x="831" y="1013" on="0"/>
        <pt x="829" y="958" on="0"/>
      </contour>
    </TTGlyph>
    <TTGlyph name="C" xMin="84" yMin="-49" xMax="1292" yMax="1423">
      <contour>
        <pt x="778" y="670" on="1"/>
        <pt x="778" y="645" on="0"/>
        <pt x="780" y="599" on="0"/>
        <pt x="782" y="578" on="1"/>
        <pt x="788" y="511" on="0"/>
        <pt x="819" y="418" on="0"/>
        <pt x="864" y="361" on="0"/>
        <pt x="921" y="336" on="0"/>
        <pt x="954" y="336" on="1"/>
        <pt x="985" y="336" on="0"/>
        <pt x="1053" y="355" on="0"/>
        <pt x="1125" y="389" on="0"/>
        <pt x="1199" y="433" on="0"/>
        <pt x="1235" y="459" on="1"/>
        <pt x="1253" y="123" on="1"/>
        <pt x="1213" y="84" on="0"/>
        <pt x="1108" y="20" on="0"/>
        <pt x="992" y="-25" on="0"/>
        <pt x="876" y="-49" on="0"/>
        <pt x="825" y="-49" on="1"/>
        <pt x="769" y="-49" on="0"/>
        <pt x="656" y="-44" on="0"/>
        <pt x="545" y="-29" on="0"/>
        <pt x="438" y="0" on="0"/>
        <pt x="389" y="23" on="1"/>
        <pt x="369" y="32" on="0"/>
        <pt x="330" y="54" on="0"/>
        <pt x="311" y="68" on="1"/>
        <pt x="280" y="94" on="0"/>
        <pt x="226" y="158" on="0"/>
        <pt x="203" y="197" on="1"/>
        <pt x="164" y="241" on="0"/>
        <pt x="137" y="299" on="1"/>
        <pt x="112" y="367" on="0"/>
        <pt x="84" y="535" on="0"/>
        <pt x="84" y="641" on="1"/>
        <pt x="84" y="762" on="0"/>
        <pt x="133" y="965" on="0"/>
        <pt x="178" y="1049" on="1"/>
        <pt x="262" y="1220" on="0"/>
        <pt x="545" y="1409" on="0"/>
        <pt x="723" y="1421" on="1"/>
        <pt x="735" y="1423" on="0"/>
        <pt x="760" y="1423" on="0"/>
        <pt x="774" y="1423" on="1"/>
        <pt x="859" y="1423" on="0"/>
        <pt x="948" y="1405" on="1"/>
        <pt x="1033" y="1388" on="0"/>
        <pt x="1205" y="1321" on="0"/>
        <pt x="1292" y="1270" on="1"/>
        <pt x="1255" y="1004" on="1"/>
        <pt x="1196" y="1018" on="0"/>
        <pt x="1072" y="1049" on="0"/>
        <pt x="1012" y="1049" on="1"/>
        <pt x="961" y="1049" on="0"/>
        <pt x="871" y="1013" on="0"/>
        <pt x="839" y="965" on="1"/>
        <pt x="810" y="921" on="0"/>
        <pt x="778" y="779" on="0"/>
      </contour>
    </TTGlyph>
    <TTGlyph name="Cacute" xMin="84" yMin="-49" xMax="1292" yMax="2371">
      <component glyphName="C" x="0" y="0" flags="0x1204"/>
      <component glyphName="acute" x="228" y="223" flags="0x1004"/>
    </TTGlyph>
    <TTGlyph name="Ccaron" xMin="84" yMin="-49" xMax="1292" yMax="2269">
      <component glyphName="C" x="0" y="0" flags="0x1204"/>
      <component glyphName="caron" x="52" y="223" flags="0x1004"/>
    </TTGlyph>
    <TTGlyph name="Ccedilla" xMin="84" yMin="-672" xMax="1292" yMax="1423">
      <component glyphName="C" x="0" y="0" flags="0x1004"/>
      <component glyphName="cedilla" x="405" y="0" flags="0x1004"/>
    </TTGlyph>
    <TTGlyph name="Ccircumflex" xMin="84" yMin="-49" xMax="1292" yMax="2269">
      <component glyphName="C" x="0" y="0" flags="0x1204"/>
      <component glyphName="circumflex" x="51" y="223" flags="0x1004"/>
    </TTGlyph>
    <TTGlyph name="Cdotaccent" xMin="84" yMin="-49" xMax="1292" yMax="2003">
      <component glyphName="C" x="0" y="0" flags="0x1204"/>
      <component glyphName="dotaccent" x="310" y="223" flags="0x1004"/>
    </TTGlyph>
    <TTGlyph name="D" xMin="119" yMin="-2" xMax="1662" yMax="1376">
      <contour>
        <pt x="767" y="-2" on="1"/>
        <pt x="700" y="-2" on="0"/>
        <pt x="567" y="-1" on="0"/>
        <pt x="426" y="1" on="0"/>
        <pt x="273" y="2" on="0"/>
        <pt x="185" y="2" on="1"/>
        <pt x="166" y="2" on="0"/>
        <pt x="144" y="26" on="0"/>
        <pt x="133" y="63" on="0"/>
        <pt x="130" y="107" on="0"/>
        <pt x="130" y="127" on="1"/>
        <pt x="130" y="175" on="0"/>
        <pt x="127" y="342" on="0"/>
        <pt x="122" y="546" on="0"/>
        <pt x="119" y="768" on="0"/>
        <pt x="119" y="870" on="1"/>
        <pt x="119" y="1321" on="1"/>
        <pt x="119" y="1340" on="0"/>
        <pt x="154" y="1374" on="0"/>
        <pt x="173" y="1374" on="1"/>
        <pt x="310" y="1374" on="0"/>
        <pt x="508" y="1370" on="0"/>
        <pt x="580" y="1370" on="1"/>
        <pt x="692" y="1370" on="0"/>
        <pt x="945" y="1376" on="0"/>
        <pt x="1096" y="1376" on="1"/>
        <pt x="1152" y="1376" on="0"/>
        <pt x="1279" y="1355" on="0"/>
        <pt x="1405" y="1303" on="0"/>
        <pt x="1521" y="1214" on="0"/>
        <pt x="1609" y="1078" on="0"/>
        <pt x="1662" y="888" on="0"/>
        <pt x="1662" y="762" on="1"/>
        <pt x="1662" y="552" on="0"/>
        <pt x="1570" y="261" on="0"/>
        <pt x="1359" y="80" on="0"/>
        <pt x="1017" y="-2" on="0"/>
      </contour>
      <contour>
        <pt x="783" y="270" on="1"/>
        <pt x="803" y="269" on="0"/>
        <pt x="821" y="270" on="1"/>
        <pt x="836" y="271" on="0"/>
        <pt x="867" y="277" on="0"/>
        <pt x="875" y="285" on="1"/>
        <pt x="888" y="298" on="0"/>
        <pt x="912" y="361" on="0"/>
        <pt x="933" y="446" on="0"/>
        <pt x="950" y="549" on="0"/>
        <pt x="962" y="656" on="0"/>
        <pt x="969" y="761" on="0"/>
        <pt x="969" y="807" on="1"/>
        <pt x="969" y="814" on="0"/>
        <pt x="968" y="875" on="0"/>
        <pt x="963" y="958" on="0"/>
        <pt x="952" y="1051" on="0"/>
        <pt x="931" y="1130" on="0"/>
        <pt x="898" y="1182" on="0"/>
        <pt x="875" y="1182" on="1"/>
        <pt x="858" y="1182" on="0"/>
        <pt x="833" y="1175" on="0"/>
        <pt x="824" y="1171" on="1"/>
        <pt x="813" y="1167" on="0"/>
        <pt x="806" y="1161" on="1"/>
        <pt x="806" y="1114" on="0"/>
        <pt x="804" y="988" on="0"/>
        <pt x="801" y="845" on="0"/>
        <pt x="796" y="694" on="0"/>
        <pt x="794" y="622" on="1"/>
      </contour>
    </TTGlyph>
    <TTGlyph name="Dcaron" xMin="119" yMin="-2" xMax="1662" yMax="2269">
      <component glyphName="D" x="0" y="0" flags="0x1204"/>
      <component glyphName="caron" x="238" y="223" flags="0x1004"/>
    </TTGlyph>
    <TTGlyph name="Dcroat" xMin="-25" yMin="-2" xMax="1662" yMax="1376">
      <contour>
        <pt x="767" y="-2" on="1"/>
        <pt x="700" y="-2" on="0"/>
        <pt x="567" y="-1" on="0"/>
        <pt x="426" y="1" on="0"/>
        <pt x="273" y="2" on="0"/>
        <pt x="185" y="2" on="1"/>
        <pt x="166" y="2" on="0"/>
        <pt x="144" y="26" on="0"/>
        <pt x="133" y="63" on="0"/>
        <pt x="130" y="107" on="0"/>
        <pt x="130" y="127" on="1"/>
        <pt x="130" y="175" on="0"/>
        <pt x="127" y="342" on="0"/>
        <pt x="124" y="444" on="1"/>
        <pt x="123" y="512" on="0"/>
        <pt x="121" y="583" on="1"/>
        <pt x="92" y="583" on="1"/>
        <pt x="61" y="583" on="0"/>
        <pt x="9" y="590" on="0"/>
        <pt x="-23" y="608" on="0"/>
        <pt x="-23" y="625" on="1"/>
        <pt x="-23" y="657" on="0"/>
        <pt x="-24" y="706" on="0"/>
        <pt x="-24" y="751" on="0"/>
        <pt x="-25" y="800" on="0"/>
        <pt x="-25" y="830" on="1"/>
        <pt x="-25" y="837" on="0"/>
        <pt x="-15" y="850" on="0"/>
        <pt x="2" y="861" on="0"/>
        <pt x="21" y="868" on="0"/>
        <pt x="30" y="868" on="1"/>
        <pt x="119" y="868" on="1"/>
        <pt x="119" y="870" on="1"/>
        <pt x="119" y="1321" on="1"/>
        <pt x="119" y="1340" on="0"/>
        <pt x="154" y="1374" on="0"/>
        <pt x="173" y="1374" on="1"/>
        <pt x="310" y="1374" on="0"/>
        <pt x="508" y="1370" on="0"/>
        <pt x="580" y="1370" on="1"/>
        <pt x="692" y="1370" on="0"/>
        <pt x="945" y="1376" on="0"/>
        <pt x="1096" y="1376" on="1"/>
        <pt x="1152" y="1376" on="0"/>
        <pt x="1279" y="1355" on="0"/>
        <pt x="1405" y="1303" on="0"/>
        <pt x="1521" y="1214" on="0"/>
        <pt x="1609" y="1078" on="0"/>
        <pt x="1662" y="888" on="0"/>
        <pt x="1662" y="762" on="1"/>
        <pt x="1662" y="552" on="0"/>
        <pt x="1570" y="261" on="0"/>
        <pt x="1359" y="80" on="0"/>
        <pt x="1017" y="-2" on="0"/>
      </contour>
      <contour>
        <pt x="723" y="270" on="1"/>
        <pt x="767" y="269" on="0"/>
        <pt x="807" y="270" on="1"/>
        <pt x="841" y="271" on="0"/>
        <pt x="910" y="277" on="0"/>
        <pt x="927" y="284" on="1"/>
        <pt x="956" y="297" on="0"/>
        <pt x="1010" y="358" on="0"/>
        <pt x="1056" y="440" on="0"/>
        <pt x="1094" y="540" on="0"/>
        <pt x="1121" y="643" on="0"/>
        <pt x="1136" y="744" on="0"/>
        <pt x="1136" y="789" on="1"/>
        <pt x="1136" y="796" on="0"/>
        <pt x="1134" y="854" on="0"/>
        <pt x="1123" y="935" on="0"/>
        <pt x="1098" y="1024" on="0"/>
        <pt x="1052" y="1101" on="0"/>
        <pt x="978" y="1151" on="0"/>
        <pt x="927" y="1151" on="1"/>
        <pt x="890" y="1151" on="0"/>
        <pt x="834" y="1144" on="0"/>
        <pt x="814" y="1140" on="1"/>
        <pt x="790" y="1137" on="0"/>
        <pt x="774" y="1131" on="1"/>
        <pt x="774" y="1085" on="0"/>
        <pt x="770" y="964" on="0"/>
        <pt x="766" y="894" on="1"/>
        <pt x="765" y="878" on="0"/>
        <pt x="765" y="861" on="1"/>
        <pt x="771" y="861" on="1"/>
        <pt x="812" y="861" on="0"/>
        <pt x="825" y="861" on="1"/>
        <pt x="846" y="861" on="0"/>
        <pt x="890" y="859" on="0"/>
        <pt x="928" y="852" on="0"/>
        <pt x="953" y="835" on="0"/>
        <pt x="953" y="822" on="1"/>
        <pt x="953" y="799" on="0"/>
        <pt x="955" y="770" on="0"/>
        <pt x="956" y="749" on="0"/>
        <pt x="957" y="734" on="0"/>
        <pt x="958" y="714" on="0"/>
        <pt x="959" y="687" on="0"/>
        <pt x="959" y="664" on="1"/>
        <pt x="959" y="650" on="0"/>
        <pt x="957" y="620" on="0"/>
        <pt x="945" y="594" on="0"/>
        <pt x="923" y="577" on="0"/>
        <pt x="903" y="577" on="1"/>
        <pt x="857" y="577" on="0"/>
        <pt x="790" y="578" on="0"/>
        <pt x="762" y="579" on="1"/>
        <pt x="753" y="579" on="0"/>
        <pt x="745" y="579" on="1"/>
      </contour>
    </TTGlyph>
    <TTGlyph name="Delta" xMin="102" yMin="-5" xMax="1426" yMax="1228">
      <contour>
        <pt x="566" y="1219" on="1"/>
        <pt x="567" y="1219" on="0"/>
        <pt x="608" y="1221" on="0"/>
        <pt x="657" y="1224" on="0"/>
        <pt x="696" y="1227" on="0"/>
        <pt x="695" y="1227" on="1"/>
        <pt x="700" y="1227" on="0"/>
        <pt x="743" y="1228" on="0"/>
        <pt x="803" y="1228" on="0"/>
        <pt x="871" y="1228" on="0"/>
        <pt x="930" y="1226" on="0"/>
        <pt x="971" y="1223" on="0"/>
        <pt x="974" y="1219" on="1"/>
        <pt x="1000" y="1219" on="0"/>
        <pt x="1045" y="1227" on="0"/>
        <pt x="1068" y="1227" on="1"/>
        <pt x="1080" y="1227" on="0"/>
        <pt x="1100" y="1219" on="0"/>
        <pt x="1111" y="1219" on="1"/>
        <pt x="1127" y="1219" on="1"/>
        <pt x="1134" y="1217" on="0"/>
        <pt x="1144" y="1203" on="0"/>
        <pt x="1144" y="1198" on="1"/>
        <pt x="1308" y="586" on="1"/>
        <pt x="1336" y="480" on="0"/>
        <pt x="1387" y="258" on="0"/>
        <pt x="1410" y="151" on="1"/>
        <pt x="1411" y="144" on="0"/>
        <pt x="1418" y="116" on="0"/>
        <pt x="1424" y="82" on="0"/>
        <pt x="1427" y="47" on="0"/>
        <pt x="1423" y="18" on="0"/>
        <pt x="1408" y="-1" on="0"/>
        <pt x="1394" y="-1" on="1"/>
        <pt x="1390" y="-1" on="0"/>
        <pt x="1369" y="-1" on="0"/>
        <pt x="1345" y="-1" on="0"/>
        <pt x="1326" y="-1" on="0"/>
        <pt x="1325" y="0" on="1"/>
        <pt x="1135" y="1" on="0"/>
        <pt x="790" y="-1" on="0"/>
        <pt x="621" y="0" on="1"/>
        <pt x="583" y="1" on="0"/>
        <pt x="556" y="2" on="1"/>
        <pt x="532" y="2" on="0"/>
        <pt x="497" y="1" on="0"/>
        <pt x="504" y="-4" on="1"/>
        <pt x="498" y="-4" on="1"/>
        <pt x="485" y="-4" on="0"/>
        <pt x="478" y="4" on="0"/>
        <pt x="473" y="4" on="1"/>
        <pt x="469" y="3" on="0"/>
        <pt x="465" y="1" on="1"/>
        <pt x="457" y="-3" on="0"/>
        <pt x="457" y="-4" on="1"/>
        <pt x="332" y="-4" on="1"/>
        <pt x="330" y="-5" on="0"/>
        <pt x="276" y="-4" on="0"/>
        <pt x="207" y="-2" on="0"/>
        <pt x="143" y="0" on="0"/>
        <pt x="133" y="0" on="1"/>
        <pt x="112" y="0" on="0"/>
        <pt x="100" y="42" on="0"/>
        <pt x="104" y="96" on="0"/>
        <pt x="115" y="148" on="0"/>
        <pt x="117" y="159" on="1"/>
        <pt x="140" y="266" on="0"/>
        <pt x="191" y="480" on="0"/>
        <pt x="219" y="586" on="1"/>
        <pt x="383" y="1198" on="1"/>
        <pt x="383" y="1204" on="0"/>
        <pt x="393" y="1217" on="0"/>
        <pt x="399" y="1219" on="1"/>
        <pt x="418" y="1219" on="1"/>
        <pt x="427" y="1219" on="0"/>
        <pt x="455" y="1227" on="0"/>
        <pt x="471" y="1227" on="1"/>
        <pt x="496" y="1227" on="0"/>
        <pt x="541" y="1219" on="0"/>
      </contour>
      <contour>
        <pt x="863" y="342" on="1"/>
        <pt x="863" y="343" on="0"/>
        <pt x="857" y="384" on="0"/>
        <pt x="848" y="449" on="0"/>
        <pt x="835" y="532" on="0"/>
        <pt x="823" y="618" on="0"/>
        <pt x="810" y="701" on="0"/>
        <pt x="801" y="766" on="0"/>
        <pt x="795" y="806" on="0"/>
        <pt x="795" y="807" on="1"/>
        <pt x="757" y="996" on="1"/>
        <pt x="717" y="807" on="1"/>
        <pt x="717" y="806" on="0"/>
        <pt x="710" y="766" on="0"/>
        <pt x="698" y="701" on="0"/>
        <pt x="684" y="618" on="0"/>
        <pt x="668" y="532" on="0"/>
        <pt x="654" y="449" on="0"/>
        <pt x="642" y="384" on="0"/>
        <pt x="635" y="343" on="0"/>
        <pt x="635" y="342" on="1"/>
        <pt x="630" y="301" on="0"/>
        <pt x="621" y="223" on="0"/>
        <pt x="616" y="188" on="1"/>
        <pt x="836" y="188" on="1"/>
        <pt x="851" y="188" on="0"/>
        <pt x="881" y="188" on="0"/>
        <pt x="895" y="187" on="1"/>
        <pt x="887" y="223" on="0"/>
        <pt x="872" y="301" on="0"/>
      </contour>
    </TTGlyph>
    <TTGlyph name="E" xMin="116" yMin="0" xMax="1319" yMax="1382">
      <contour>
        <pt x="116" y="805" on="1"/>
        <pt x="116" y="935" on="0"/>
        <pt x="120" y="1192" on="0"/>
        <pt x="133" y="1331" on="1"/>
        <pt x="133" y="1345" on="0"/>
        <pt x="161" y="1361" on="0"/>
        <pt x="205" y="1370" on="0"/>
        <pt x="259" y="1372" on="0"/>
        <pt x="284" y="1372" on="1"/>
        <pt x="412" y="1372" on="0"/>
        <pt x="640" y="1379" on="0"/>
        <pt x="865" y="1383" on="0"/>
        <pt x="1103" y="1380" on="0"/>
        <pt x="1241" y="1370" on="1"/>
        <pt x="1260" y="1370" on="0"/>
        <pt x="1282" y="1326" on="0"/>
        <pt x="1296" y="1259" on="0"/>
        <pt x="1309" y="1179" on="0"/>
        <pt x="1319" y="1143" on="1"/>
        <pt x="1320" y="1117" on="0"/>
        <pt x="1315" y="1094" on="0"/>
        <pt x="1304" y="1085" on="0"/>
        <pt x="1285" y="1087" on="0"/>
        <pt x="1272" y="1087" on="1"/>
        <pt x="1221" y="1087" on="0"/>
        <pt x="1115" y="1079" on="0"/>
        <pt x="1007" y="1069" on="0"/>
        <pt x="899" y="1058" on="0"/>
        <pt x="846" y="1055" on="1"/>
        <pt x="837" y="1055" on="0"/>
        <pt x="822" y="1005" on="0"/>
        <pt x="812" y="938" on="0"/>
        <pt x="807" y="872" on="0"/>
        <pt x="807" y="856" on="1"/>
        <pt x="807" y="828" on="0"/>
        <pt x="822" y="813" on="0"/>
        <pt x="839" y="813" on="1"/>
        <pt x="932" y="813" on="0"/>
        <pt x="1112" y="814" on="0"/>
        <pt x="1202" y="805" on="1"/>
        <pt x="1218" y="803" on="0"/>
        <pt x="1240" y="801" on="0"/>
        <pt x="1256" y="794" on="0"/>
        <pt x="1267" y="776" on="0"/>
        <pt x="1272" y="758" on="1"/>
        <pt x="1280" y="575" on="1"/>
        <pt x="1280" y="569" on="1"/>
        <pt x="1280" y="551" on="0"/>
        <pt x="1240" y="531" on="0"/>
        <pt x="1173" y="521" on="0"/>
        <pt x="1087" y="518" on="0"/>
        <pt x="1042" y="518" on="1"/>
        <pt x="954" y="518" on="0"/>
        <pt x="856" y="522" on="0"/>
        <pt x="810" y="511" on="0"/>
        <pt x="800" y="475" on="0"/>
        <pt x="800" y="436" on="1"/>
        <pt x="800" y="398" on="0"/>
        <pt x="792" y="323" on="0"/>
        <pt x="794" y="281" on="1"/>
        <pt x="893" y="281" on="0"/>
        <pt x="1091" y="293" on="0"/>
        <pt x="1188" y="293" on="1"/>
        <pt x="1195" y="293" on="0"/>
        <pt x="1211" y="263" on="0"/>
        <pt x="1228" y="215" on="0"/>
        <pt x="1244" y="158" on="0"/>
        <pt x="1257" y="105" on="0"/>
        <pt x="1265" y="62" on="0"/>
        <pt x="1265" y="53" on="1"/>
        <pt x="1265" y="35" on="0"/>
        <pt x="1246" y="10" on="0"/>
        <pt x="1224" y="10" on="1"/>
        <pt x="1150" y="10" on="0"/>
        <pt x="1011" y="2" on="0"/>
        <pt x="934" y="2" on="1"/>
        <pt x="773" y="2" on="0"/>
        <pt x="448" y="0" on="0"/>
        <pt x="286" y="0" on="1"/>
        <pt x="278" y="0" on="0"/>
        <pt x="231" y="5" on="0"/>
        <pt x="182" y="13" on="0"/>
        <pt x="144" y="23" on="0"/>
        <pt x="145" y="29" on="1"/>
        <pt x="145" y="51" on="0"/>
        <pt x="142" y="126" on="0"/>
        <pt x="137" y="215" on="0"/>
        <pt x="131" y="312" on="0"/>
        <pt x="126" y="403" on="0"/>
        <pt x="123" y="479" on="0"/>
        <pt x="123" y="504" on="1"/>
        <pt x="123" y="537" on="0"/>
        <pt x="121" y="592" on="0"/>
        <pt x="118" y="657" on="0"/>
        <pt x="116" y="742" on="0"/>
      </contour>
    </TTGlyph>
    <TTGlyph name="Eacute" xMin="116" yMin="0" xMax="1319" yMax="2391">
      <component glyphName="E" x="0" y="0" flags="0x1004"/>
      <component glyphName="acute" x="243" y="243" flags="0x1004"/>
    </TTGlyph>
    <TTGlyph name="Ebreve" xMin="116" yMin="0" xMax="1319" yMax="2090">
      <component glyphName="E" x="0" y="0" flags="0x1204"/>
      <component glyphName="breve" x="112" y="223" flags="0x1004"/>
    </TTGlyph>
    <TTGlyph name="Ecaron" xMin="116" yMin="0" xMax="1319" yMax="2269">
      <component glyphName="E" x="0" y="0" flags="0x1204"/>
      <component glyphName="caron" x="69" y="223" flags="0x1004"/>
    </TTGlyph>
    <TTGlyph name="Ecircumflex" xMin="116" yMin="0" xMax="1319" yMax="2269">
      <component glyphName="E" x="0" y="0" flags="0x1004"/>
      <component glyphName="circumflex" x="78" y="223" flags="0x1004"/>
    </TTGlyph>
    <TTGlyph name="Edieresis" xMin="116" yMin="0" xMax="1319" yMax="1962">
      <component glyphName="E" x="0" y="0" flags="0x1004"/>
      <component glyphName="dieresis" x="60" y="223" flags="0x1004"/>
    </TTGlyph>
    <TTGlyph name="Edotaccent" xMin="116" yMin="0" xMax="1319" yMax="2003">
      <component glyphName="E" x="0" y="0" flags="0x1204"/>
      <component glyphName="dotaccent" x="328" y="223" flags="0x1004"/>
    </TTGlyph>
    <TTGlyph name="Egrave" xMin="116" yMin="0" xMax="1319" yMax="2371">
      <component glyphName="E" x="0" y="0" flags="0x1004"/>
      <component glyphName="grave" x="305" y="223" flags="0x1004"/>
    </TTGlyph>
    <TTGlyph name="Emacron" xMin="116" yMin="0" xMax="1319" yMax="2049">
      <component glyphName="E" x="0" y="0" flags="0x1204"/>
      <component glyphName="macron" x="162" y="223" flags="0x1004"/>
    </TTGlyph>
    <TTGlyph name="Eng" xMin="129" yMin="-608" xMax="1671" yMax="1393">
      <contour>
        <pt x="856" y="330" on="1"/>
        <pt x="852" y="337" on="0"/>
        <pt x="825" y="381" on="0"/>
        <pt x="795" y="429" on="0"/>
        <pt x="767" y="466" on="0"/>
        <pt x="761" y="466" on="1"/>
        <pt x="753" y="466" on="0"/>
        <pt x="745" y="456" on="0"/>
        <pt x="745" y="450" on="1"/>
        <pt x="745" y="436" on="0"/>
        <pt x="744" y="376" on="0"/>
        <pt x="743" y="300" on="0"/>
        <pt x="741" y="217" on="0"/>
        <pt x="740" y="144" on="0"/>
        <pt x="739" y="87" on="0"/>
        <pt x="739" y="76" on="1"/>
        <pt x="739" y="59" on="0"/>
        <pt x="741" y="34" on="0"/>
        <pt x="734" y="17" on="0"/>
        <pt x="714" y="10" on="0"/>
        <pt x="692" y="12" on="1"/>
        <pt x="610" y="6" on="0"/>
        <pt x="462" y="-4" on="0"/>
        <pt x="380" y="-4" on="1"/>
        <pt x="367" y="-4" on="0"/>
        <pt x="325" y="-3" on="0"/>
        <pt x="285" y="-3" on="0"/>
        <pt x="254" y="-2" on="0"/>
        <pt x="253" y="-2" on="1"/>
        <pt x="161" y="20" on="1"/>
        <pt x="155" y="37" on="1"/>
        <pt x="154" y="37" on="0"/>
        <pt x="152" y="82" on="0"/>
        <pt x="149" y="154" on="0"/>
        <pt x="147" y="244" on="0"/>
        <pt x="145" y="336" on="0"/>
        <pt x="143" y="421" on="0"/>
        <pt x="143" y="451" on="1"/>
        <pt x="131" y="556" on="0"/>
        <pt x="128" y="768" on="0"/>
        <pt x="131" y="979" on="0"/>
        <pt x="136" y="1191" on="0"/>
        <pt x="133" y="1298" on="1"/>
        <pt x="128" y="1324" on="0"/>
        <pt x="143" y="1356" on="0"/>
        <pt x="174" y="1373" on="0"/>
        <pt x="213" y="1378" on="0"/>
        <pt x="232" y="1378" on="1"/>
        <pt x="338" y="1378" on="0"/>
        <pt x="507" y="1388" on="0"/>
        <pt x="629" y="1395" on="0"/>
        <pt x="701" y="1391" on="0"/>
        <pt x="712" y="1376" on="1"/>
        <pt x="718" y="1368" on="0"/>
        <pt x="756" y="1315" on="0"/>
        <pt x="810" y="1235" on="0"/>
        <pt x="876" y="1136" on="0"/>
        <pt x="946" y="1031" on="0"/>
        <pt x="1016" y="926" on="0"/>
        <pt x="1046" y="881" on="1"/>
        <pt x="1047" y="917" on="0"/>
        <pt x="1048" y="1010" on="0"/>
        <pt x="1050" y="1108" on="0"/>
        <pt x="1052" y="1202" on="0"/>
        <pt x="1055" y="1277" on="0"/>
        <pt x="1058" y="1323" on="0"/>
        <pt x="1060" y="1325" on="1"/>
        <pt x="1064" y="1329" on="0"/>
        <pt x="1082" y="1345" on="0"/>
        <pt x="1107" y="1362" on="0"/>
        <pt x="1138" y="1373" on="0"/>
        <pt x="1155" y="1372" on="1"/>
        <pt x="1271" y="1372" on="1"/>
        <pt x="1274" y="1372" on="0"/>
        <pt x="1320" y="1371" on="0"/>
        <pt x="1386" y="1370" on="0"/>
        <pt x="1463" y="1368" on="0"/>
        <pt x="1529" y="1367" on="0"/>
        <pt x="1574" y="1366" on="0"/>
        <pt x="1576" y="1366" on="1"/>
        <pt x="1600" y="1366" on="0"/>
        <pt x="1636" y="1360" on="0"/>
        <pt x="1659" y="1342" on="0"/>
        <pt x="1671" y="1308" on="0"/>
        <pt x="1671" y="1280" on="1"/>
        <pt x="1671" y="1274" on="0"/>
        <pt x="1668" y="1244" on="0"/>
        <pt x="1665" y="1209" on="0"/>
        <pt x="1662" y="1177" on="0"/>
        <pt x="1662" y="1169" on="1"/>
        <pt x="1662" y="1161" on="0"/>
        <pt x="1669" y="1141" on="0"/>
        <pt x="1669" y="1130" on="1"/>
        <pt x="1669" y="1117" on="0"/>
        <pt x="1668" y="1015" on="0"/>
        <pt x="1668" y="876" on="0"/>
        <pt x="1666" y="718" on="0"/>
        <pt x="1666" y="577" on="0"/>
        <pt x="1665" y="474" on="0"/>
        <pt x="1665" y="459" on="1"/>
        <pt x="1665" y="117" on="1"/>
        <pt x="1665" y="55" on="0"/>
        <pt x="1663" y="-85" on="0"/>
        <pt x="1646" y="-221" on="0"/>
        <pt x="1609" y="-345" on="0"/>
        <pt x="1574" y="-391" on="1"/>
        <pt x="1528" y="-464" on="0"/>
        <pt x="1411" y="-547" on="0"/>
        <pt x="1358" y="-569" on="1"/>
        <pt x="1296" y="-595" on="0"/>
        <pt x="1234" y="-603" on="1"/>
        <pt x="1094" y="-622" on="0"/>
        <pt x="810" y="-594" on="0"/>
        <pt x="679" y="-540" on="1"/>
        <pt x="589" y="-499" on="1"/>
        <pt x="587" y="-492" on="0"/>
        <pt x="590" y="-462" on="0"/>
        <pt x="594" y="-423" on="0"/>
        <pt x="599" y="-379" on="0"/>
        <pt x="601" y="-357" on="1"/>
        <pt x="601" y="-346" on="0"/>
        <pt x="605" y="-305" on="0"/>
        <pt x="609" y="-267" on="0"/>
        <pt x="614" y="-241" on="0"/>
        <pt x="616" y="-245" on="1"/>
        <pt x="667" y="-263" on="0"/>
        <pt x="746" y="-287" on="0"/>
        <pt x="820" y="-301" on="0"/>
        <pt x="897" y="-307" on="0"/>
        <pt x="945" y="-306" on="1"/>
        <pt x="969" y="-306" on="0"/>
        <pt x="1000" y="-271" on="0"/>
        <pt x="1020" y="-224" on="0"/>
        <pt x="1031" y="-175" on="0"/>
        <pt x="1035" y="-161" on="1"/>
        <pt x="1037" y="-126" on="0"/>
        <pt x="1042" y="-17" on="0"/>
        <pt x="1042" y="67" on="1"/>
      </contour>
    </TTGlyph>
    <TTGlyph name="Eogonek" xMin="116" yMin="-565" xMax="1321" yMax="1382">
      <component glyphName="E" x="0" y="0" flags="0x1204"/>
      <component glyphName="ogonek" x="506" y="0" flags="0x1004"/>
    </TTGlyph>
    <TTGlyph name="Eth" xMin="88" yMin="-2" xMax="1737" yMax="1376">
      <contour>
        <pt x="842" y="-2" on="1"/>
        <pt x="780" y="-2" on="0"/>
        <pt x="659" y="-1" on="0"/>
        <pt x="530" y="1" on="0"/>
        <pt x="390" y="2" on="0"/>
        <pt x="310" y="2" on="1"/>
        <pt x="291" y="2" on="0"/>
        <pt x="269" y="26" on="0"/>
        <pt x="258" y="63" on="0"/>
        <pt x="255" y="107" on="0"/>
        <pt x="255" y="127" on="1"/>
        <pt x="255" y="158" on="0"/>
        <pt x="253" y="251" on="0"/>
        <pt x="251" y="366" on="0"/>
        <pt x="248" y="498" on="0"/>
        <pt x="247" y="568" on="1"/>
        <pt x="215" y="568" on="0"/>
        <pt x="158" y="570" on="0"/>
        <pt x="116" y="578" on="0"/>
        <pt x="91" y="591" on="0"/>
        <pt x="91" y="603" on="1"/>
        <pt x="91" y="639" on="0"/>
        <pt x="90" y="694" on="0"/>
        <pt x="89" y="746" on="0"/>
        <pt x="88" y="800" on="0"/>
        <pt x="88" y="835" on="1"/>
        <pt x="88" y="840" on="0"/>
        <pt x="99" y="851" on="0"/>
        <pt x="116" y="860" on="0"/>
        <pt x="137" y="866" on="0"/>
        <pt x="146" y="866" on="1"/>
        <pt x="171" y="866" on="0"/>
        <pt x="219" y="866" on="0"/>
        <pt x="244" y="867" on="1"/>
        <pt x="244" y="870" on="1"/>
        <pt x="244" y="1321" on="1"/>
        <pt x="244" y="1340" on="0"/>
        <pt x="279" y="1374" on="0"/>
        <pt x="298" y="1374" on="1"/>
        <pt x="419" y="1374" on="0"/>
        <pt x="590" y="1370" on="0"/>
        <pt x="655" y="1370" on="1"/>
        <pt x="767" y="1370" on="0"/>
        <pt x="1020" y="1376" on="0"/>
        <pt x="1171" y="1376" on="1"/>
        <pt x="1227" y="1376" on="0"/>
        <pt x="1354" y="1355" on="0"/>
        <pt x="1480" y="1301" on="0"/>
        <pt x="1596" y="1209" on="0"/>
        <pt x="1684" y="1068" on="0"/>
        <pt x="1737" y="872" on="0"/>
        <pt x="1737" y="742" on="1"/>
        <pt x="1737" y="538" on="0"/>
        <pt x="1645" y="254" on="0"/>
        <pt x="1434" y="77" on="0"/>
        <pt x="1092" y="-2" on="0"/>
      </contour>
      <contour>
        <pt x="858" y="270" on="1"/>
        <pt x="883" y="269" on="0"/>
        <pt x="905" y="270" on="1"/>
        <pt x="924" y="271" on="0"/>
        <pt x="961" y="277" on="0"/>
        <pt x="970" y="285" on="1"/>
        <pt x="992" y="305" on="0"/>
        <pt x="1030" y="373" on="0"/>
        <pt x="1058" y="493" on="0"/>
        <pt x="1074" y="674" on="0"/>
        <pt x="1074" y="807" on="1"/>
        <pt x="1074" y="814" on="0"/>
        <pt x="1073" y="875" on="0"/>
        <pt x="1066" y="958" on="0"/>
        <pt x="1051" y="1051" on="0"/>
        <pt x="1023" y="1130" on="0"/>
        <pt x="981" y="1182" on="0"/>
        <pt x="950" y="1182" on="1"/>
        <pt x="927" y="1182" on="0"/>
        <pt x="894" y="1175" on="0"/>
        <pt x="883" y="1171" on="1"/>
        <pt x="870" y="1167" on="0"/>
        <pt x="861" y="1161" on="1"/>
        <pt x="861" y="1105" on="0"/>
        <pt x="861" y="951" on="0"/>
        <pt x="860" y="865" on="1"/>
        <pt x="884" y="864" on="0"/>
        <pt x="930" y="861" on="0"/>
        <pt x="968" y="855" on="0"/>
        <pt x="991" y="843" on="0"/>
        <pt x="991" y="834" on="1"/>
        <pt x="991" y="797" on="0"/>
        <pt x="989" y="747" on="0"/>
        <pt x="987" y="705" on="0"/>
        <pt x="985" y="664" on="0"/>
        <pt x="985" y="637" on="1"/>
        <pt x="985" y="622" on="0"/>
        <pt x="980" y="599" on="0"/>
        <pt x="955" y="583" on="0"/>
        <pt x="904" y="574" on="0"/>
        <pt x="859" y="573" on="1"/>
        <pt x="859" y="509" on="0"/>
        <pt x="858" y="400" on="0"/>
        <pt x="858" y="358" on="1"/>
      </contour>
    </TTGlyph>
    <TTGlyph name="Euro" xMin="61" yMin="-49" xMax="1404" yMax="1423">
      <contour>
        <pt x="129" y="471" on="1"/>
        <pt x="118" y="471" on="0"/>
        <pt x="95" y="470" on="0"/>
        <pt x="77" y="476" on="0"/>
        <pt x="65" y="490" on="0"/>
        <pt x="65" y="505" on="1"/>
        <pt x="65" y="521" on="0"/>
        <pt x="64" y="545" on="0"/>
        <pt x="62" y="568" on="0"/>
        <pt x="61" y="592" on="0"/>
        <pt x="61" y="607" on="1"/>
        <pt x="61" y="618" on="0"/>
        <pt x="75" y="638" on="0"/>
        <pt x="82" y="638" on="1"/>
        <pt x="140" y="638" on="0"/>
        <pt x="196" y="638" on="1"/>
        <pt x="196" y="641" on="1"/>
        <pt x="196" y="685" on="0"/>
        <pt x="199" y="727" on="1"/>
        <pt x="129" y="727" on="1"/>
        <pt x="118" y="727" on="0"/>
        <pt x="95" y="726" on="0"/>
        <pt x="77" y="732" on="0"/>
        <pt x="65" y="746" on="0"/>
        <pt x="65" y="761" on="1"/>
        <pt x="65" y="777" on="0"/>
        <pt x="64" y="801" on="0"/>
        <pt x="62" y="824" on="0"/>
        <pt x="61" y="848" on="0"/>
        <pt x="61" y="863" on="1"/>
        <pt x="61" y="874" on="0"/>
        <pt x="75" y="894" on="0"/>
        <pt x="82" y="894" on="1"/>
        <pt x="157" y="894" on="0"/>
        <pt x="228" y="895" on="1"/>
        <pt x="252" y="978" on="0"/>
        <pt x="290" y="1049" on="1"/>
        <pt x="374" y="1220" on="0"/>
        <pt x="657" y="1409" on="0"/>
        <pt x="835" y="1421" on="1"/>
        <pt x="847" y="1423" on="0"/>
        <pt x="859" y="1423" on="1"/>
        <pt x="886" y="1423" on="1"/>
        <pt x="971" y="1423" on="0"/>
        <pt x="1060" y="1405" on="1"/>
        <pt x="1145" y="1388" on="0"/>
        <pt x="1317" y="1321" on="0"/>
        <pt x="1404" y="1270" on="1"/>
        <pt x="1367" y="1004" on="1"/>
        <pt x="1308" y="1018" on="0"/>
        <pt x="1184" y="1049" on="0"/>
        <pt x="1124" y="1049" on="1"/>
        <pt x="1073" y="1049" on="0"/>
        <pt x="983" y="1013" on="0"/>
        <pt x="951" y="965" on="1"/>
        <pt x="932" y="936" on="0"/>
        <pt x="918" y="895" on="1"/>
        <pt x="952" y="895" on="0"/>
        <pt x="987" y="894" on="1"/>
        <pt x="1033" y="894" on="0"/>
        <pt x="1086" y="894" on="1"/>
        <pt x="1099" y="894" on="0"/>
        <pt x="1126" y="892" on="0"/>
        <pt x="1149" y="886" on="0"/>
        <pt x="1163" y="873" on="0"/>
        <pt x="1163" y="862" on="1"/>
        <pt x="1163" y="837" on="0"/>
        <pt x="1155" y="812" on="0"/>
        <pt x="1155" y="795" on="1"/>
        <pt x="1155" y="780" on="0"/>
        <pt x="1153" y="756" on="0"/>
        <pt x="1144" y="739" on="0"/>
        <pt x="1124" y="731" on="0"/>
        <pt x="1107" y="731" on="1"/>
        <pt x="1071" y="730" on="0"/>
        <pt x="1039" y="729" on="1"/>
        <pt x="1012" y="728" on="0"/>
        <pt x="959" y="727" on="0"/>
        <pt x="948" y="727" on="1"/>
        <pt x="891" y="727" on="1"/>
        <pt x="890" y="700" on="0"/>
        <pt x="890" y="670" on="1"/>
        <pt x="890" y="640" on="1"/>
        <pt x="896" y="640" on="1"/>
        <pt x="941" y="639" on="0"/>
        <pt x="1033" y="638" on="0"/>
        <pt x="1086" y="638" on="1"/>
        <pt x="1099" y="638" on="0"/>
        <pt x="1126" y="636" on="0"/>
        <pt x="1149" y="630" on="0"/>
        <pt x="1163" y="617" on="0"/>
        <pt x="1163" y="606" on="1"/>
        <pt x="1163" y="581" on="0"/>
        <pt x="1155" y="556" on="0"/>
        <pt x="1155" y="539" on="1"/>
        <pt x="1155" y="524" on="0"/>
        <pt x="1153" y="500" on="0"/>
        <pt x="1144" y="483" on="0"/>
        <pt x="1124" y="475" on="0"/>
        <pt x="1107" y="475" on="1"/>
        <pt x="1071" y="474" on="0"/>
        <pt x="1039" y="473" on="1"/>
        <pt x="1012" y="472" on="0"/>
        <pt x="959" y="471" on="0"/>
        <pt x="948" y="471" on="1"/>
        <pt x="913" y="471" on="1"/>
        <pt x="914" y="468" on="0"/>
        <pt x="915" y="464" on="1"/>
        <pt x="931" y="418" on="0"/>
        <pt x="976" y="361" on="0"/>
        <pt x="1033" y="336" on="0"/>
        <pt x="1066" y="336" on="1"/>
        <pt x="1097" y="336" on="0"/>
        <pt x="1165" y="355" on="0"/>
        <pt x="1237" y="389" on="0"/>
        <pt x="1311" y="433" on="0"/>
        <pt x="1347" y="459" on="1"/>
        <pt x="1365" y="123" on="1"/>
        <pt x="1325" y="84" on="0"/>
        <pt x="1220" y="20" on="0"/>
        <pt x="1104" y="-25" on="0"/>
        <pt x="988" y="-49" on="0"/>
        <pt x="937" y="-49" on="1"/>
        <pt x="881" y="-49" on="0"/>
        <pt x="768" y="-44" on="0"/>
        <pt x="657" y="-29" on="0"/>
        <pt x="550" y="0" on="0"/>
        <pt x="501" y="23" on="1"/>
        <pt x="481" y="32" on="0"/>
        <pt x="442" y="54" on="0"/>
        <pt x="423" y="68" on="1"/>
        <pt x="392" y="94" on="0"/>
        <pt x="338" y="158" on="0"/>
        <pt x="315" y="197" on="1"/>
        <pt x="276" y="241" on="0"/>
        <pt x="249" y="299" on="1"/>
        <pt x="224" y="367" on="0"/>
        <pt x="210" y="451" on="1"/>
        <pt x="208" y="461" on="0"/>
        <pt x="206" y="471" on="1"/>
      </contour>
    </TTGlyph>
    <TTGlyph name="F" xMin="116" yMin="-23" xMax="1283" yMax="1372">
      <contour>
        <pt x="116" y="1341" on="1"/>
        <pt x="116" y="1352" on="0"/>
        <pt x="126" y="1361" on="0"/>
        <pt x="139" y="1364" on="0"/>
        <pt x="150" y="1362" on="0"/>
        <pt x="151" y="1362" on="1"/>
        <pt x="223" y="1362" on="0"/>
        <pt x="457" y="1372" on="0"/>
        <pt x="598" y="1372" on="1"/>
        <pt x="601" y="1372" on="0"/>
        <pt x="638" y="1371" on="0"/>
        <pt x="680" y="1371" on="0"/>
        <pt x="716" y="1370" on="0"/>
        <pt x="718" y="1370" on="1"/>
        <pt x="765" y="1370" on="0"/>
        <pt x="862" y="1368" on="0"/>
        <pt x="967" y="1366" on="0"/>
        <pt x="1084" y="1364" on="0"/>
        <pt x="1151" y="1364" on="1"/>
        <pt x="1166" y="1364" on="0"/>
        <pt x="1187" y="1358" on="0"/>
        <pt x="1205" y="1355" on="0"/>
        <pt x="1222" y="1356" on="0"/>
        <pt x="1231" y="1364" on="1"/>
        <pt x="1258" y="1364" on="0"/>
        <pt x="1280" y="1316" on="0"/>
        <pt x="1285" y="1237" on="0"/>
        <pt x="1280" y="1135" on="0"/>
        <pt x="1280" y="1081" on="1"/>
        <pt x="1280" y="1068" on="0"/>
        <pt x="1257" y="1056" on="0"/>
        <pt x="1224" y="1052" on="0"/>
        <pt x="1189" y="1053" on="0"/>
        <pt x="1177" y="1053" on="1"/>
        <pt x="1085" y="1053" on="1"/>
        <pt x="1063" y="1053" on="0"/>
        <pt x="1037" y="1050" on="0"/>
        <pt x="1013" y="1047" on="0"/>
        <pt x="985" y="1044" on="0"/>
        <pt x="960" y="1044" on="1"/>
        <pt x="945" y="1044" on="0"/>
        <pt x="916" y="1045" on="0"/>
        <pt x="911" y="1047" on="1"/>
        <pt x="906" y="1045" on="0"/>
        <pt x="898" y="1040" on="0"/>
        <pt x="895" y="1038" on="1"/>
        <pt x="894" y="1033" on="0"/>
        <pt x="889" y="1004" on="0"/>
        <pt x="884" y="952" on="0"/>
        <pt x="880" y="874" on="0"/>
        <pt x="880" y="819" on="1"/>
        <pt x="881" y="820" on="0"/>
        <pt x="877" y="806" on="0"/>
        <pt x="886" y="797" on="1"/>
        <pt x="927" y="797" on="1"/>
        <pt x="1132" y="797" on="1"/>
        <pt x="1154" y="797" on="0"/>
        <pt x="1179" y="784" on="0"/>
        <pt x="1191" y="749" on="0"/>
        <pt x="1194" y="687" on="0"/>
        <pt x="1194" y="639" on="1"/>
        <pt x="1194" y="579" on="0"/>
        <pt x="1194" y="507" on="0"/>
        <pt x="1189" y="467" on="0"/>
        <pt x="1176" y="454" on="0"/>
        <pt x="1164" y="454" on="1"/>
        <pt x="1153" y="454" on="0"/>
        <pt x="1111" y="451" on="0"/>
        <pt x="1062" y="448" on="0"/>
        <pt x="1014" y="446" on="0"/>
        <pt x="997" y="446" on="1"/>
        <pt x="982" y="446" on="0"/>
        <pt x="966" y="444" on="0"/>
        <pt x="952" y="441" on="0"/>
        <pt x="935" y="438" on="0"/>
        <pt x="919" y="436" on="1"/>
        <pt x="903" y="434" on="0"/>
        <pt x="877" y="436" on="0"/>
        <pt x="855" y="433" on="0"/>
        <pt x="835" y="422" on="0"/>
        <pt x="825" y="408" on="1"/>
        <pt x="825" y="334" on="0"/>
        <pt x="824" y="205" on="0"/>
        <pt x="820" y="102" on="0"/>
        <pt x="809" y="28" on="0"/>
        <pt x="800" y="10" on="1"/>
        <pt x="778" y="10" on="0"/>
        <pt x="720" y="7" on="0"/>
        <pt x="668" y="4" on="0"/>
        <pt x="631" y="2" on="0"/>
        <pt x="630" y="2" on="1"/>
        <pt x="621" y="1" on="0"/>
        <pt x="610" y="4" on="0"/>
        <pt x="603" y="7" on="0"/>
        <pt x="596" y="10" on="0"/>
        <pt x="592" y="10" on="1"/>
        <pt x="590" y="10" on="0"/>
        <pt x="577" y="4" on="0"/>
        <pt x="575" y="2" on="1"/>
        <pt x="405" y="2" on="1"/>
        <pt x="403" y="0" on="0"/>
        <pt x="349" y="-9" on="0"/>
        <pt x="282" y="-17" on="0"/>
        <pt x="221" y="-23" on="0"/>
        <pt x="211" y="-23" on="1"/>
        <pt x="185" y="-23" on="0"/>
        <pt x="160" y="26" on="0"/>
        <pt x="150" y="90" on="0"/>
        <pt x="150" y="152" on="0"/>
        <pt x="149" y="166" on="1"/>
        <pt x="145" y="230" on="0"/>
        <pt x="140" y="363" on="0"/>
        <pt x="134" y="497" on="0"/>
        <pt x="125" y="630" on="0"/>
        <pt x="116" y="694" on="1"/>
      </contour>
    </TTGlyph>
    <TTGlyph name="G" xMin="87" yMin="-47" xMax="1600" yMax="1423">
      <contour>
        <pt x="1592" y="291" on="1"/>
        <pt x="1592" y="243" on="0"/>
        <pt x="1591" y="151" on="0"/>
        <pt x="1588" y="75" on="0"/>
        <pt x="1581" y="19" on="0"/>
        <pt x="1574" y="6" on="1"/>
        <pt x="1557" y="6" on="0"/>
        <pt x="1515" y="4" on="0"/>
        <pt x="1495" y="3" on="1"/>
        <pt x="1472" y="1" on="0"/>
        <pt x="1449" y="0" on="1"/>
        <pt x="1443" y="0" on="1"/>
        <pt x="1427" y="0" on="0"/>
        <pt x="1423" y="3" on="1"/>
        <pt x="1420" y="4" on="0"/>
        <pt x="1420" y="6" on="1"/>
        <pt x="1414" y="4" on="1"/>
        <pt x="1408" y="2" on="0"/>
        <pt x="1408" y="0" on="1"/>
        <pt x="1205" y="0" on="1"/>
        <pt x="1203" y="0" on="0"/>
        <pt x="1184" y="-1" on="0"/>
        <pt x="1160" y="-1" on="0"/>
        <pt x="1137" y="-2" on="0"/>
        <pt x="1133" y="-2" on="1"/>
        <pt x="1125" y="-2" on="0"/>
        <pt x="1112" y="23" on="0"/>
        <pt x="1103" y="68" on="0"/>
        <pt x="1097" y="130" on="0"/>
        <pt x="1094" y="168" on="1"/>
        <pt x="1083" y="115" on="0"/>
        <pt x="1015" y="35" on="0"/>
        <pt x="913" y="-19" on="0"/>
        <pt x="783" y="-47" on="0"/>
        <pt x="711" y="-47" on="1"/>
        <pt x="642" y="-47" on="0"/>
        <pt x="496" y="-13" on="0"/>
        <pt x="357" y="60" on="0"/>
        <pt x="234" y="174" on="0"/>
        <pt x="141" y="336" on="0"/>
        <pt x="87" y="548" on="0"/>
        <pt x="87" y="682" on="1"/>
        <pt x="87" y="860" on="0"/>
        <pt x="214" y="1136" on="0"/>
        <pt x="438" y="1325" on="0"/>
        <pt x="743" y="1423" on="0"/>
        <pt x="920" y="1423" on="1"/>
        <pt x="1048" y="1423" on="0"/>
        <pt x="1322" y="1356" on="0"/>
        <pt x="1459" y="1290" on="1"/>
        <pt x="1381" y="942" on="1"/>
        <pt x="1343" y="952" on="0"/>
        <pt x="1261" y="975" on="0"/>
        <pt x="1178" y="995" on="0"/>
        <pt x="1095" y="1008" on="0"/>
        <pt x="1056" y="1008" on="1"/>
        <pt x="998" y="1008" on="0"/>
        <pt x="898" y="979" on="0"/>
        <pt x="824" y="903" on="0"/>
        <pt x="781" y="772" on="0"/>
        <pt x="781" y="670" on="1"/>
        <pt x="781" y="581" on="0"/>
        <pt x="807" y="461" on="0"/>
        <pt x="854" y="388" on="0"/>
        <pt x="919" y="356" on="0"/>
        <pt x="957" y="356" on="1"/>
        <pt x="985" y="356" on="0"/>
        <pt x="1048" y="371" on="0"/>
        <pt x="1080" y="385" on="1"/>
        <pt x="1078" y="458" on="0"/>
        <pt x="1073" y="598" on="0"/>
        <pt x="1073" y="667" on="1"/>
        <pt x="1073" y="704" on="0"/>
        <pt x="1074" y="741" on="0"/>
        <pt x="1086" y="755" on="0"/>
        <pt x="1112" y="754" on="0"/>
        <pt x="1137" y="754" on="1"/>
        <pt x="1354" y="754" on="1"/>
        <pt x="1431" y="754" on="0"/>
        <pt x="1526" y="756" on="0"/>
        <pt x="1579" y="747" on="0"/>
        <pt x="1598" y="720" on="0"/>
        <pt x="1598" y="690" on="1"/>
        <pt x="1598" y="681" on="0"/>
        <pt x="1599" y="667" on="0"/>
        <pt x="1599" y="643" on="0"/>
        <pt x="1600" y="600" on="0"/>
        <pt x="1600" y="561" on="1"/>
        <pt x="1600" y="352" on="1"/>
        <pt x="1600" y="350" on="0"/>
        <pt x="1597" y="332" on="0"/>
        <pt x="1594" y="310" on="0"/>
        <pt x="1592" y="292" on="0"/>
      </contour>
    </TTGlyph>
    <TTGlyph name="Gbreve" xMin="87" yMin="-47" xMax="1600" yMax="2090">
      <component glyphName="G" x="0" y="0" flags="0x1204"/>
      <component glyphName="breve" x="249" y="223" flags="0x1004"/>
    </TTGlyph>
    <TTGlyph name="Gcircumflex" xMin="87" yMin="-47" xMax="1600" yMax="2269">
      <component glyphName="G" x="0" y="0" flags="0x1204"/>
      <component glyphName="circumflex" x="206" y="223" flags="0x1004"/>
    </TTGlyph>
    <TTGlyph name="Gdotaccent" xMin="87" yMin="-47" xMax="1600" yMax="2003">
      <component glyphName="G" x="0" y="0" flags="0x1204"/>
      <component glyphName="dotaccent" x="465" y="223" flags="0x1004"/>
    </TTGlyph>
    <TTGlyph name="H" xMin="115" yMin="-13" xMax="1793" yMax="1372">
      <contour>
        <pt x="1060" y="954" on="1"/>
        <pt x="1061" y="1032" on="0"/>
        <pt x="1063" y="1094" on="1"/>
        <pt x="1064" y="1121" on="0"/>
        <pt x="1065" y="1173" on="0"/>
        <pt x="1066" y="1216" on="0"/>
        <pt x="1067" y="1245" on="0"/>
        <pt x="1067" y="1248" on="1"/>
        <pt x="1067" y="1284" on="0"/>
        <pt x="1069" y="1329" on="0"/>
        <pt x="1086" y="1353" on="0"/>
        <pt x="1125" y="1362" on="0"/>
        <pt x="1163" y="1362" on="1"/>
        <pt x="1176" y="1362" on="0"/>
        <pt x="1259" y="1363" on="0"/>
        <pt x="1371" y="1366" on="0"/>
        <pt x="1497" y="1368" on="0"/>
        <pt x="1609" y="1371" on="0"/>
        <pt x="1692" y="1372" on="0"/>
        <pt x="1704" y="1372" on="1"/>
        <pt x="1727" y="1372" on="0"/>
        <pt x="1761" y="1368" on="0"/>
        <pt x="1783" y="1351" on="0"/>
        <pt x="1793" y="1320" on="0"/>
        <pt x="1793" y="1293" on="1"/>
        <pt x="1793" y="1231" on="0"/>
        <pt x="1789" y="1127" on="0"/>
        <pt x="1784" y="1028" on="0"/>
        <pt x="1780" y="925" on="0"/>
        <pt x="1780" y="864" on="1"/>
        <pt x="1780" y="853" on="0"/>
        <pt x="1785" y="833" on="0"/>
        <pt x="1785" y="823" on="1"/>
        <pt x="1737" y="47" on="1"/>
        <pt x="1737" y="41" on="0"/>
        <pt x="1728" y="25" on="0"/>
        <pt x="1715" y="10" on="0"/>
        <pt x="1698" y="0" on="0"/>
        <pt x="1690" y="0" on="1"/>
        <pt x="1127" y="0" on="1"/>
        <pt x="1119" y="0" on="0"/>
        <pt x="1108" y="18" on="0"/>
        <pt x="1100" y="49" on="0"/>
        <pt x="1095" y="88" on="0"/>
        <pt x="1094" y="109" on="1"/>
        <pt x="1072" y="485" on="1"/>
        <pt x="1071" y="485" on="0"/>
        <pt x="1040" y="486" on="0"/>
        <pt x="993" y="488" on="0"/>
        <pt x="938" y="491" on="0"/>
        <pt x="890" y="493" on="0"/>
        <pt x="855" y="494" on="0"/>
        <pt x="853" y="494" on="1"/>
        <pt x="842" y="494" on="0"/>
        <pt x="838" y="468" on="0"/>
        <pt x="838" y="459" on="1"/>
        <pt x="838" y="344" on="0"/>
        <pt x="837" y="187" on="0"/>
        <pt x="833" y="84" on="0"/>
        <pt x="824" y="28" on="0"/>
        <pt x="807" y="3" on="0"/>
        <pt x="782" y="-2" on="0"/>
        <pt x="763" y="-2" on="1"/>
        <pt x="649" y="-10" on="0"/>
        <pt x="541" y="-12" on="1"/>
        <pt x="495" y="-13" on="0"/>
        <pt x="396" y="-12" on="0"/>
        <pt x="301" y="-6" on="0"/>
        <pt x="213" y="5" on="0"/>
        <pt x="177" y="14" on="1"/>
        <pt x="172" y="15" on="0"/>
        <pt x="163" y="31" on="0"/>
        <pt x="157" y="50" on="0"/>
        <pt x="154" y="67" on="0"/>
        <pt x="154" y="70" on="1"/>
        <pt x="115" y="815" on="1"/>
        <pt x="115" y="834" on="1"/>
        <pt x="115" y="854" on="1"/>
        <pt x="115" y="871" on="0"/>
        <pt x="117" y="953" on="0"/>
        <pt x="120" y="1057" on="0"/>
        <pt x="123" y="1169" on="0"/>
        <pt x="126" y="1262" on="0"/>
        <pt x="130" y="1323" on="0"/>
        <pt x="132" y="1325" on="1"/>
        <pt x="136" y="1329" on="0"/>
        <pt x="153" y="1345" on="0"/>
        <pt x="178" y="1362" on="0"/>
        <pt x="209" y="1373" on="0"/>
        <pt x="226" y="1372" on="1"/>
        <pt x="343" y="1372" on="1"/>
        <pt x="345" y="1372" on="0"/>
        <pt x="407" y="1371" on="0"/>
        <pt x="496" y="1370" on="0"/>
        <pt x="599" y="1368" on="0"/>
        <pt x="688" y="1367" on="0"/>
        <pt x="748" y="1366" on="0"/>
        <pt x="750" y="1366" on="1"/>
        <pt x="774" y="1366" on="0"/>
        <pt x="810" y="1360" on="0"/>
        <pt x="833" y="1342" on="0"/>
        <pt x="845" y="1308" on="0"/>
        <pt x="845" y="1280" on="1"/>
        <pt x="845" y="1274" on="0"/>
        <pt x="842" y="1244" on="0"/>
        <pt x="839" y="1209" on="0"/>
        <pt x="836" y="1177" on="0"/>
        <pt x="836" y="1169" on="1"/>
        <pt x="836" y="1161" on="0"/>
        <pt x="842" y="1141" on="0"/>
        <pt x="842" y="1130" on="1"/>
        <pt x="842" y="1090" on="0"/>
        <pt x="838" y="1014" on="0"/>
        <pt x="838" y="969" on="1"/>
        <pt x="861" y="969" on="0"/>
        <pt x="918" y="964" on="0"/>
        <pt x="977" y="959" on="0"/>
        <pt x="1035" y="954" on="0"/>
      </contour>
    </TTGlyph>
    <TTGlyph name="Hbar" xMin="0" yMin="-13" xMax="1920" yMax="1372">
      <contour>
        <pt x="35" y="1063" on="1"/>
        <pt x="4" y="1070" on="0"/>
        <pt x="4" y="1082" on="1"/>
        <pt x="4" y="1102" on="0"/>
        <pt x="3" y="1135" on="0"/>
        <pt x="3" y="1165" on="0"/>
        <pt x="0" y="1197" on="0"/>
        <pt x="0" y="1219" on="1"/>
        <pt x="0" y="1223" on="0"/>
        <pt x="21" y="1231" on="0"/>
        <pt x="54" y="1238" on="0"/>
        <pt x="89" y="1243" on="0"/>
        <pt x="107" y="1243" on="1"/>
        <pt x="125" y="1243" on="1"/>
        <pt x="126" y="1271" on="0"/>
        <pt x="128" y="1292" on="1"/>
        <pt x="130" y="1323" on="0"/>
        <pt x="132" y="1325" on="1"/>
        <pt x="136" y="1329" on="0"/>
        <pt x="153" y="1345" on="0"/>
        <pt x="178" y="1362" on="0"/>
        <pt x="209" y="1373" on="0"/>
        <pt x="226" y="1372" on="1"/>
        <pt x="343" y="1372" on="1"/>
        <pt x="345" y="1372" on="0"/>
        <pt x="407" y="1371" on="0"/>
        <pt x="496" y="1370" on="0"/>
        <pt x="599" y="1368" on="0"/>
        <pt x="688" y="1367" on="0"/>
        <pt x="748" y="1366" on="0"/>
        <pt x="750" y="1366" on="1"/>
        <pt x="774" y="1366" on="0"/>
        <pt x="810" y="1360" on="0"/>
        <pt x="833" y="1342" on="0"/>
        <pt x="845" y="1308" on="0"/>
        <pt x="845" y="1280" on="1"/>
        <pt x="845" y="1274" on="0"/>
        <pt x="843" y="1259" on="1"/>
        <pt x="842" y="1251" on="0"/>
        <pt x="841" y="1242" on="1"/>
        <pt x="906" y="1242" on="1"/>
        <pt x="983" y="1242" on="0"/>
        <pt x="1066" y="1241" on="1"/>
        <pt x="1067" y="1246" on="0"/>
        <pt x="1067" y="1248" on="1"/>
        <pt x="1067" y="1284" on="0"/>
        <pt x="1069" y="1329" on="0"/>
        <pt x="1086" y="1353" on="0"/>
        <pt x="1125" y="1362" on="0"/>
        <pt x="1163" y="1362" on="1"/>
        <pt x="1176" y="1362" on="0"/>
        <pt x="1259" y="1363" on="0"/>
        <pt x="1371" y="1366" on="0"/>
        <pt x="1497" y="1368" on="0"/>
        <pt x="1609" y="1371" on="0"/>
        <pt x="1692" y="1372" on="0"/>
        <pt x="1704" y="1372" on="1"/>
        <pt x="1727" y="1372" on="0"/>
        <pt x="1761" y="1368" on="0"/>
        <pt x="1783" y="1351" on="0"/>
        <pt x="1793" y="1320" on="0"/>
        <pt x="1793" y="1293" on="1"/>
        <pt x="1793" y="1263" on="0"/>
        <pt x="1792" y="1236" on="1"/>
        <pt x="1808" y="1235" on="0"/>
        <pt x="1823" y="1234" on="1"/>
        <pt x="1860" y="1231" on="0"/>
        <pt x="1909" y="1221" on="0"/>
        <pt x="1909" y="1212" on="1"/>
        <pt x="1909" y="1197" on="0"/>
        <pt x="1912" y="1178" on="0"/>
        <pt x="1913" y="1165" on="0"/>
        <pt x="1916" y="1155" on="0"/>
        <pt x="1917" y="1141" on="0"/>
        <pt x="1920" y="1123" on="0"/>
        <pt x="1920" y="1107" on="1"/>
        <pt x="1920" y="1098" on="0"/>
        <pt x="1916" y="1078" on="0"/>
        <pt x="1894" y="1061" on="0"/>
        <pt x="1849" y="1050" on="0"/>
        <pt x="1810" y="1050" on="1"/>
        <pt x="1784" y="1050" on="1"/>
        <pt x="1783" y="1014" on="0"/>
        <pt x="1782" y="976" on="1"/>
        <pt x="1780" y="925" on="0"/>
        <pt x="1780" y="864" on="1"/>
        <pt x="1780" y="853" on="0"/>
        <pt x="1785" y="833" on="0"/>
        <pt x="1785" y="823" on="1"/>
        <pt x="1737" y="47" on="1"/>
        <pt x="1737" y="41" on="0"/>
        <pt x="1728" y="25" on="0"/>
        <pt x="1715" y="10" on="0"/>
        <pt x="1698" y="0" on="0"/>
        <pt x="1690" y="0" on="1"/>
        <pt x="1127" y="0" on="1"/>
        <pt x="1119" y="0" on="0"/>
        <pt x="1108" y="18" on="0"/>
        <pt x="1100" y="49" on="0"/>
        <pt x="1095" y="88" on="0"/>
        <pt x="1094" y="109" on="1"/>
        <pt x="1072" y="485" on="1"/>
        <pt x="1071" y="485" on="0"/>
        <pt x="1040" y="486" on="0"/>
        <pt x="993" y="488" on="0"/>
        <pt x="938" y="491" on="0"/>
        <pt x="890" y="493" on="0"/>
        <pt x="855" y="494" on="0"/>
        <pt x="853" y="494" on="1"/>
        <pt x="842" y="494" on="0"/>
        <pt x="838" y="468" on="0"/>
        <pt x="838" y="459" on="1"/>
        <pt x="838" y="344" on="0"/>
        <pt x="837" y="187" on="0"/>
        <pt x="833" y="84" on="0"/>
        <pt x="824" y="28" on="0"/>
        <pt x="807" y="3" on="0"/>
        <pt x="782" y="-2" on="0"/>
        <pt x="763" y="-2" on="1"/>
        <pt x="649" y="-10" on="0"/>
        <pt x="541" y="-12" on="1"/>
        <pt x="495" y="-13" on="0"/>
        <pt x="396" y="-12" on="0"/>
        <pt x="301" y="-6" on="0"/>
        <pt x="213" y="5" on="0"/>
        <pt x="177" y="14" on="1"/>
        <pt x="172" y="15" on="0"/>
        <pt x="163" y="31" on="0"/>
        <pt x="157" y="50" on="0"/>
        <pt x="154" y="67" on="0"/>
        <pt x="154" y="70" on="1"/>
        <pt x="115" y="815" on="1"/>
        <pt x="115" y="854" on="1"/>
        <pt x="115" y="871" on="0"/>
        <pt x="117" y="953" on="0"/>
        <pt x="118" y="1005" on="1"/>
        <pt x="119" y="1030" on="0"/>
        <pt x="120" y="1055" on="1"/>
        <pt x="117" y="1055" on="1"/>
        <pt x="67" y="1057" on="0"/>
      </contour>
      <contour>
        <pt x="1060" y="954" on="1"/>
        <pt x="1060" y="1007" on="0"/>
        <pt x="1061" y="1053" on="1"/>
        <pt x="1002" y="1054" on="0"/>
        <pt x="951" y="1054" on="1"/>
        <pt x="897" y="1054" on="0"/>
        <pt x="859" y="1054" on="1"/>
        <pt x="840" y="1054" on="1"/>
        <pt x="840" y="1052" on="1"/>
        <pt x="838" y="1014" on="0"/>
        <pt x="838" y="969" on="1"/>
        <pt x="861" y="969" on="0"/>
        <pt x="918" y="964" on="0"/>
        <pt x="977" y="959" on="0"/>
        <pt x="1035" y="954" on="0"/>
      </contour>
    </TTGlyph>
    <TTGlyph name="Hcircumflex" xMin="115" yMin="-13" xMax="1793" yMax="2269">
      <component glyphName="H" x="0" y="0" flags="0x1204"/>
      <component glyphName="circumflex" x="311" y="223" flags="0x1004"/>
    </TTGlyph>
    <TTGlyph name="I" xMin="120" yMin="-2" xMax="869" yMax="1371">
      <contour>
        <pt x="857" y="408" on="1"/>
        <pt x="855" y="340" on="0"/>
        <pt x="853" y="213" on="0"/>
        <pt x="850" y="106" on="0"/>
        <pt x="841" y="28" on="0"/>
        <pt x="832" y="10" on="1"/>
        <pt x="809" y="10" on="0"/>
        <pt x="751" y="7" on="0"/>
        <pt x="699" y="4" on="0"/>
        <pt x="663" y="2" on="0"/>
        <pt x="662" y="2" on="1"/>
        <pt x="656" y="2" on="1"/>
        <pt x="644" y="2" on="0"/>
        <pt x="631" y="10" on="0"/>
        <pt x="623" y="10" on="1"/>
        <pt x="619" y="9" on="0"/>
        <pt x="615" y="7" on="1"/>
        <pt x="607" y="3" on="0"/>
        <pt x="607" y="2" on="1"/>
        <pt x="417" y="2" on="1"/>
        <pt x="414" y="1" on="0"/>
        <pt x="349" y="0" on="0"/>
        <pt x="267" y="-1" on="0"/>
        <pt x="193" y="-2" on="0"/>
        <pt x="181" y="-2" on="1"/>
        <pt x="164" y="-2" on="0"/>
        <pt x="142" y="21" on="0"/>
        <pt x="129" y="57" on="0"/>
        <pt x="123" y="100" on="0"/>
        <pt x="120" y="142" on="0"/>
        <pt x="120" y="177" on="0"/>
        <pt x="120" y="186" on="1"/>
        <pt x="122" y="310" on="0"/>
        <pt x="123" y="570" on="0"/>
        <pt x="128" y="694" on="1"/>
        <pt x="128" y="1341" on="1"/>
        <pt x="128" y="1358" on="0"/>
        <pt x="150" y="1362" on="0"/>
        <pt x="163" y="1362" on="1"/>
        <pt x="266" y="1362" on="0"/>
        <pt x="468" y="1364" on="0"/>
        <pt x="572" y="1364" on="1"/>
        <pt x="581" y="1364" on="0"/>
        <pt x="601" y="1369" on="0"/>
        <pt x="637" y="1372" on="0"/>
        <pt x="695" y="1370" on="0"/>
        <pt x="740" y="1364" on="1"/>
        <pt x="749" y="1356" on="0"/>
        <pt x="764" y="1361" on="0"/>
        <pt x="773" y="1364" on="1"/>
        <pt x="801" y="1364" on="0"/>
        <pt x="838" y="1357" on="0"/>
        <pt x="860" y="1326" on="0"/>
        <pt x="869" y="1265" on="0"/>
        <pt x="869" y="1211" on="1"/>
        <pt x="869" y="811" on="1"/>
        <pt x="869" y="810" on="0"/>
        <pt x="867" y="751" on="0"/>
        <pt x="865" y="662" on="0"/>
        <pt x="861" y="560" on="0"/>
        <pt x="859" y="471" on="0"/>
        <pt x="857" y="410" on="0"/>
      </contour>
    </TTGlyph>
    <TTGlyph name="IJ" xMin="120" yMin="-54" xMax="2227" yMax="1371">
      <component glyphName="I" x="0" y="0" flags="0x1004"/>
      <component glyphName="J" x="984" y="0" flags="0x1004"/>
    </TTGlyph>
    <TTGlyph name="Iacute" xMin="120" yMin="-2" xMax="872" yMax="2371">
      <component glyphName="I" x="0" y="0" flags="0x1004"/>
      <component glyphName="acute" x="43" y="223" flags="0x1004"/>
    </TTGlyph>
    <TTGlyph name="Ibreve" xMin="-12" yMin="-2" xMax="1001" yMax="2090">
      <component glyphName="I" x="0" y="0" flags="0x1204"/>
      <component glyphName="breve" x="-103" y="223" flags="0x1004"/>
    </TTGlyph>
    <TTGlyph name="Icircumflex" xMin="-62" yMin="-2" xMax="1070" yMax="2269">
      <component glyphName="I" x="0" y="0" flags="0x1004"/>
      <component glyphName="circumflex" x="-137" y="223" flags="0x1004"/>
    </TTGlyph>
    <TTGlyph name="Idieresis" xMin="-37" yMin="-2" xMax="1072" yMax="1962">
      <component glyphName="I" x="0" y="0" flags="0x1004"/>
      <component glyphName="dieresis" x="-156" y="223" flags="0x1004"/>
    </TTGlyph>
    <TTGlyph name="Idotaccent" xMin="120" yMin="-2" xMax="869" yMax="2003">
      <component glyphName="I" x="0" y="0" flags="0x1204"/>
      <component glyphName="dotaccent" x="110" y="223" flags="0x1004"/>
    </TTGlyph>
    <TTGlyph name="Igrave" xMin="-5" yMin="-2" xMax="869" yMax="2371">
      <component glyphName="I" x="0" y="0" flags="0x1004"/>
      <component glyphName="grave" x="-42" y="223" flags="0x1004"/>
    </TTGlyph>
    <TTGlyph name="Imacron" xMin="64" yMin="-2" xMax="925" yMax="2049">
      <component glyphName="I" x="0" y="0" flags="0x1204"/>
      <component glyphName="macron" x="-53" y="223" flags="0x1004"/>
    </TTGlyph>
    <TTGlyph name="Iogonek" xMin="120" yMin="-565" xMax="869" yMax="1371">
      <component glyphName="I" x="0" y="0" flags="0x1204"/>
      <component glyphName="ogonek" x="54" y="0" flags="0x1004"/>
    </TTGlyph>
    <TTGlyph name="Itilde" xMin="-77" yMin="-2" xMax="1075" yMax="2089">
      <component glyphName="I" x="0" y="0" flags="0x1204"/>
      <component glyphName="tilde" x="-181" y="223" flags="0x1004"/>
    </TTGlyph>
    <TTGlyph name="J" xMin="46" yMin="-54" xMax="1243" yMax="1364">
      <contour>
        <pt x="1102" y="133" on="1"/>
        <pt x="1039" y="75" on="0"/>
        <pt x="897" y="5" on="0"/>
        <pt x="835" y="-15" on="1"/>
        <pt x="763" y="-38" on="0"/>
        <pt x="692" y="-49" on="1"/>
        <pt x="552" y="-68" on="0"/>
        <pt x="268" y="-40" on="0"/>
        <pt x="137" y="14" on="1"/>
        <pt x="47" y="55" on="1"/>
        <pt x="45" y="62" on="0"/>
        <pt x="48" y="92" on="0"/>
        <pt x="52" y="131" on="0"/>
        <pt x="57" y="175" on="0"/>
        <pt x="59" y="197" on="1"/>
        <pt x="59" y="208" on="0"/>
        <pt x="63" y="249" on="0"/>
        <pt x="67" y="287" on="0"/>
        <pt x="72" y="313" on="0"/>
        <pt x="74" y="309" on="1"/>
        <pt x="125" y="291" on="0"/>
        <pt x="204" y="267" on="0"/>
        <pt x="278" y="253" on="0"/>
        <pt x="355" y="247" on="0"/>
        <pt x="403" y="248" on="1"/>
        <pt x="427" y="248" on="0"/>
        <pt x="458" y="283" on="0"/>
        <pt x="478" y="330" on="0"/>
        <pt x="489" y="379" on="0"/>
        <pt x="493" y="393" on="1"/>
        <pt x="495" y="428" on="0"/>
        <pt x="500" y="537" on="0"/>
        <pt x="500" y="621" on="1"/>
        <pt x="501" y="682" on="0"/>
        <pt x="502" y="791" on="0"/>
        <pt x="503" y="832" on="1"/>
        <pt x="504" y="880" on="0"/>
        <pt x="504" y="920" on="1"/>
        <pt x="502" y="1341" on="1"/>
        <pt x="502" y="1358" on="0"/>
        <pt x="524" y="1362" on="0"/>
        <pt x="536" y="1362" on="1"/>
        <pt x="639" y="1362" on="0"/>
        <pt x="842" y="1364" on="0"/>
        <pt x="946" y="1364" on="1"/>
        <pt x="1147" y="1364" on="1"/>
        <pt x="1175" y="1364" on="0"/>
        <pt x="1212" y="1357" on="0"/>
        <pt x="1234" y="1326" on="0"/>
        <pt x="1243" y="1265" on="0"/>
        <pt x="1243" y="1211" on="1"/>
        <pt x="1243" y="811" on="1"/>
        <pt x="1243" y="810" on="0"/>
        <pt x="1242" y="779" on="0"/>
        <pt x="1240" y="734" on="0"/>
        <pt x="1238" y="682" on="0"/>
        <pt x="1236" y="636" on="0"/>
        <pt x="1235" y="604" on="0"/>
        <pt x="1235" y="602" on="1"/>
        <pt x="1235" y="543" on="0"/>
        <pt x="1229" y="414" on="0"/>
        <pt x="1203" y="290" on="0"/>
        <pt x="1150" y="177" on="0"/>
      </contour>
    </TTGlyph>
    <TTGlyph name="Jcircumflex" xMin="46" yMin="-54" xMax="1243" yMax="2269">
      <component glyphName="J" x="0" y="0" flags="0x1204"/>
      <component glyphName="circumflex" x="31" y="223" flags="0x1004"/>
    </TTGlyph>
    <TTGlyph name="K" xMin="114" yMin="-44" xMax="1677" yMax="1423">
      <contour>
        <pt x="823" y="1376" on="1"/>
        <pt x="841" y="1376" on="0"/>
        <pt x="858" y="1358" on="0"/>
        <pt x="863" y="1330" on="0"/>
        <pt x="862" y="1298" on="0"/>
        <pt x="862" y="1284" on="1"/>
        <pt x="863" y="1206" on="0"/>
        <pt x="852" y="1059" on="0"/>
        <pt x="852" y="1004" on="1"/>
        <pt x="870" y="1004" on="0"/>
        <pt x="889" y="1009" on="0"/>
        <pt x="903" y="1020" on="0"/>
        <pt x="918" y="1036" on="0"/>
        <pt x="930" y="1047" on="1"/>
        <pt x="937" y="1051" on="0"/>
        <pt x="998" y="1110" on="0"/>
        <pt x="1085" y="1192" on="0"/>
        <pt x="1186" y="1287" on="0"/>
        <pt x="1278" y="1367" on="0"/>
        <pt x="1348" y="1421" on="0"/>
        <pt x="1362" y="1423" on="1"/>
        <pt x="1366" y="1423" on="0"/>
        <pt x="1382" y="1408" on="0"/>
        <pt x="1398" y="1389" on="0"/>
        <pt x="1413" y="1371" on="0"/>
        <pt x="1417" y="1368" on="1"/>
        <pt x="1419" y="1364" on="0"/>
        <pt x="1442" y="1343" on="0"/>
        <pt x="1469" y="1317" on="0"/>
        <pt x="1493" y="1294" on="0"/>
        <pt x="1497" y="1288" on="1"/>
        <pt x="1510" y="1267" on="0"/>
        <pt x="1544" y="1223" on="0"/>
        <pt x="1579" y="1178" on="0"/>
        <pt x="1611" y="1132" on="0"/>
        <pt x="1622" y="1108" on="1"/>
        <pt x="1622" y="1104" on="1"/>
        <pt x="1622" y="1084" on="0"/>
        <pt x="1588" y="1036" on="0"/>
        <pt x="1543" y="990" on="0"/>
        <pt x="1498" y="948" on="0"/>
        <pt x="1487" y="934" on="1"/>
        <pt x="1483" y="932" on="0"/>
        <pt x="1453" y="908" on="0"/>
        <pt x="1412" y="873" on="0"/>
        <pt x="1366" y="833" on="0"/>
        <pt x="1326" y="798" on="0"/>
        <pt x="1296" y="774" on="0"/>
        <pt x="1292" y="772" on="1"/>
        <pt x="1283" y="764" on="0"/>
        <pt x="1266" y="757" on="0"/>
        <pt x="1254" y="750" on="0"/>
        <pt x="1247" y="739" on="0"/>
        <pt x="1247" y="727" on="1"/>
        <pt x="1247" y="708" on="0"/>
        <pt x="1265" y="678" on="0"/>
        <pt x="1292" y="652" on="0"/>
        <pt x="1323" y="628" on="0"/>
        <pt x="1335" y="616" on="1"/>
        <pt x="1350" y="601" on="0"/>
        <pt x="1412" y="546" on="0"/>
        <pt x="1488" y="478" on="0"/>
        <pt x="1568" y="404" on="0"/>
        <pt x="1635" y="335" on="0"/>
        <pt x="1677" y="278" on="0"/>
        <pt x="1677" y="262" on="1"/>
        <pt x="1677" y="251" on="0"/>
        <pt x="1673" y="234" on="0"/>
        <pt x="1661" y="223" on="1"/>
        <pt x="1627" y="194" on="0"/>
        <pt x="1545" y="150" on="0"/>
        <pt x="1511" y="121" on="1"/>
        <pt x="1485" y="99" on="0"/>
        <pt x="1424" y="44" on="0"/>
        <pt x="1392" y="27" on="1"/>
        <pt x="1376" y="19" on="0"/>
        <pt x="1358" y="9" on="0"/>
        <pt x="1343" y="0" on="0"/>
        <pt x="1323" y="-13" on="0"/>
        <pt x="1305" y="-24" on="1"/>
        <pt x="1272" y="-44" on="0"/>
        <pt x="1221" y="-43" on="0"/>
        <pt x="1185" y="-26" on="0"/>
        <pt x="1164" y="-3" on="0"/>
        <pt x="1162" y="0" on="1"/>
        <pt x="946" y="248" on="1"/>
        <pt x="942" y="255" on="0"/>
        <pt x="916" y="286" on="0"/>
        <pt x="885" y="319" on="0"/>
        <pt x="857" y="344" on="0"/>
        <pt x="852" y="344" on="1"/>
        <pt x="844" y="344" on="0"/>
        <pt x="835" y="334" on="0"/>
        <pt x="835" y="328" on="1"/>
        <pt x="835" y="318" on="0"/>
        <pt x="834" y="278" on="0"/>
        <pt x="833" y="229" on="0"/>
        <pt x="831" y="174" on="0"/>
        <pt x="830" y="124" on="0"/>
        <pt x="829" y="85" on="0"/>
        <pt x="829" y="76" on="1"/>
        <pt x="829" y="59" on="0"/>
        <pt x="831" y="34" on="0"/>
        <pt x="824" y="17" on="0"/>
        <pt x="804" y="10" on="0"/>
        <pt x="782" y="12" on="1"/>
        <pt x="676" y="6" on="0"/>
        <pt x="475" y="10" on="0"/>
        <pt x="368" y="10" on="1"/>
        <pt x="355" y="10" on="0"/>
        <pt x="313" y="11" on="0"/>
        <pt x="272" y="11" on="0"/>
        <pt x="242" y="12" on="0"/>
        <pt x="241" y="12" on="1"/>
        <pt x="149" y="20" on="1"/>
        <pt x="143" y="37" on="1"/>
        <pt x="142" y="37" on="0"/>
        <pt x="141" y="82" on="0"/>
        <pt x="138" y="154" on="0"/>
        <pt x="136" y="244" on="0"/>
        <pt x="133" y="336" on="0"/>
        <pt x="131" y="421" on="0"/>
        <pt x="131" y="451" on="1"/>
        <pt x="126" y="526" on="0"/>
        <pt x="114" y="682" on="0"/>
        <pt x="114" y="758" on="1"/>
        <pt x="114" y="762" on="0"/>
        <pt x="116" y="796" on="0"/>
        <pt x="119" y="835" on="0"/>
        <pt x="121" y="869" on="0"/>
        <pt x="121" y="874" on="1"/>
        <pt x="121" y="878" on="0"/>
        <pt x="119" y="902" on="0"/>
        <pt x="116" y="928" on="0"/>
        <pt x="114" y="951" on="0"/>
        <pt x="114" y="954" on="1"/>
        <pt x="114" y="959" on="0"/>
        <pt x="116" y="996" on="0"/>
        <pt x="119" y="1038" on="0"/>
        <pt x="121" y="1074" on="0"/>
        <pt x="121" y="1079" on="1"/>
        <pt x="121" y="1089" on="0"/>
        <pt x="120" y="1129" on="0"/>
        <pt x="119" y="1179" on="0"/>
        <pt x="117" y="1232" on="0"/>
        <pt x="115" y="1278" on="0"/>
        <pt x="114" y="1311" on="0"/>
        <pt x="114" y="1315" on="1"/>
        <pt x="111" y="1342" on="0"/>
        <pt x="140" y="1368" on="0"/>
        <pt x="185" y="1378" on="0"/>
        <pt x="237" y="1378" on="0"/>
        <pt x="256" y="1378" on="1"/>
        <pt x="386" y="1378" on="0"/>
        <pt x="580" y="1377" on="0"/>
        <pt x="717" y="1377" on="0"/>
        <pt x="802" y="1376" on="0"/>
      </contour>
    </TTGlyph>
    <TTGlyph name="L" xMin="121" yMin="0" xMax="1225" yMax="1376">
      <contour>
        <pt x="122" y="508" on="1"/>
        <pt x="122" y="602" on="0"/>
        <pt x="121" y="808" on="0"/>
        <pt x="122" y="1001" on="0"/>
        <pt x="126" y="1166" on="0"/>
        <pt x="132" y="1221" on="1"/>
        <pt x="132" y="1241" on="0"/>
        <pt x="132" y="1294" on="0"/>
        <pt x="141" y="1342" on="0"/>
        <pt x="164" y="1376" on="0"/>
        <pt x="187" y="1376" on="1"/>
        <pt x="275" y="1376" on="0"/>
        <pt x="400" y="1374" on="0"/>
        <pt x="503" y="1372" on="0"/>
        <pt x="602" y="1370" on="0"/>
        <pt x="664" y="1370" on="1"/>
        <pt x="698" y="1370" on="0"/>
        <pt x="753" y="1369" on="0"/>
        <pt x="790" y="1351" on="0"/>
        <pt x="810" y="1308" on="0"/>
        <pt x="810" y="1266" on="1"/>
        <pt x="810" y="1263" on="0"/>
        <pt x="807" y="1235" on="0"/>
        <pt x="802" y="1203" on="0"/>
        <pt x="799" y="1175" on="0"/>
        <pt x="799" y="1171" on="1"/>
        <pt x="799" y="1165" on="0"/>
        <pt x="802" y="1133" on="0"/>
        <pt x="807" y="1098" on="0"/>
        <pt x="810" y="1070" on="0"/>
        <pt x="810" y="1069" on="1"/>
        <pt x="811" y="991" on="0"/>
        <pt x="812" y="849" on="0"/>
        <pt x="812" y="716" on="0"/>
        <pt x="812" y="588" on="0"/>
        <pt x="812" y="524" on="1"/>
        <pt x="812" y="509" on="0"/>
        <pt x="812" y="491" on="0"/>
        <pt x="820" y="481" on="0"/>
        <pt x="837" y="477" on="0"/>
        <pt x="855" y="477" on="1"/>
        <pt x="926" y="477" on="0"/>
        <pt x="1086" y="479" on="0"/>
        <pt x="1174" y="479" on="1"/>
        <pt x="1196" y="479" on="0"/>
        <pt x="1225" y="452" on="0"/>
        <pt x="1225" y="438" on="1"/>
        <pt x="1225" y="45" on="1"/>
        <pt x="1225" y="40" on="0"/>
        <pt x="1221" y="24" on="0"/>
        <pt x="1194" y="10" on="0"/>
        <pt x="1136" y="0" on="0"/>
        <pt x="1082" y="0" on="1"/>
        <pt x="783" y="0" on="1"/>
        <pt x="697" y="0" on="0"/>
        <pt x="549" y="1" on="0"/>
        <pt x="407" y="3" on="0"/>
        <pt x="260" y="4" on="0"/>
        <pt x="175" y="4" on="1"/>
        <pt x="166" y="4" on="0"/>
        <pt x="147" y="14" on="0"/>
        <pt x="132" y="29" on="0"/>
        <pt x="122" y="48" on="0"/>
        <pt x="122" y="57" on="1"/>
      </contour>
    </TTGlyph>
    <TTGlyph name="Lacute" xMin="121" yMin="0" xMax="1234" yMax="2388">
      <component glyphName="acute" x="405" y="240" flags="0x1004"/>
      <component glyphName="L" x="0" y="0" flags="0x1004"/>
    </TTGlyph>
    <TTGlyph name="Lcaron" xMin="121" yMin="0" xMax="1554" yMax="1636">
      <component glyphName="L" x="0" y="0" flags="0x1004"/>
      <component glyphName="commaaccent" x="803" y="1829" flags="0x1004"/>
    </TTGlyph>
    <TTGlyph name="Ldot" xMin="121" yMin="0" xMax="1445" yMax="1376">
      <component glyphName="L" x="0" y="0" flags="0x1204"/>
      <component glyphName="dotaccent" x="796" y="-436" flags="0x1004"/>
    </TTGlyph>
    <TTGlyph name="Lslash" xMin="92" yMin="0" xMax="1309" yMax="1376">
      <contour>
        <pt x="206" y="508" on="1"/>
        <pt x="206" y="542" on="1"/>
        <pt x="183" y="536" on="0"/>
        <pt x="143" y="531" on="0"/>
        <pt x="113" y="536" on="0"/>
        <pt x="95" y="555" on="0"/>
        <pt x="95" y="575" on="1"/>
        <pt x="95" y="621" on="0"/>
        <pt x="94" y="692" on="0"/>
        <pt x="93" y="759" on="0"/>
        <pt x="92" y="830" on="0"/>
        <pt x="92" y="875" on="1"/>
        <pt x="92" y="884" on="0"/>
        <pt x="102" y="905" on="0"/>
        <pt x="118" y="925" on="0"/>
        <pt x="137" y="940" on="0"/>
        <pt x="146" y="942" on="1"/>
        <pt x="161" y="946" on="0"/>
        <pt x="191" y="954" on="0"/>
        <pt x="205" y="959" on="1"/>
        <pt x="206" y="1039" on="0"/>
        <pt x="211" y="1173" on="0"/>
        <pt x="216" y="1221" on="1"/>
        <pt x="216" y="1241" on="0"/>
        <pt x="216" y="1294" on="0"/>
        <pt x="225" y="1342" on="0"/>
        <pt x="248" y="1376" on="0"/>
        <pt x="271" y="1376" on="1"/>
        <pt x="359" y="1376" on="0"/>
        <pt x="484" y="1374" on="0"/>
        <pt x="587" y="1372" on="0"/>
        <pt x="686" y="1370" on="0"/>
        <pt x="748" y="1370" on="1"/>
        <pt x="782" y="1370" on="0"/>
        <pt x="837" y="1369" on="0"/>
        <pt x="874" y="1351" on="0"/>
        <pt x="894" y="1308" on="0"/>
        <pt x="894" y="1266" on="1"/>
        <pt x="894" y="1263" on="0"/>
        <pt x="891" y="1235" on="0"/>
        <pt x="886" y="1203" on="0"/>
        <pt x="883" y="1175" on="0"/>
        <pt x="883" y="1171" on="1"/>
        <pt x="883" y="1168" on="0"/>
        <pt x="883" y="1156" on="0"/>
        <pt x="884" y="1148" on="1"/>
        <pt x="923" y="1156" on="0"/>
        <pt x="992" y="1168" on="0"/>
        <pt x="1032" y="1178" on="1"/>
        <pt x="1052" y="1183" on="0"/>
        <pt x="1096" y="1192" on="0"/>
        <pt x="1133" y="1190" on="0"/>
        <pt x="1157" y="1174" on="0"/>
        <pt x="1157" y="1155" on="1"/>
        <pt x="1157" y="1110" on="0"/>
        <pt x="1155" y="1048" on="0"/>
        <pt x="1153" y="995" on="0"/>
        <pt x="1151" y="945" on="0"/>
        <pt x="1151" y="913" on="1"/>
        <pt x="1151" y="886" on="0"/>
        <pt x="1146" y="843" on="0"/>
        <pt x="1126" y="810" on="0"/>
        <pt x="1083" y="784" on="0"/>
        <pt x="1046" y="775" on="1"/>
        <pt x="1038" y="772" on="0"/>
        <pt x="1032" y="768" on="1"/>
        <pt x="1026" y="765" on="0"/>
        <pt x="1015" y="760" on="0"/>
        <pt x="1013" y="759" on="1"/>
        <pt x="911" y="733" on="1"/>
        <pt x="896" y="729" on="1"/>
        <pt x="896" y="524" on="1"/>
        <pt x="896" y="509" on="0"/>
        <pt x="896" y="491" on="0"/>
        <pt x="904" y="481" on="0"/>
        <pt x="921" y="477" on="0"/>
        <pt x="939" y="477" on="1"/>
        <pt x="1010" y="477" on="0"/>
        <pt x="1170" y="479" on="0"/>
        <pt x="1258" y="479" on="1"/>
        <pt x="1280" y="479" on="0"/>
        <pt x="1309" y="452" on="0"/>
        <pt x="1309" y="438" on="1"/>
        <pt x="1309" y="45" on="1"/>
        <pt x="1309" y="40" on="0"/>
        <pt x="1305" y="24" on="0"/>
        <pt x="1278" y="10" on="0"/>
        <pt x="1220" y="0" on="0"/>
        <pt x="1166" y="0" on="1"/>
        <pt x="867" y="0" on="1"/>
        <pt x="781" y="0" on="0"/>
        <pt x="633" y="1" on="0"/>
        <pt x="491" y="3" on="0"/>
        <pt x="344" y="4" on="0"/>
        <pt x="259" y="4" on="1"/>
        <pt x="250" y="4" on="0"/>
        <pt x="231" y="14" on="0"/>
        <pt x="216" y="29" on="0"/>
        <pt x="206" y="48" on="0"/>
        <pt x="206" y="57" on="1"/>
      </contour>
    </TTGlyph>
    <TTGlyph name="M" xMin="118" yMin="-4" xMax="1960" yMax="1378">
      <contour>
        <pt x="1063" y="889" on="1"/>
        <pt x="1064" y="893" on="0"/>
        <pt x="1090" y="948" on="0"/>
        <pt x="1126" y="1028" on="0"/>
        <pt x="1169" y="1122" on="0"/>
        <pt x="1208" y="1206" on="0"/>
        <pt x="1237" y="1270" on="0"/>
        <pt x="1241" y="1280" on="1"/>
        <pt x="1248" y="1295" on="0"/>
        <pt x="1269" y="1329" on="0"/>
        <pt x="1289" y="1358" on="0"/>
        <pt x="1307" y="1376" on="0"/>
        <pt x="1312" y="1376" on="1"/>
        <pt x="1348" y="1376" on="0"/>
        <pt x="1595" y="1378" on="0"/>
        <pt x="1818" y="1378" on="1"/>
        <pt x="1837" y="1378" on="0"/>
        <pt x="1859" y="1377" on="0"/>
        <pt x="1881" y="1377" on="0"/>
        <pt x="1912" y="1376" on="0"/>
        <pt x="1941" y="1376" on="1"/>
        <pt x="1946" y="1376" on="0"/>
        <pt x="1952" y="1314" on="0"/>
        <pt x="1956" y="1212" on="0"/>
        <pt x="1959" y="1081" on="0"/>
        <pt x="1960" y="943" on="0"/>
        <pt x="1960" y="811" on="0"/>
        <pt x="1960" y="758" on="1"/>
        <pt x="1960" y="682" on="0"/>
        <pt x="1949" y="526" on="0"/>
        <pt x="1943" y="451" on="1"/>
        <pt x="1943" y="421" on="0"/>
        <pt x="1945" y="336" on="0"/>
        <pt x="1946" y="244" on="0"/>
        <pt x="1948" y="154" on="0"/>
        <pt x="1949" y="82" on="0"/>
        <pt x="1950" y="37" on="0"/>
        <pt x="1951" y="37" on="1"/>
        <pt x="1945" y="20" on="1"/>
        <pt x="1853" y="-2" on="1"/>
        <pt x="1852" y="-2" on="0"/>
        <pt x="1822" y="-3" on="0"/>
        <pt x="1782" y="-3" on="0"/>
        <pt x="1739" y="-4" on="0"/>
        <pt x="1726" y="-4" on="1"/>
        <pt x="1685" y="-4" on="0"/>
        <pt x="1608" y="-1" on="0"/>
        <pt x="1533" y="3" on="0"/>
        <pt x="1456" y="9" on="0"/>
        <pt x="1415" y="12" on="1"/>
        <pt x="1413" y="12" on="0"/>
        <pt x="1399" y="10" on="0"/>
        <pt x="1392" y="10" on="1"/>
        <pt x="1385" y="10" on="0"/>
        <pt x="1375" y="53" on="0"/>
        <pt x="1368" y="125" on="0"/>
        <pt x="1365" y="221" on="0"/>
        <pt x="1363" y="329" on="0"/>
        <pt x="1362" y="440" on="0"/>
        <pt x="1362" y="492" on="1"/>
        <pt x="1362" y="498" on="0"/>
        <pt x="1353" y="508" on="0"/>
        <pt x="1345" y="508" on="1"/>
        <pt x="1340" y="508" on="0"/>
        <pt x="1322" y="467" on="0"/>
        <pt x="1300" y="411" on="0"/>
        <pt x="1279" y="351" on="0"/>
        <pt x="1272" y="332" on="1"/>
        <pt x="1269" y="328" on="0"/>
        <pt x="1254" y="292" on="0"/>
        <pt x="1229" y="244" on="0"/>
        <pt x="1198" y="190" on="0"/>
        <pt x="1160" y="145" on="0"/>
        <pt x="1118" y="115" on="0"/>
        <pt x="1095" y="115" on="1"/>
        <pt x="1084" y="115" on="0"/>
        <pt x="1045" y="115" on="0"/>
        <pt x="1001" y="116" on="0"/>
        <pt x="956" y="117" on="0"/>
        <pt x="938" y="119" on="1"/>
        <pt x="880" y="210" on="0"/>
        <pt x="807" y="354" on="0"/>
        <pt x="763" y="455" on="0"/>
        <pt x="742" y="508" on="0"/>
        <pt x="737" y="508" on="1"/>
        <pt x="729" y="508" on="0"/>
        <pt x="721" y="498" on="0"/>
        <pt x="721" y="492" on="1"/>
        <pt x="721" y="448" on="0"/>
        <pt x="721" y="342" on="0"/>
        <pt x="720" y="235" on="0"/>
        <pt x="717" y="134" on="0"/>
        <pt x="710" y="57" on="0"/>
        <pt x="699" y="10" on="0"/>
        <pt x="690" y="10" on="1"/>
        <pt x="684" y="10" on="0"/>
        <pt x="669" y="12" on="0"/>
        <pt x="667" y="12" on="1"/>
        <pt x="586" y="6" on="0"/>
        <pt x="438" y="-4" on="0"/>
        <pt x="356" y="-4" on="1"/>
        <pt x="343" y="-4" on="0"/>
        <pt x="300" y="-3" on="0"/>
        <pt x="260" y="-3" on="0"/>
        <pt x="230" y="-2" on="0"/>
        <pt x="229" y="-2" on="1"/>
        <pt x="137" y="20" on="1"/>
        <pt x="131" y="37" on="1"/>
        <pt x="130" y="37" on="0"/>
        <pt x="128" y="82" on="0"/>
        <pt x="125" y="154" on="0"/>
        <pt x="123" y="244" on="0"/>
        <pt x="121" y="336" on="0"/>
        <pt x="119" y="421" on="0"/>
        <pt x="118" y="451" on="1"/>
        <pt x="120" y="557" on="0"/>
        <pt x="129" y="761" on="0"/>
        <pt x="129" y="874" on="1"/>
        <pt x="129" y="878" on="0"/>
        <pt x="127" y="902" on="0"/>
        <pt x="125" y="928" on="0"/>
        <pt x="123" y="951" on="0"/>
        <pt x="123" y="954" on="1"/>
        <pt x="123" y="985" on="0"/>
        <pt x="126" y="1034" on="0"/>
        <pt x="130" y="1086" on="0"/>
        <pt x="133" y="1146" on="0"/>
        <pt x="133" y="1188" on="1"/>
        <pt x="133" y="1194" on="0"/>
        <pt x="132" y="1225" on="0"/>
        <pt x="130" y="1261" on="0"/>
        <pt x="129" y="1292" on="0"/>
        <pt x="129" y="1298" on="1"/>
        <pt x="127" y="1300" on="0"/>
        <pt x="123" y="1310" on="0"/>
        <pt x="123" y="1313" on="1"/>
        <pt x="123" y="1335" on="0"/>
        <pt x="157" y="1361" on="0"/>
        <pt x="204" y="1374" on="0"/>
        <pt x="251" y="1378" on="0"/>
        <pt x="264" y="1378" on="1"/>
        <pt x="487" y="1378" on="0"/>
        <pt x="735" y="1376" on="0"/>
        <pt x="770" y="1376" on="1"/>
        <pt x="775" y="1376" on="0"/>
        <pt x="793" y="1358" on="0"/>
        <pt x="813" y="1329" on="0"/>
        <pt x="833" y="1295" on="0"/>
        <pt x="841" y="1280" on="1"/>
        <pt x="845" y="1270" on="0"/>
        <pt x="870" y="1205" on="0"/>
        <pt x="903" y="1120" on="0"/>
        <pt x="941" y="1026" on="0"/>
        <pt x="973" y="946" on="0"/>
        <pt x="996" y="891" on="0"/>
        <pt x="999" y="889" on="1"/>
        <pt x="1013" y="856" on="0"/>
        <pt x="1030" y="856" on="1"/>
        <pt x="1041" y="856" on="0"/>
        <pt x="1058" y="876" on="0"/>
      </contour>
    </TTGlyph>
    <TTGlyph name="N" xMin="129" yMin="-4" xMax="1671" yMax="1393">
      <contour>
        <pt x="1665" y="459" on="1"/>
        <pt x="1665" y="344" on="0"/>
        <pt x="1664" y="187" on="0"/>
        <pt x="1660" y="84" on="0"/>
        <pt x="1651" y="28" on="0"/>
        <pt x="1634" y="3" on="0"/>
        <pt x="1608" y="-2" on="0"/>
        <pt x="1589" y="-2" on="1"/>
        <pt x="1590" y="-2" on="0"/>
        <pt x="1518" y="-1" on="0"/>
        <pt x="1407" y="-1" on="0"/>
        <pt x="1275" y="0" on="0"/>
        <pt x="1216" y="0" on="1"/>
        <pt x="1204" y="0" on="0"/>
        <pt x="1168" y="-3" on="0"/>
        <pt x="1127" y="2" on="0"/>
        <pt x="1083" y="18" on="0"/>
        <pt x="1064" y="37" on="1"/>
        <pt x="856" y="330" on="1"/>
        <pt x="852" y="337" on="0"/>
        <pt x="825" y="381" on="0"/>
        <pt x="795" y="429" on="0"/>
        <pt x="767" y="466" on="0"/>
        <pt x="761" y="466" on="1"/>
        <pt x="753" y="466" on="0"/>
        <pt x="745" y="456" on="0"/>
        <pt x="745" y="450" on="1"/>
        <pt x="745" y="436" on="0"/>
        <pt x="744" y="376" on="0"/>
        <pt x="743" y="300" on="0"/>
        <pt x="741" y="217" on="0"/>
        <pt x="740" y="144" on="0"/>
        <pt x="739" y="87" on="0"/>
        <pt x="739" y="76" on="1"/>
        <pt x="739" y="59" on="0"/>
        <pt x="741" y="34" on="0"/>
        <pt x="734" y="17" on="0"/>
        <pt x="714" y="10" on="0"/>
        <pt x="692" y="12" on="1"/>
        <pt x="610" y="6" on="0"/>
        <pt x="462" y="-4" on="0"/>
        <pt x="380" y="-4" on="1"/>
        <pt x="367" y="-4" on="0"/>
        <pt x="325" y="-3" on="0"/>
        <pt x="285" y="-3" on="0"/>
        <pt x="254" y="-2" on="0"/>
        <pt x="253" y="-2" on="1"/>
        <pt x="161" y="20" on="1"/>
        <pt x="155" y="37" on="1"/>
        <pt x="154" y="37" on="0"/>
        <pt x="152" y="82" on="0"/>
        <pt x="149" y="154" on="0"/>
        <pt x="147" y="244" on="0"/>
        <pt x="145" y="336" on="0"/>
        <pt x="143" y="421" on="0"/>
        <pt x="143" y="451" on="1"/>
        <pt x="131" y="556" on="0"/>
        <pt x="128" y="768" on="0"/>
        <pt x="131" y="979" on="0"/>
        <pt x="136" y="1191" on="0"/>
        <pt x="133" y="1298" on="1"/>
        <pt x="128" y="1324" on="0"/>
        <pt x="143" y="1356" on="0"/>
        <pt x="174" y="1373" on="0"/>
        <pt x="213" y="1378" on="0"/>
        <pt x="232" y="1378" on="1"/>
        <pt x="338" y="1378" on="0"/>
        <pt x="507" y="1388" on="0"/>
        <pt x="629" y="1395" on="0"/>
        <pt x="701" y="1391" on="0"/>
        <pt x="712" y="1376" on="1"/>
        <pt x="718" y="1368" on="0"/>
        <pt x="756" y="1315" on="0"/>
        <pt x="810" y="1235" on="0"/>
        <pt x="876" y="1136" on="0"/>
        <pt x="946" y="1031" on="0"/>
        <pt x="1016" y="926" on="0"/>
        <pt x="1046" y="881" on="1"/>
        <pt x="1047" y="917" on="0"/>
        <pt x="1048" y="1010" on="0"/>
        <pt x="1050" y="1108" on="0"/>
        <pt x="1052" y="1202" on="0"/>
        <pt x="1055" y="1277" on="0"/>
        <pt x="1058" y="1323" on="0"/>
        <pt x="1060" y="1325" on="1"/>
        <pt x="1064" y="1329" on="0"/>
        <pt x="1082" y="1345" on="0"/>
        <pt x="1107" y="1362" on="0"/>
        <pt x="1138" y="1373" on="0"/>
        <pt x="1155" y="1372" on="1"/>
        <pt x="1271" y="1372" on="1"/>
        <pt x="1274" y="1372" on="0"/>
        <pt x="1320" y="1371" on="0"/>
        <pt x="1386" y="1370" on="0"/>
        <pt x="1463" y="1368" on="0"/>
        <pt x="1529" y="1367" on="0"/>
        <pt x="1574" y="1366" on="0"/>
        <pt x="1576" y="1366" on="1"/>
        <pt x="1600" y="1366" on="0"/>
        <pt x="1636" y="1360" on="0"/>
        <pt x="1659" y="1342" on="0"/>
        <pt x="1671" y="1308" on="0"/>
        <pt x="1671" y="1280" on="1"/>
        <pt x="1671" y="1274" on="0"/>
        <pt x="1668" y="1244" on="0"/>
        <pt x="1665" y="1209" on="0"/>
        <pt x="1662" y="1177" on="0"/>
        <pt x="1662" y="1169" on="1"/>
        <pt x="1662" y="1161" on="0"/>
        <pt x="1669" y="1141" on="0"/>
        <pt x="1669" y="1130" on="1"/>
        <pt x="1669" y="1117" on="0"/>
        <pt x="1668" y="1015" on="0"/>
        <pt x="1668" y="876" on="0"/>
        <pt x="1666" y="718" on="0"/>
        <pt x="1666" y="577" on="0"/>
        <pt x="1665" y="474" on="0"/>
      </contour>
    </TTGlyph>
    <TTGlyph name="Nacute" xMin="129" yMin="-4" xMax="1671" yMax="2371">
      <component glyphName="N" x="0" y="0" flags="0x1204"/>
      <component glyphName="acute" x="430" y="223" flags="0x1004"/>
    </TTGlyph>
    <TTGlyph name="Ncaron" xMin="129" yMin="-4" xMax="1671" yMax="2269">
      <component glyphName="N" x="0" y="0" flags="0x1204"/>
      <component glyphName="caron" x="253" y="223" flags="0x1004"/>
    </TTGlyph>
    <TTGlyph name="Ntilde" xMin="129" yMin="-4" xMax="1671" yMax="2109">
      <component glyphName="N" x="0" y="0" flags="0x1004"/>
      <component glyphName="tilde" x="246" y="243" flags="0x1004"/>
    </TTGlyph>
    <TTGlyph name="O" xMin="94" yMin="-49" xMax="1667" yMax="1423">
      <contour>
        <pt x="897" y="-49" on="1"/>
        <pt x="797" y="-49" on="0"/>
        <pt x="601" y="-35" on="0"/>
        <pt x="423" y="12" on="0"/>
        <pt x="270" y="102" on="0"/>
        <pt x="158" y="256" on="0"/>
        <pt x="94" y="482" on="0"/>
        <pt x="94" y="641" on="1"/>
        <pt x="94" y="850" on="0"/>
        <pt x="187" y="1146" on="0"/>
        <pt x="386" y="1335" on="0"/>
        <pt x="698" y="1423" on="0"/>
        <pt x="917" y="1423" on="1"/>
        <pt x="991" y="1423" on="0"/>
        <pt x="1160" y="1399" on="0"/>
        <pt x="1327" y="1340" on="0"/>
        <pt x="1480" y="1239" on="0"/>
        <pt x="1597" y="1084" on="0"/>
        <pt x="1667" y="870" on="0"/>
        <pt x="1667" y="727" on="1"/>
        <pt x="1667" y="563" on="0"/>
        <pt x="1617" y="321" on="0"/>
        <pt x="1522" y="148" on="0"/>
        <pt x="1386" y="38" on="0"/>
        <pt x="1215" y="-25" on="0"/>
        <pt x="1012" y="-49" on="0"/>
      </contour>
      <contour>
        <pt x="788" y="670" on="1"/>
        <pt x="788" y="639" on="0"/>
        <pt x="789" y="537" on="0"/>
        <pt x="794" y="421" on="0"/>
        <pt x="805" y="303" on="0"/>
        <pt x="825" y="207" on="0"/>
        <pt x="857" y="147" on="0"/>
        <pt x="880" y="147" on="1"/>
        <pt x="904" y="147" on="0"/>
        <pt x="936" y="215" on="0"/>
        <pt x="957" y="321" on="0"/>
        <pt x="969" y="452" on="0"/>
        <pt x="974" y="577" on="0"/>
        <pt x="975" y="683" on="0"/>
        <pt x="975" y="711" on="1"/>
        <pt x="975" y="720" on="0"/>
        <pt x="974" y="804" on="0"/>
        <pt x="969" y="919" on="0"/>
        <pt x="957" y="1048" on="0"/>
        <pt x="936" y="1157" on="0"/>
        <pt x="904" y="1229" on="0"/>
        <pt x="880" y="1229" on="1"/>
        <pt x="857" y="1229" on="0"/>
        <pt x="825" y="1181" on="0"/>
        <pt x="805" y="1098" on="0"/>
        <pt x="794" y="988" on="0"/>
        <pt x="789" y="864" on="0"/>
        <pt x="788" y="732" on="0"/>
      </contour>
    </TTGlyph>
    <TTGlyph name="OE" xMin="102" yMin="-49" xMax="2382" yMax="1423">
      <contour>
        <pt x="905" y="-49" on="1"/>
        <pt x="806" y="-49" on="0"/>
        <pt x="610" y="-35" on="0"/>
        <pt x="431" y="12" on="0"/>
        <pt x="278" y="102" on="0"/>
        <pt x="166" y="256" on="0"/>
        <pt x="102" y="482" on="0"/>
        <pt x="102" y="641" on="1"/>
        <pt x="102" y="850" on="0"/>
        <pt x="195" y="1146" on="0"/>
        <pt x="394" y="1335" on="0"/>
        <pt x="706" y="1423" on="0"/>
        <pt x="926" y="1423" on="1"/>
        <pt x="1001" y="1423" on="0"/>
        <pt x="1172" y="1399" on="0"/>
        <pt x="1257" y="1368" on="1"/>
        <pt x="1279" y="1371" on="0"/>
        <pt x="1324" y="1372" on="0"/>
        <pt x="1347" y="1372" on="1"/>
        <pt x="1475" y="1372" on="0"/>
        <pt x="1703" y="1379" on="0"/>
        <pt x="1928" y="1383" on="0"/>
        <pt x="2166" y="1380" on="0"/>
        <pt x="2304" y="1370" on="1"/>
        <pt x="2323" y="1370" on="0"/>
        <pt x="2345" y="1326" on="0"/>
        <pt x="2359" y="1259" on="0"/>
        <pt x="2372" y="1179" on="0"/>
        <pt x="2382" y="1143" on="1"/>
        <pt x="2383" y="1117" on="0"/>
        <pt x="2378" y="1094" on="0"/>
        <pt x="2367" y="1085" on="0"/>
        <pt x="2348" y="1087" on="0"/>
        <pt x="2335" y="1087" on="1"/>
        <pt x="2284" y="1087" on="0"/>
        <pt x="2178" y="1079" on="0"/>
        <pt x="2070" y="1069" on="0"/>
        <pt x="1962" y="1058" on="0"/>
        <pt x="1909" y="1055" on="1"/>
        <pt x="1900" y="1055" on="0"/>
        <pt x="1885" y="1005" on="0"/>
        <pt x="1875" y="938" on="0"/>
        <pt x="1870" y="872" on="0"/>
        <pt x="1870" y="856" on="1"/>
        <pt x="1870" y="828" on="0"/>
        <pt x="1885" y="813" on="0"/>
        <pt x="1902" y="813" on="1"/>
        <pt x="1995" y="813" on="0"/>
        <pt x="2175" y="814" on="0"/>
        <pt x="2265" y="805" on="1"/>
        <pt x="2281" y="803" on="0"/>
        <pt x="2303" y="801" on="0"/>
        <pt x="2319" y="794" on="0"/>
        <pt x="2330" y="776" on="0"/>
        <pt x="2335" y="758" on="1"/>
        <pt x="2343" y="575" on="1"/>
        <pt x="2343" y="569" on="1"/>
        <pt x="2343" y="551" on="0"/>
        <pt x="2303" y="531" on="0"/>
        <pt x="2236" y="521" on="0"/>
        <pt x="2150" y="518" on="0"/>
        <pt x="2105" y="518" on="1"/>
        <pt x="2017" y="518" on="0"/>
        <pt x="1919" y="522" on="0"/>
        <pt x="1873" y="511" on="0"/>
        <pt x="1863" y="475" on="0"/>
        <pt x="1863" y="436" on="1"/>
        <pt x="1863" y="398" on="0"/>
        <pt x="1855" y="323" on="0"/>
        <pt x="1857" y="281" on="1"/>
        <pt x="1956" y="281" on="0"/>
        <pt x="2154" y="293" on="0"/>
        <pt x="2251" y="293" on="1"/>
        <pt x="2257" y="293" on="0"/>
        <pt x="2274" y="263" on="0"/>
        <pt x="2291" y="215" on="0"/>
        <pt x="2307" y="158" on="0"/>
        <pt x="2320" y="105" on="0"/>
        <pt x="2328" y="62" on="0"/>
        <pt x="2328" y="53" on="1"/>
        <pt x="2328" y="35" on="0"/>
        <pt x="2309" y="10" on="0"/>
        <pt x="2287" y="10" on="1"/>
        <pt x="2213" y="10" on="0"/>
        <pt x="2074" y="2" on="0"/>
        <pt x="1997" y="2" on="1"/>
        <pt x="1836" y="2" on="0"/>
        <pt x="1511" y="0" on="0"/>
        <pt x="1349" y="0" on="1"/>
        <pt x="1343" y="0" on="0"/>
        <pt x="1318" y="1" on="0"/>
        <pt x="1302" y="4" on="1"/>
        <pt x="1217" y="-25" on="0"/>
        <pt x="1018" y="-49" on="0"/>
      </contour>
      <contour>
        <pt x="796" y="670" on="1"/>
        <pt x="796" y="639" on="0"/>
        <pt x="797" y="537" on="0"/>
        <pt x="802" y="421" on="0"/>
        <pt x="813" y="303" on="0"/>
        <pt x="834" y="207" on="0"/>
        <pt x="866" y="147" on="0"/>
        <pt x="889" y="147" on="1"/>
        <pt x="913" y="147" on="0"/>
        <pt x="945" y="215" on="0"/>
        <pt x="966" y="321" on="0"/>
        <pt x="977" y="452" on="0"/>
        <pt x="982" y="577" on="0"/>
        <pt x="983" y="683" on="0"/>
        <pt x="983" y="711" on="1"/>
        <pt x="983" y="720" on="0"/>
        <pt x="982" y="804" on="0"/>
        <pt x="977" y="919" on="0"/>
        <pt x="966" y="1048" on="0"/>
        <pt x="945" y="1157" on="0"/>
        <pt x="912" y="1229" on="0"/>
        <pt x="889" y="1229" on="1"/>
        <pt x="866" y="1229" on="0"/>
        <pt x="834" y="1181" on="0"/>
        <pt x="813" y="1098" on="0"/>
        <pt x="802" y="988" on="0"/>
        <pt x="797" y="864" on="0"/>
        <pt x="796" y="732" on="0"/>
      </contour>
    </TTGlyph>
    <TTGlyph name="Oacute" xMin="94" yMin="-49" xMax="1667" yMax="2371">
      <component glyphName="O" x="0" y="0" flags="0x1004"/>
      <component glyphName="acute" x="433" y="223" flags="0x1004"/>
    </TTGlyph>
    <TTGlyph name="Obreve" xMin="94" yMin="-49" xMax="1667" yMax="2090">
      <component glyphName="O" x="0" y="0" flags="0x1204"/>
      <component glyphName="breve" x="282" y="223" flags="0x1004"/>
    </TTGlyph>
    <TTGlyph name="Ocircumflex" xMin="94" yMin="-49" xMax="1667" yMax="2269">
      <component glyphName="O" x="0" y="0" flags="0x1004"/>
      <component glyphName="circumflex" x="227" y="223" flags="0x1004"/>
    </TTGlyph>
    <TTGlyph name="Odieresis" xMin="94" yMin="-49" xMax="1667" yMax="1962">
      <component glyphName="O" x="0" y="0" flags="0x1004"/>
      <component glyphName="dieresis" x="232" y="223" flags="0x1004"/>
    </TTGlyph>
    <TTGlyph name="Ograve" xMin="94" yMin="-49" xMax="1667" yMax="2371">
      <component glyphName="O" x="0" y="0" flags="0x1004"/>
      <component glyphName="grave" x="477" y="223" flags="0x1004"/>
    </TTGlyph>
    <TTGlyph name="Ohungarumlaut" xMin="94" yMin="-49" xMax="1674" yMax="2371">
      <component glyphName="O" x="0" y="0" flags="0x1204"/>
      <component glyphName="hungarumlaut" x="-23" y="223" flags="0x1004"/>
    </TTGlyph>
    <TTGlyph name="Omacron" xMin="94" yMin="-49" xMax="1667" yMax="2049">
      <component glyphName="O" x="0" y="0" flags="0x1204"/>
      <component glyphName="macron" x="332" y="223" flags="0x1004"/>
    </TTGlyph>
    <TTGlyph name="Oslash" xMin="121" yMin="-109" xMax="1737" yMax="1423">
      <contour>
        <pt x="926" y="-49" on="1"/>
        <pt x="858" y="-49" on="0"/>
        <pt x="723" y="-43" on="0"/>
        <pt x="594" y="-26" on="0"/>
        <pt x="472" y="6" on="0"/>
        <pt x="418" y="33" on="1"/>
        <pt x="364" y="-21" on="0"/>
        <pt x="279" y="-98" on="0"/>
        <pt x="251" y="-109" on="1"/>
        <pt x="231" y="-104" on="0"/>
        <pt x="207" y="-94" on="0"/>
        <pt x="197" y="-90" on="1"/>
        <pt x="177" y="-72" on="0"/>
        <pt x="157" y="-58" on="0"/>
        <pt x="155" y="-56" on="1"/>
        <pt x="132" y="-44" on="0"/>
        <pt x="119" y="-21" on="0"/>
        <pt x="124" y="2" on="0"/>
        <pt x="142" y="24" on="0"/>
        <pt x="151" y="35" on="1"/>
        <pt x="171" y="55" on="0"/>
        <pt x="228" y="116" on="0"/>
        <pt x="263" y="152" on="1"/>
        <pt x="198" y="229" on="0"/>
        <pt x="123" y="467" on="0"/>
        <pt x="123" y="641" on="1"/>
        <pt x="123" y="850" on="0"/>
        <pt x="216" y="1146" on="0"/>
        <pt x="415" y="1335" on="0"/>
        <pt x="727" y="1423" on="0"/>
        <pt x="946" y="1423" on="1"/>
        <pt x="1003" y="1423" on="0"/>
        <pt x="1130" y="1409" on="0"/>
        <pt x="1259" y="1376" on="0"/>
        <pt x="1386" y="1322" on="0"/>
        <pt x="1443" y="1281" on="1"/>
        <pt x="1579" y="1404" on="1"/>
        <pt x="1593" y="1412" on="0"/>
        <pt x="1614" y="1408" on="0"/>
        <pt x="1623" y="1403" on="1"/>
        <pt x="1634" y="1398" on="0"/>
        <pt x="1669" y="1375" on="0"/>
        <pt x="1685" y="1372" on="1"/>
        <pt x="1709" y="1358" on="0"/>
        <pt x="1737" y="1340" on="0"/>
        <pt x="1736" y="1313" on="0"/>
        <pt x="1703" y="1268" on="0"/>
        <pt x="1666" y="1227" on="1"/>
        <pt x="1655" y="1217" on="0"/>
        <pt x="1642" y="1205" on="1"/>
        <pt x="1631" y="1194" on="0"/>
        <pt x="1598" y="1165" on="0"/>
        <pt x="1578" y="1147" on="1"/>
        <pt x="1632" y="1070" on="0"/>
        <pt x="1696" y="864" on="0"/>
        <pt x="1696" y="727" on="1"/>
        <pt x="1696" y="563" on="0"/>
        <pt x="1646" y="321" on="0"/>
        <pt x="1551" y="148" on="0"/>
        <pt x="1415" y="38" on="0"/>
        <pt x="1244" y="-25" on="0"/>
        <pt x="1041" y="-49" on="0"/>
      </contour>
      <contour>
        <pt x="909" y="1229" on="1"/>
        <pt x="887" y="1229" on="0"/>
        <pt x="857" y="1186" on="0"/>
        <pt x="836" y="1112" on="0"/>
        <pt x="824" y="1012" on="0"/>
        <pt x="819" y="897" on="0"/>
        <pt x="817" y="774" on="0"/>
        <pt x="817" y="714" on="1"/>
        <pt x="999" y="879" on="1"/>
        <pt x="996" y="936" on="0"/>
        <pt x="984" y="1060" on="0"/>
        <pt x="963" y="1162" on="0"/>
        <pt x="932" y="1229" on="0"/>
      </contour>
      <contour>
        <pt x="822" y="438" on="1"/>
        <pt x="825" y="384" on="0"/>
        <pt x="838" y="280" on="0"/>
        <pt x="858" y="197" on="0"/>
        <pt x="888" y="147" on="0"/>
        <pt x="909" y="147" on="1"/>
        <pt x="928" y="147" on="0"/>
        <pt x="957" y="192" on="0"/>
        <pt x="977" y="267" on="0"/>
        <pt x="990" y="365" on="0"/>
        <pt x="998" y="468" on="0"/>
        <pt x="1002" y="571" on="0"/>
        <pt x="1003" y="614" on="1"/>
      </contour>
    </TTGlyph>
    <TTGlyph name="Otilde" xMin="94" yMin="-49" xMax="1667" yMax="2089">
      <component glyphName="O" x="0" y="0" flags="0x1004"/>
      <component glyphName="tilde" x="221" y="223" flags="0x1004"/>
    </TTGlyph>
    <TTGlyph name="P" xMin="119" yMin="2" xMax="1661" yMax="1376">
      <contour>
        <pt x="119" y="1321" on="1"/>
        <pt x="119" y="1340" on="0"/>
        <pt x="153" y="1374" on="0"/>
        <pt x="172" y="1374" on="1"/>
        <pt x="309" y="1374" on="0"/>
        <pt x="507" y="1370" on="0"/>
        <pt x="579" y="1370" on="1"/>
        <pt x="691" y="1370" on="0"/>
        <pt x="944" y="1376" on="0"/>
        <pt x="1095" y="1376" on="1"/>
        <pt x="1151" y="1376" on="0"/>
        <pt x="1278" y="1361" on="0"/>
        <pt x="1404" y="1321" on="0"/>
        <pt x="1520" y="1253" on="0"/>
        <pt x="1608" y="1149" on="0"/>
        <pt x="1661" y="1003" on="0"/>
        <pt x="1661" y="905" on="1"/>
        <pt x="1661" y="744" on="0"/>
        <pt x="1579" y="522" on="0"/>
        <pt x="1429" y="386" on="0"/>
        <pt x="1217" y="326" on="0"/>
        <pt x="1087" y="326" on="1"/>
        <pt x="807" y="326" on="1"/>
        <pt x="808" y="290" on="0"/>
        <pt x="809" y="246" on="0"/>
        <pt x="808" y="204" on="0"/>
        <pt x="807" y="154" on="0"/>
        <pt x="807" y="113" on="1"/>
        <pt x="807" y="76" on="0"/>
        <pt x="792" y="34" on="0"/>
        <pt x="763" y="13" on="0"/>
        <pt x="721" y="8" on="0"/>
        <pt x="694" y="8" on="1"/>
        <pt x="623" y="8" on="0"/>
        <pt x="516" y="6" on="0"/>
        <pt x="407" y="4" on="0"/>
        <pt x="278" y="2" on="0"/>
        <pt x="184" y="2" on="1"/>
        <pt x="165" y="2" on="0"/>
        <pt x="143" y="26" on="0"/>
        <pt x="132" y="63" on="0"/>
        <pt x="129" y="107" on="0"/>
        <pt x="129" y="127" on="1"/>
        <pt x="129" y="175" on="0"/>
        <pt x="126" y="342" on="0"/>
        <pt x="122" y="546" on="0"/>
        <pt x="119" y="768" on="0"/>
        <pt x="119" y="870" on="1"/>
      </contour>
      <contour>
        <pt x="823" y="578" on="1"/>
        <pt x="823" y="576" on="0"/>
        <pt x="834" y="574" on="1"/>
        <pt x="842" y="572" on="0"/>
        <pt x="880" y="571" on="0"/>
        <pt x="915" y="571" on="1"/>
        <pt x="939" y="571" on="0"/>
        <pt x="971" y="617" on="0"/>
        <pt x="992" y="688" on="0"/>
        <pt x="1003" y="776" on="0"/>
        <pt x="1008" y="860" on="0"/>
        <pt x="1009" y="931" on="0"/>
        <pt x="1009" y="950" on="1"/>
        <pt x="1009" y="953" on="0"/>
        <pt x="1008" y="990" on="0"/>
        <pt x="1003" y="1042" on="0"/>
        <pt x="992" y="1100" on="0"/>
        <pt x="971" y="1149" on="0"/>
        <pt x="938" y="1182" on="0"/>
        <pt x="915" y="1182" on="1"/>
        <pt x="898" y="1182" on="0"/>
        <pt x="871" y="1130" on="0"/>
        <pt x="852" y="1045" on="0"/>
        <pt x="838" y="937" on="0"/>
        <pt x="834" y="880" on="1"/>
        <pt x="823" y="747" on="0"/>
      </contour>
    </TTGlyph>
    <TTGlyph name="Q" xMin="63" yMin="-436" xMax="1636" yMax="1423">
      <contour>
        <pt x="1636" y="727" on="1"/>
        <pt x="1636" y="560" on="0"/>
        <pt x="1584" y="315" on="0"/>
        <pt x="1486" y="142" on="0"/>
        <pt x="1347" y="33" on="0"/>
        <pt x="1259" y="2" on="1"/>
        <pt x="1283" y="-29" on="0"/>
        <pt x="1331" y="-96" on="0"/>
        <pt x="1370" y="-158" on="0"/>
        <pt x="1395" y="-209" on="0"/>
        <pt x="1395" y="-223" on="1"/>
        <pt x="1394" y="-244" on="0"/>
        <pt x="1353" y="-281" on="0"/>
        <pt x="1297" y="-315" on="0"/>
        <pt x="1239" y="-346" on="0"/>
        <pt x="1220" y="-360" on="1"/>
        <pt x="1202" y="-365" on="0"/>
        <pt x="1164" y="-378" on="0"/>
        <pt x="1143" y="-383" on="1"/>
        <pt x="1139" y="-386" on="0"/>
        <pt x="1093" y="-401" on="0"/>
        <pt x="1039" y="-416" on="0"/>
        <pt x="993" y="-427" on="0"/>
        <pt x="989" y="-426" on="1"/>
        <pt x="987" y="-435" on="0"/>
        <pt x="973" y="-435" on="0"/>
        <pt x="973" y="-436" on="1"/>
        <pt x="972" y="-436" on="0"/>
        <pt x="963" y="-434" on="0"/>
        <pt x="946" y="-425" on="0"/>
        <pt x="921" y="-405" on="0"/>
        <pt x="903" y="-387" on="1"/>
        <pt x="898" y="-376" on="0"/>
        <pt x="893" y="-375" on="0"/>
        <pt x="891" y="-375" on="1"/>
        <pt x="888" y="-373" on="0"/>
        <pt x="883" y="-370" on="0"/>
        <pt x="878" y="-362" on="1"/>
        <pt x="717" y="-96" on="1"/>
        <pt x="714" y="-90" on="0"/>
        <pt x="697" y="-60" on="0"/>
        <pt x="686" y="-43" on="1"/>
        <pt x="603" y="-37" on="0"/>
        <pt x="446" y="-6" on="0"/>
        <pt x="308" y="56" on="0"/>
        <pt x="192" y="155" on="0"/>
        <pt x="109" y="303" on="0"/>
        <pt x="63" y="506" on="0"/>
        <pt x="63" y="641" on="1"/>
        <pt x="63" y="850" on="0"/>
        <pt x="156" y="1146" on="0"/>
        <pt x="355" y="1335" on="0"/>
        <pt x="667" y="1423" on="0"/>
        <pt x="887" y="1423" on="1"/>
        <pt x="961" y="1423" on="0"/>
        <pt x="1130" y="1399" on="0"/>
        <pt x="1296" y="1340" on="0"/>
        <pt x="1449" y="1239" on="0"/>
        <pt x="1566" y="1084" on="0"/>
        <pt x="1636" y="870" on="0"/>
      </contour>
      <contour>
        <pt x="758" y="670" on="1"/>
        <pt x="758" y="639" on="0"/>
        <pt x="759" y="537" on="0"/>
        <pt x="764" y="421" on="0"/>
        <pt x="775" y="303" on="0"/>
        <pt x="795" y="207" on="0"/>
        <pt x="827" y="147" on="0"/>
        <pt x="850" y="147" on="1"/>
        <pt x="873" y="147" on="0"/>
        <pt x="906" y="215" on="0"/>
        <pt x="927" y="321" on="0"/>
        <pt x="938" y="452" on="0"/>
        <pt x="943" y="577" on="0"/>
        <pt x="944" y="683" on="0"/>
        <pt x="944" y="711" on="1"/>
        <pt x="944" y="720" on="0"/>
        <pt x="943" y="804" on="0"/>
        <pt x="938" y="919" on="0"/>
        <pt x="927" y="1048" on="0"/>
        <pt x="906" y="1157" on="0"/>
        <pt x="873" y="1229" on="0"/>
        <pt x="850" y="1229" on="1"/>
        <pt x="827" y="1229" on="0"/>
        <pt x="795" y="1181" on="0"/>
        <pt x="775" y="1098" on="0"/>
        <pt x="764" y="988" on="0"/>
        <pt x="759" y="864" on="0"/>
        <pt x="758" y="732" on="0"/>
      </contour>
    </TTGlyph>
    <TTGlyph name="R" xMin="111" yMin="-70" xMax="1727" yMax="1405">
      <contour>
        <pt x="1150" y="-27" on="1"/>
        <pt x="1147" y="-16" on="0"/>
        <pt x="1141" y="-12" on="0"/>
        <pt x="1139" y="-12" on="1"/>
        <pt x="1137" y="-12" on="0"/>
        <pt x="1132" y="-8" on="0"/>
        <pt x="1127" y="-2" on="1"/>
        <pt x="953" y="256" on="1"/>
        <pt x="949" y="263" on="0"/>
        <pt x="928" y="296" on="0"/>
        <pt x="903" y="330" on="0"/>
        <pt x="880" y="356" on="0"/>
        <pt x="875" y="356" on="1"/>
        <pt x="866" y="356" on="0"/>
        <pt x="859" y="305" on="0"/>
        <pt x="856" y="229" on="0"/>
        <pt x="855" y="139" on="0"/>
        <pt x="850" y="63" on="0"/>
        <pt x="839" y="12" on="0"/>
        <pt x="828" y="12" on="1"/>
        <pt x="820" y="12" on="0"/>
        <pt x="806" y="14" on="0"/>
        <pt x="804" y="14" on="1"/>
        <pt x="694" y="8" on="0"/>
        <pt x="485" y="-4" on="0"/>
        <pt x="376" y="-4" on="1"/>
        <pt x="363" y="-4" on="0"/>
        <pt x="319" y="-3" on="0"/>
        <pt x="277" y="-3" on="0"/>
        <pt x="245" y="-2" on="0"/>
        <pt x="244" y="-2" on="1"/>
        <pt x="171" y="23" on="1"/>
        <pt x="163" y="39" on="1"/>
        <pt x="163" y="39" on="0"/>
        <pt x="158" y="86" on="0"/>
        <pt x="152" y="160" on="0"/>
        <pt x="145" y="254" on="0"/>
        <pt x="138" y="348" on="0"/>
        <pt x="132" y="436" on="0"/>
        <pt x="130" y="467" on="1"/>
        <pt x="125" y="545" on="0"/>
        <pt x="113" y="706" on="0"/>
        <pt x="113" y="784" on="1"/>
        <pt x="113" y="789" on="0"/>
        <pt x="116" y="825" on="0"/>
        <pt x="119" y="865" on="0"/>
        <pt x="122" y="900" on="0"/>
        <pt x="122" y="905" on="1"/>
        <pt x="122" y="972" on="0"/>
        <pt x="111" y="1092" on="0"/>
        <pt x="111" y="1161" on="1"/>
        <pt x="111" y="1209" on="0"/>
        <pt x="116" y="1297" on="0"/>
        <pt x="133" y="1364" on="0"/>
        <pt x="163" y="1405" on="0"/>
        <pt x="187" y="1405" on="1"/>
        <pt x="298" y="1405" on="0"/>
        <pt x="537" y="1402" on="0"/>
        <pt x="778" y="1396" on="0"/>
        <pt x="1016" y="1389" on="0"/>
        <pt x="1125" y="1386" on="1"/>
        <pt x="1263" y="1382" on="0"/>
        <pt x="1460" y="1312" on="0"/>
        <pt x="1586" y="1200" on="0"/>
        <pt x="1645" y="1057" on="0"/>
        <pt x="1645" y="979" on="1"/>
        <pt x="1645" y="926" on="0"/>
        <pt x="1625" y="839" on="0"/>
        <pt x="1592" y="767" on="0"/>
        <pt x="1550" y="710" on="0"/>
        <pt x="1528" y="688" on="1"/>
        <pt x="1477" y="637" on="0"/>
        <pt x="1412" y="606" on="1"/>
        <pt x="1428" y="592" on="0"/>
        <pt x="1444" y="578" on="1"/>
        <pt x="1458" y="566" on="0"/>
        <pt x="1487" y="540" on="0"/>
        <pt x="1500" y="532" on="1"/>
        <pt x="1510" y="519" on="0"/>
        <pt x="1551" y="469" on="0"/>
        <pt x="1601" y="407" on="0"/>
        <pt x="1655" y="339" on="0"/>
        <pt x="1699" y="277" on="0"/>
        <pt x="1727" y="225" on="0"/>
        <pt x="1727" y="211" on="1"/>
        <pt x="1727" y="190" on="0"/>
        <pt x="1688" y="151" on="0"/>
        <pt x="1633" y="115" on="0"/>
        <pt x="1575" y="81" on="0"/>
        <pt x="1557" y="66" on="1"/>
        <pt x="1520" y="47" on="0"/>
        <pt x="1440" y="2" on="0"/>
        <pt x="1393" y="-12" on="1"/>
        <pt x="1390" y="-13" on="0"/>
        <pt x="1364" y="-23" on="0"/>
        <pt x="1330" y="-35" on="0"/>
        <pt x="1291" y="-47" on="0"/>
        <pt x="1259" y="-57" on="0"/>
        <pt x="1239" y="-61" on="0"/>
        <pt x="1240" y="-59" on="1"/>
        <pt x="1235" y="-70" on="0"/>
        <pt x="1225" y="-70" on="0"/>
        <pt x="1223" y="-70" on="1"/>
        <pt x="1222" y="-70" on="0"/>
        <pt x="1214" y="-70" on="0"/>
        <pt x="1196" y="-62" on="0"/>
        <pt x="1169" y="-45" on="0"/>
      </contour>
      <contour>
        <pt x="831" y="659" on="1"/>
        <pt x="832" y="657" on="0"/>
        <pt x="837" y="656" on="1"/>
        <pt x="842" y="654" on="0"/>
        <pt x="862" y="653" on="0"/>
        <pt x="882" y="653" on="1"/>
        <pt x="918" y="653" on="0"/>
        <pt x="968" y="689" on="0"/>
        <pt x="1000" y="745" on="0"/>
        <pt x="1018" y="814" on="0"/>
        <pt x="1026" y="880" on="0"/>
        <pt x="1027" y="935" on="0"/>
        <pt x="1027" y="950" on="1"/>
        <pt x="1027" y="953" on="0"/>
        <pt x="1026" y="990" on="0"/>
        <pt x="1018" y="1042" on="0"/>
        <pt x="1000" y="1100" on="0"/>
        <pt x="968" y="1149" on="0"/>
        <pt x="918" y="1182" on="0"/>
        <pt x="882" y="1182" on="1"/>
        <pt x="872" y="1182" on="0"/>
        <pt x="857" y="1137" on="0"/>
        <pt x="847" y="1063" on="0"/>
        <pt x="839" y="969" on="0"/>
        <pt x="837" y="920" on="1"/>
        <pt x="832" y="805" on="0"/>
      </contour>
    </TTGlyph>
    <TTGlyph name="R.alt" xMin="111" yMin="-70" xMax="1727" yMax="1405">
      <contour>
        <pt x="1150" y="-27" on="1"/>
        <pt x="1147" y="-16" on="0"/>
        <pt x="1141" y="-12" on="0"/>
        <pt x="1139" y="-12" on="1"/>
        <pt x="1137" y="-12" on="0"/>
        <pt x="1132" y="-8" on="0"/>
        <pt x="1127" y="-2" on="1"/>
        <pt x="953" y="256" on="1"/>
        <pt x="949" y="263" on="0"/>
        <pt x="928" y="296" on="0"/>
        <pt x="903" y="330" on="0"/>
        <pt x="880" y="356" on="0"/>
        <pt x="875" y="356" on="1"/>
        <pt x="866" y="356" on="0"/>
        <pt x="859" y="305" on="0"/>
        <pt x="856" y="229" on="0"/>
        <pt x="855" y="139" on="0"/>
        <pt x="850" y="63" on="0"/>
        <pt x="839" y="12" on="0"/>
        <pt x="828" y="12" on="1"/>
        <pt x="820" y="12" on="0"/>
        <pt x="806" y="14" on="0"/>
        <pt x="804" y="14" on="1"/>
        <pt x="694" y="8" on="0"/>
        <pt x="485" y="-4" on="0"/>
        <pt x="376" y="-4" on="1"/>
        <pt x="363" y="-4" on="0"/>
        <pt x="319" y="-3" on="0"/>
        <pt x="277" y="-3" on="0"/>
        <pt x="245" y="-2" on="0"/>
        <pt x="244" y="-2" on="1"/>
        <pt x="171" y="23" on="1"/>
        <pt x="163" y="39" on="1"/>
        <pt x="163" y="39" on="0"/>
        <pt x="158" y="86" on="0"/>
        <pt x="152" y="160" on="0"/>
        <pt x="145" y="254" on="0"/>
        <pt x="138" y="348" on="0"/>
        <pt x="132" y="436" on="0"/>
        <pt x="130" y="467" on="1"/>
        <pt x="125" y="545" on="0"/>
        <pt x="113" y="706" on="0"/>
        <pt x="113" y="784" on="1"/>
        <pt x="113" y="789" on="0"/>
        <pt x="116" y="825" on="0"/>
        <pt x="119" y="865" on="0"/>
        <pt x="122" y="900" on="0"/>
        <pt x="122" y="905" on="1"/>
        <pt x="122" y="972" on="0"/>
        <pt x="111" y="1092" on="0"/>
        <pt x="111" y="1161" on="1"/>
        <pt x="111" y="1209" on="0"/>
        <pt x="116" y="1297" on="0"/>
        <pt x="133" y="1364" on="0"/>
        <pt x="163" y="1405" on="0"/>
        <pt x="187" y="1405" on="1"/>
        <pt x="298" y="1405" on="0"/>
        <pt x="537" y="1402" on="0"/>
        <pt x="778" y="1396" on="0"/>
        <pt x="1016" y="1389" on="0"/>
        <pt x="1125" y="1386" on="1"/>
        <pt x="1263" y="1382" on="0"/>
        <pt x="1460" y="1312" on="0"/>
        <pt x="1586" y="1200" on="0"/>
        <pt x="1645" y="1057" on="0"/>
        <pt x="1645" y="979" on="1"/>
        <pt x="1645" y="926" on="0"/>
        <pt x="1625" y="839" on="0"/>
        <pt x="1592" y="767" on="0"/>
        <pt x="1550" y="710" on="0"/>
        <pt x="1528" y="688" on="1"/>
        <pt x="1477" y="637" on="0"/>
        <pt x="1412" y="606" on="1"/>
        <pt x="1428" y="592" on="0"/>
        <pt x="1444" y="578" on="1"/>
        <pt x="1458" y="566" on="0"/>
        <pt x="1487" y="540" on="0"/>
        <pt x="1500" y="532" on="1"/>
        <pt x="1510" y="519" on="0"/>
        <pt x="1551" y="469" on="0"/>
        <pt x="1601" y="407" on="0"/>
        <pt x="1655" y="339" on="0"/>
        <pt x="1699" y="277" on="0"/>
        <pt x="1727" y="225" on="0"/>
        <pt x="1727" y="211" on="1"/>
        <pt x="1727" y="190" on="0"/>
        <pt x="1688" y="151" on="0"/>
        <pt x="1633" y="115" on="0"/>
        <pt x="1575" y="81" on="0"/>
        <pt x="1557" y="66" on="1"/>
        <pt x="1520" y="47" on="0"/>
        <pt x="1440" y="2" on="0"/>
        <pt x="1393" y="-12" on="1"/>
        <pt x="1390" y="-13" on="0"/>
        <pt x="1364" y="-23" on="0"/>
        <pt x="1330" y="-35" on="0"/>
        <pt x="1291" y="-47" on="0"/>
        <pt x="1259" y="-57" on="0"/>
        <pt x="1239" y="-61" on="0"/>
        <pt x="1240" y="-59" on="1"/>
        <pt x="1235" y="-70" on="0"/>
        <pt x="1225" y="-70" on="0"/>
        <pt x="1223" y="-70" on="1"/>
        <pt x="1222" y="-70" on="0"/>
        <pt x="1214" y="-70" on="0"/>
        <pt x="1196" y="-62" on="0"/>
        <pt x="1169" y="-45" on="0"/>
      </contour>
      <contour>
        <pt x="861" y="659" on="1"/>
        <pt x="862" y="657" on="0"/>
        <pt x="867" y="656" on="1"/>
        <pt x="872" y="654" on="0"/>
        <pt x="892" y="653" on="0"/>
        <pt x="912" y="653" on="1"/>
        <pt x="941" y="653" on="0"/>
        <pt x="980" y="689" on="0"/>
        <pt x="1006" y="745" on="0"/>
        <pt x="1020" y="814" on="0"/>
        <pt x="1026" y="880" on="0"/>
        <pt x="1027" y="935" on="0"/>
        <pt x="1027" y="950" on="1"/>
        <pt x="1027" y="953" on="0"/>
        <pt x="1026" y="990" on="0"/>
        <pt x="1020" y="1042" on="0"/>
        <pt x="1006" y="1100" on="0"/>
        <pt x="980" y="1149" on="0"/>
        <pt x="941" y="1182" on="0"/>
        <pt x="912" y="1182" on="1"/>
        <pt x="902" y="1182" on="0"/>
        <pt x="887" y="1137" on="0"/>
        <pt x="877" y="1063" on="0"/>
        <pt x="869" y="969" on="0"/>
        <pt x="867" y="920" on="1"/>
        <pt x="862" y="805" on="0"/>
      </contour>
    </TTGlyph>
    <TTGlyph name="Racute" xMin="111" yMin="-70" xMax="1727" yMax="2371">
      <component glyphName="R" x="0" y="0" flags="0x1204"/>
      <component glyphName="acute" x="430" y="223" flags="0x1004"/>
    </TTGlyph>
    <TTGlyph name="Rcaron" xMin="111" yMin="-70" xMax="1727" yMax="2269">
      <component glyphName="R" x="0" y="0" flags="0x1204"/>
      <component glyphName="caron" x="253" y="223" flags="0x1004"/>
    </TTGlyph>
    <TTGlyph name="S" xMin="88" yMin="-49" xMax="1380" yMax="1423">
      <contour>
        <pt x="1372" y="412" on="1"/>
        <pt x="1364" y="329" on="0"/>
        <pt x="1301" y="196" on="0"/>
        <pt x="1204" y="94" on="0"/>
        <pt x="1076" y="20" on="0"/>
        <pt x="930" y="-27" on="0"/>
        <pt x="769" y="-49" on="0"/>
        <pt x="688" y="-49" on="1"/>
        <pt x="613" y="-49" on="0"/>
        <pt x="465" y="-32" on="0"/>
        <pt x="327" y="-1" on="0"/>
        <pt x="204" y="46" on="0"/>
        <pt x="155" y="76" on="1"/>
        <pt x="128" y="162" on="0"/>
        <pt x="100" y="343" on="0"/>
        <pt x="88" y="436" on="1"/>
        <pt x="88" y="442" on="1"/>
        <pt x="90" y="452" on="0"/>
        <pt x="103" y="473" on="0"/>
        <pt x="114" y="479" on="1"/>
        <pt x="188" y="433" on="0"/>
        <pt x="333" y="385" on="0"/>
        <pt x="422" y="385" on="1"/>
        <pt x="440" y="385" on="0"/>
        <pt x="504" y="381" on="0"/>
        <pt x="570" y="387" on="0"/>
        <pt x="627" y="409" on="0"/>
        <pt x="637" y="434" on="1"/>
        <pt x="584" y="462" on="0"/>
        <pt x="467" y="517" on="0"/>
        <pt x="355" y="580" on="0"/>
        <pt x="253" y="654" on="0"/>
        <pt x="176" y="749" on="0"/>
        <pt x="131" y="869" on="0"/>
        <pt x="131" y="946" on="1"/>
        <pt x="131" y="1045" on="0"/>
        <pt x="191" y="1193" on="0"/>
        <pt x="294" y="1299" on="0"/>
        <pt x="432" y="1368" on="0"/>
        <pt x="587" y="1407" on="0"/>
        <pt x="751" y="1423" on="0"/>
        <pt x="829" y="1423" on="1"/>
        <pt x="911" y="1423" on="0"/>
        <pt x="1051" y="1409" on="0"/>
        <pt x="1172" y="1390" on="0"/>
        <pt x="1277" y="1371" on="0"/>
        <pt x="1325" y="1366" on="1"/>
        <pt x="1330" y="1365" on="0"/>
        <pt x="1339" y="1356" on="0"/>
        <pt x="1347" y="1345" on="0"/>
        <pt x="1355" y="1336" on="0"/>
        <pt x="1360" y="1335" on="1"/>
        <pt x="1362" y="1335" on="0"/>
        <pt x="1362" y="1337" on="0"/>
        <pt x="1364" y="1337" on="1"/>
        <pt x="1367" y="1282" on="0"/>
        <pt x="1380" y="1174" on="0"/>
        <pt x="1380" y="1118" on="1"/>
        <pt x="1380" y="1100" on="0"/>
        <pt x="1378" y="1062" on="0"/>
        <pt x="1369" y="1026" on="0"/>
        <pt x="1351" y="995" on="0"/>
        <pt x="1335" y="985" on="1"/>
        <pt x="1147" y="1008" on="1"/>
        <pt x="1139" y="1008" on="0"/>
        <pt x="1115" y="1010" on="0"/>
        <pt x="1098" y="1010" on="1"/>
        <pt x="1065" y="1010" on="0"/>
        <pt x="977" y="1001" on="0"/>
        <pt x="898" y="988" on="0"/>
        <pt x="844" y="976" on="0"/>
        <pt x="844" y="973" on="1"/>
        <pt x="844" y="943" on="0"/>
        <pt x="883" y="897" on="0"/>
        <pt x="937" y="864" on="0"/>
        <pt x="992" y="843" on="0"/>
        <pt x="1007" y="838" on="1"/>
        <pt x="1085" y="816" on="0"/>
        <pt x="1222" y="737" on="0"/>
        <pt x="1322" y="638" on="0"/>
        <pt x="1380" y="528" on="0"/>
        <pt x="1380" y="477" on="1"/>
        <pt x="1380" y="460" on="0"/>
        <pt x="1377" y="432" on="0"/>
      </contour>
    </TTGlyph>
    <TTGlyph name="Sacute" xMin="88" yMin="-49" xMax="1380" yMax="2371">
      <component glyphName="S" x="0" y="0" flags="0x1204"/>
      <component glyphName="acute" x="274" y="223" flags="0x1004"/>
    </TTGlyph>
    <TTGlyph name="Scaron" xMin="88" yMin="-49" xMax="1380" yMax="2289">
      <component glyphName="S" x="0" y="0" flags="0x1004"/>
      <component glyphName="caron" x="95" y="243" flags="0x1004"/>
    </TTGlyph>
    <TTGlyph name="Scedilla" xMin="88" yMin="-672" xMax="1380" yMax="1423">
      <component glyphName="S" x="0" y="0" flags="0x1204"/>
      <component glyphName="cedilla" x="419" y="0" flags="0x1004"/>
    </TTGlyph>
    <TTGlyph name="Scircumflex" xMin="88" yMin="-49" xMax="1380" yMax="2269">
      <component glyphName="S" x="0" y="0" flags="0x1204"/>
      <component glyphName="circumflex" x="97" y="223" flags="0x1004"/>
    </TTGlyph>
    <TTGlyph name="T" xMin="77" yMin="-2" xMax="1410" yMax="1348">
      <contour>
        <pt x="388" y="899" on="1"/>
        <pt x="388" y="901" on="0"/>
        <pt x="380" y="905" on="1"/>
        <pt x="154" y="905" on="1"/>
        <pt x="125" y="905" on="0"/>
        <pt x="94" y="972" on="0"/>
        <pt x="79" y="1066" on="0"/>
        <pt x="77" y="1164" on="0"/>
        <pt x="77" y="1196" on="1"/>
        <pt x="77" y="1204" on="0"/>
        <pt x="78" y="1239" on="0"/>
        <pt x="79" y="1275" on="0"/>
        <pt x="80" y="1303" on="0"/>
        <pt x="80" y="1304" on="1"/>
        <pt x="80" y="1319" on="0"/>
        <pt x="103" y="1336" on="0"/>
        <pt x="136" y="1345" on="0"/>
        <pt x="171" y="1348" on="0"/>
        <pt x="183" y="1348" on="1"/>
        <pt x="258" y="1348" on="0"/>
        <pt x="416" y="1344" on="0"/>
        <pt x="491" y="1344" on="1"/>
        <pt x="1228" y="1344" on="1"/>
        <pt x="1296" y="1344" on="0"/>
        <pt x="1370" y="1337" on="0"/>
        <pt x="1404" y="1322" on="0"/>
        <pt x="1410" y="1300" on="0"/>
        <pt x="1410" y="1285" on="1"/>
        <pt x="1410" y="946" on="1"/>
        <pt x="1410" y="934" on="0"/>
        <pt x="1398" y="921" on="0"/>
        <pt x="1381" y="915" on="0"/>
        <pt x="1362" y="914" on="0"/>
        <pt x="1355" y="914" on="1"/>
        <pt x="1327" y="914" on="0"/>
        <pt x="1259" y="914" on="0"/>
        <pt x="1188" y="914" on="0"/>
        <pt x="1119" y="915" on="0"/>
        <pt x="1090" y="915" on="1"/>
        <pt x="1082" y="915" on="0"/>
        <pt x="1073" y="914" on="0"/>
        <pt x="1068" y="905" on="0"/>
        <pt x="1066" y="885" on="0"/>
        <pt x="1066" y="866" on="1"/>
        <pt x="1066" y="851" on="0"/>
        <pt x="1065" y="741" on="0"/>
        <pt x="1060" y="583" on="0"/>
        <pt x="1051" y="395" on="0"/>
        <pt x="1044" y="303" on="1"/>
        <pt x="1044" y="106" on="1"/>
        <pt x="1044" y="68" on="0"/>
        <pt x="1029" y="29" on="0"/>
        <pt x="1000" y="11" on="0"/>
        <pt x="955" y="7" on="0"/>
        <pt x="925" y="4" on="1"/>
        <pt x="863" y="4" on="0"/>
        <pt x="764" y="2" on="0"/>
        <pt x="659" y="0" on="0"/>
        <pt x="536" y="-2" on="0"/>
        <pt x="452" y="-2" on="1"/>
        <pt x="424" y="-2" on="0"/>
        <pt x="394" y="69" on="0"/>
        <pt x="379" y="195" on="0"/>
        <pt x="378" y="366" on="0"/>
        <pt x="382" y="566" on="0"/>
        <pt x="388" y="787" on="0"/>
      </contour>
    </TTGlyph>
    <TTGlyph name="Tbar" xMin="77" yMin="-2" xMax="1410" yMax="1348">
      <contour>
        <pt x="388" y="899" on="1"/>
        <pt x="388" y="901" on="0"/>
        <pt x="380" y="905" on="1"/>
        <pt x="154" y="905" on="1"/>
        <pt x="125" y="905" on="0"/>
        <pt x="94" y="972" on="0"/>
        <pt x="79" y="1066" on="0"/>
        <pt x="77" y="1164" on="0"/>
        <pt x="77" y="1196" on="1"/>
        <pt x="77" y="1204" on="0"/>
        <pt x="78" y="1239" on="0"/>
        <pt x="79" y="1275" on="0"/>
        <pt x="80" y="1303" on="0"/>
        <pt x="80" y="1304" on="1"/>
        <pt x="80" y="1319" on="0"/>
        <pt x="103" y="1336" on="0"/>
        <pt x="136" y="1345" on="0"/>
        <pt x="171" y="1348" on="0"/>
        <pt x="183" y="1348" on="1"/>
        <pt x="258" y="1348" on="0"/>
        <pt x="416" y="1344" on="0"/>
        <pt x="491" y="1344" on="1"/>
        <pt x="1228" y="1344" on="1"/>
        <pt x="1296" y="1344" on="0"/>
        <pt x="1370" y="1337" on="0"/>
        <pt x="1404" y="1322" on="0"/>
        <pt x="1410" y="1300" on="0"/>
        <pt x="1410" y="1285" on="1"/>
        <pt x="1410" y="946" on="1"/>
        <pt x="1410" y="934" on="0"/>
        <pt x="1398" y="921" on="0"/>
        <pt x="1381" y="915" on="0"/>
        <pt x="1362" y="914" on="0"/>
        <pt x="1355" y="914" on="1"/>
        <pt x="1223" y="914" on="1"/>
        <pt x="1188" y="914" on="0"/>
        <pt x="1119" y="915" on="0"/>
        <pt x="1090" y="915" on="1"/>
        <pt x="1082" y="915" on="0"/>
        <pt x="1073" y="914" on="0"/>
        <pt x="1068" y="905" on="0"/>
        <pt x="1066" y="885" on="0"/>
        <pt x="1066" y="866" on="1"/>
        <pt x="1066" y="851" on="0"/>
        <pt x="1065" y="741" on="0"/>
        <pt x="1062" y="664" on="1"/>
        <pt x="1103" y="664" on="1"/>
        <pt x="1124" y="664" on="0"/>
        <pt x="1172" y="662" on="0"/>
        <pt x="1213" y="654" on="0"/>
        <pt x="1240" y="639" on="0"/>
        <pt x="1240" y="625" on="1"/>
        <pt x="1240" y="602" on="0"/>
        <pt x="1241" y="574" on="0"/>
        <pt x="1242" y="554" on="0"/>
        <pt x="1243" y="539" on="0"/>
        <pt x="1244" y="520" on="0"/>
        <pt x="1246" y="493" on="0"/>
        <pt x="1246" y="471" on="1"/>
        <pt x="1246" y="457" on="0"/>
        <pt x="1243" y="427" on="0"/>
        <pt x="1231" y="402" on="0"/>
        <pt x="1207" y="385" on="0"/>
        <pt x="1186" y="385" on="1"/>
        <pt x="1137" y="385" on="0"/>
        <pt x="1100" y="386" on="1"/>
        <pt x="1073" y="386" on="0"/>
        <pt x="1050" y="387" on="1"/>
        <pt x="1044" y="303" on="1"/>
        <pt x="1044" y="106" on="1"/>
        <pt x="1044" y="68" on="0"/>
        <pt x="1029" y="29" on="0"/>
        <pt x="1000" y="11" on="0"/>
        <pt x="955" y="7" on="0"/>
        <pt x="925" y="4" on="1"/>
        <pt x="863" y="4" on="0"/>
        <pt x="764" y="2" on="0"/>
        <pt x="659" y="0" on="0"/>
        <pt x="536" y="-2" on="0"/>
        <pt x="452" y="-2" on="1"/>
        <pt x="424" y="-2" on="0"/>
        <pt x="394" y="69" on="0"/>
        <pt x="379" y="195" on="0"/>
        <pt x="378" y="280" on="1"/>
        <pt x="378" y="333" on="0"/>
        <pt x="378" y="392" on="1"/>
        <pt x="347" y="392" on="0"/>
        <pt x="316" y="391" on="1"/>
        <pt x="282" y="391" on="0"/>
        <pt x="227" y="397" on="0"/>
        <pt x="193" y="415" on="0"/>
        <pt x="193" y="432" on="1"/>
        <pt x="193" y="464" on="0"/>
        <pt x="192" y="512" on="0"/>
        <pt x="192" y="556" on="0"/>
        <pt x="191" y="603" on="0"/>
        <pt x="191" y="635" on="1"/>
        <pt x="191" y="641" on="0"/>
        <pt x="202" y="654" on="0"/>
        <pt x="220" y="664" on="0"/>
        <pt x="240" y="671" on="0"/>
        <pt x="250" y="671" on="1"/>
        <pt x="385" y="671" on="1"/>
        <pt x="385" y="676" on="1"/>
        <pt x="388" y="787" on="0"/>
      </contour>
    </TTGlyph>
    <TTGlyph name="Tcaron" xMin="77" yMin="-2" xMax="1410" yMax="2269">
      <component glyphName="T" x="0" y="0" flags="0x1204"/>
      <component glyphName="caron" x="99" y="223" flags="0x1004"/>
    </TTGlyph>
    <TTGlyph name="Thorn" xMin="118" yMin="-38" xMax="1660" yMax="1480">
      <contour>
        <pt x="118" y="827" on="1"/>
        <pt x="119" y="904" on="0"/>
        <pt x="122" y="1064" on="0"/>
        <pt x="125" y="1206" on="0"/>
        <pt x="128" y="1322" on="0"/>
        <pt x="128" y="1355" on="1"/>
        <pt x="128" y="1375" on="0"/>
        <pt x="131" y="1419" on="0"/>
        <pt x="142" y="1456" on="0"/>
        <pt x="164" y="1480" on="0"/>
        <pt x="183" y="1480" on="1"/>
        <pt x="277" y="1480" on="0"/>
        <pt x="406" y="1478" on="0"/>
        <pt x="515" y="1476" on="0"/>
        <pt x="622" y="1474" on="0"/>
        <pt x="693" y="1474" on="1"/>
        <pt x="720" y="1474" on="0"/>
        <pt x="762" y="1469" on="0"/>
        <pt x="791" y="1448" on="0"/>
        <pt x="806" y="1406" on="0"/>
        <pt x="806" y="1369" on="1"/>
        <pt x="806" y="1346" on="0"/>
        <pt x="807" y="1314" on="0"/>
        <pt x="807" y="1289" on="0"/>
        <pt x="808" y="1266" on="0"/>
        <pt x="808" y="1253" on="1"/>
        <pt x="874" y="1254" on="0"/>
        <pt x="1016" y="1256" on="0"/>
        <pt x="1094" y="1256" on="1"/>
        <pt x="1150" y="1256" on="0"/>
        <pt x="1277" y="1243" on="0"/>
        <pt x="1403" y="1210" on="0"/>
        <pt x="1519" y="1152" on="0"/>
        <pt x="1607" y="1063" on="0"/>
        <pt x="1660" y="939" on="0"/>
        <pt x="1660" y="855" on="1"/>
        <pt x="1660" y="707" on="0"/>
        <pt x="1578" y="505" on="0"/>
        <pt x="1428" y="380" on="0"/>
        <pt x="1216" y="326" on="0"/>
        <pt x="1086" y="326" on="1"/>
        <pt x="806" y="326" on="1"/>
        <pt x="807" y="284" on="0"/>
        <pt x="808" y="231" on="0"/>
        <pt x="807" y="181" on="0"/>
        <pt x="806" y="121" on="0"/>
        <pt x="806" y="73" on="1"/>
        <pt x="806" y="36" on="0"/>
        <pt x="791" y="-6" on="0"/>
        <pt x="762" y="-27" on="0"/>
        <pt x="720" y="-32" on="0"/>
        <pt x="693" y="-32" on="1"/>
        <pt x="622" y="-32" on="0"/>
        <pt x="515" y="-34" on="0"/>
        <pt x="406" y="-36" on="0"/>
        <pt x="277" y="-38" on="0"/>
        <pt x="183" y="-38" on="1"/>
        <pt x="164" y="-38" on="0"/>
        <pt x="142" y="-14" on="0"/>
        <pt x="131" y="23" on="0"/>
        <pt x="128" y="67" on="0"/>
        <pt x="128" y="87" on="1"/>
        <pt x="128" y="128" on="0"/>
        <pt x="125" y="267" on="0"/>
        <pt x="122" y="438" on="0"/>
        <pt x="119" y="629" on="0"/>
        <pt x="118" y="722" on="1"/>
        <pt x="118" y="784" on="1"/>
        <pt x="118" y="820" on="1"/>
      </contour>
      <contour>
        <pt x="822" y="528" on="1"/>
        <pt x="822" y="526" on="0"/>
        <pt x="833" y="524" on="1"/>
        <pt x="841" y="522" on="0"/>
        <pt x="879" y="521" on="0"/>
        <pt x="914" y="521" on="1"/>
        <pt x="937" y="521" on="0"/>
        <pt x="970" y="567" on="0"/>
        <pt x="991" y="638" on="0"/>
        <pt x="1002" y="726" on="0"/>
        <pt x="1007" y="810" on="0"/>
        <pt x="1008" y="881" on="0"/>
        <pt x="1008" y="900" on="1"/>
        <pt x="1008" y="902" on="0"/>
        <pt x="1007" y="928" on="0"/>
        <pt x="999" y="964" on="0"/>
        <pt x="981" y="1005" on="0"/>
        <pt x="949" y="1039" on="0"/>
        <pt x="900" y="1062" on="0"/>
        <pt x="864" y="1062" on="1"/>
        <pt x="856" y="1062" on="0"/>
        <pt x="844" y="1016" on="0"/>
        <pt x="835" y="941" on="0"/>
        <pt x="829" y="845" on="0"/>
        <pt x="827" y="795" on="1"/>
        <pt x="823" y="677" on="0"/>
      </contour>
    </TTGlyph>
    <TTGlyph name="U" xMin="113" yMin="-47" xMax="1699" yMax="1381">
      <contour>
        <pt x="1029" y="72" on="1"/>
        <pt x="977" y="46" on="0"/>
        <pt x="859" y="2" on="0"/>
        <pt x="735" y="-30" on="0"/>
        <pt x="606" y="-47" on="0"/>
        <pt x="543" y="-47" on="1"/>
        <pt x="440" y="-47" on="0"/>
        <pt x="296" y="0" on="0"/>
        <pt x="200" y="85" on="0"/>
        <pt x="146" y="202" on="0"/>
        <pt x="119" y="343" on="0"/>
        <pt x="113" y="502" on="0"/>
        <pt x="113" y="586" on="1"/>
        <pt x="113" y="667" on="0"/>
        <pt x="121" y="832" on="0"/>
        <pt x="132" y="1000" on="0"/>
        <pt x="140" y="1172" on="0"/>
        <pt x="140" y="1260" on="1"/>
        <pt x="140" y="1283" on="0"/>
        <pt x="132" y="1323" on="0"/>
        <pt x="132" y="1346" on="1"/>
        <pt x="132" y="1368" on="0"/>
        <pt x="175" y="1380" on="0"/>
        <pt x="201" y="1380" on="1"/>
        <pt x="261" y="1380" on="0"/>
        <pt x="384" y="1382" on="0"/>
        <pt x="510" y="1379" on="0"/>
        <pt x="639" y="1367" on="0"/>
        <pt x="705" y="1354" on="1"/>
        <pt x="733" y="1346" on="0"/>
        <pt x="768" y="1327" on="0"/>
        <pt x="787" y="1296" on="0"/>
        <pt x="793" y="1245" on="0"/>
        <pt x="793" y="1206" on="1"/>
        <pt x="793" y="1124" on="0"/>
        <pt x="789" y="953" on="0"/>
        <pt x="783" y="761" on="0"/>
        <pt x="779" y="543" on="0"/>
        <pt x="779" y="414" on="1"/>
        <pt x="779" y="339" on="0"/>
        <pt x="790" y="270" on="0"/>
        <pt x="818" y="270" on="1"/>
        <pt x="850" y="270" on="0"/>
        <pt x="912" y="289" on="0"/>
        <pt x="938" y="300" on="1"/>
        <pt x="968" y="313" on="0"/>
        <pt x="996" y="330" on="1"/>
        <pt x="996" y="1153" on="1"/>
        <pt x="992" y="1176" on="0"/>
        <pt x="988" y="1224" on="0"/>
        <pt x="986" y="1265" on="0"/>
        <pt x="986" y="1294" on="0"/>
        <pt x="986" y="1298" on="1"/>
        <pt x="986" y="1317" on="0"/>
        <pt x="991" y="1341" on="0"/>
        <pt x="1008" y="1356" on="0"/>
        <pt x="1040" y="1362" on="0"/>
        <pt x="1068" y="1362" on="1"/>
        <pt x="1089" y="1362" on="0"/>
        <pt x="1174" y="1365" on="0"/>
        <pt x="1268" y="1370" on="0"/>
        <pt x="1352" y="1374" on="0"/>
        <pt x="1371" y="1376" on="1"/>
        <pt x="1375" y="1376" on="0"/>
        <pt x="1416" y="1374" on="0"/>
        <pt x="1440" y="1373" on="1"/>
        <pt x="1467" y="1371" on="0"/>
        <pt x="1502" y="1370" on="1"/>
        <pt x="1572" y="1362" on="0"/>
        <pt x="1651" y="1345" on="0"/>
        <pt x="1690" y="1329" on="0"/>
        <pt x="1699" y="1312" on="0"/>
        <pt x="1699" y="1303" on="1"/>
        <pt x="1699" y="1148" on="0"/>
        <pt x="1691" y="845" on="0"/>
        <pt x="1682" y="544" on="0"/>
        <pt x="1674" y="242" on="0"/>
        <pt x="1674" y="88" on="1"/>
        <pt x="1674" y="46" on="0"/>
        <pt x="1638" y="6" on="0"/>
        <pt x="1598" y="6" on="1"/>
        <pt x="1583" y="6" on="0"/>
        <pt x="1528" y="5" on="0"/>
        <pt x="1459" y="2" on="0"/>
        <pt x="1381" y="-1" on="0"/>
        <pt x="1343" y="-2" on="1"/>
        <pt x="1253" y="-6" on="0"/>
        <pt x="1150" y="-10" on="1"/>
        <pt x="1099" y="-10" on="0"/>
        <pt x="1041" y="28" on="0"/>
      </contour>
    </TTGlyph>
    <TTGlyph name="Uacute" xMin="113" yMin="-47" xMax="1699" yMax="2388">
      <component glyphName="acute" x="524" y="240" flags="0x1004"/>
      <component glyphName="U" x="0" y="0" flags="0x1004"/>
    </TTGlyph>
    <TTGlyph name="Ubreve" xMin="113" yMin="-47" xMax="1699" yMax="2090">
      <component glyphName="U" x="0" y="0" flags="0x1204"/>
      <component glyphName="breve" x="309" y="223" flags="0x1004"/>
    </TTGlyph>
    <TTGlyph name="Ucircumflex" xMin="113" yMin="-47" xMax="1699" yMax="2286">
      <component glyphName="circumflex" x="241" y="240" flags="0x1004"/>
      <component glyphName="U" x="0" y="0" flags="0x1004"/>
    </TTGlyph>
    <TTGlyph name="Udieresis" xMin="113" yMin="-47" xMax="1699" yMax="1906">
      <component glyphName="dieresis" x="259" y="167" flags="0x1004"/>
      <component glyphName="U" x="0" y="0" flags="0x1004"/>
    </TTGlyph>
    <TTGlyph name="Ugrave" xMin="113" yMin="-47" xMax="1699" yMax="2371">
      <component glyphName="U" x="0" y="0" flags="0x1004"/>
      <component glyphName="grave" x="501" y="223" flags="0x1004"/>
    </TTGlyph>
    <TTGlyph name="Uhungarumlaut" xMin="113" yMin="-47" xMax="1699" yMax="2371">
      <component glyphName="U" x="0" y="0" flags="0x1204"/>
      <component glyphName="hungarumlaut" x="2" y="223" flags="0x1004"/>
    </TTGlyph>
    <TTGlyph name="Umacron" xMin="113" yMin="-47" xMax="1699" yMax="2049">
      <component glyphName="U" x="0" y="0" flags="0x1204"/>
      <component glyphName="macron" x="359" y="223" flags="0x1004"/>
    </TTGlyph>
    <TTGlyph name="Uogonek" xMin="113" yMin="-565" xMax="1699" yMax="1381">
      <component glyphName="U" x="0" y="0" flags="0x1204"/>
      <component glyphName="ogonek" x="884" y="0" flags="0x1004"/>
    </TTGlyph>
    <TTGlyph name="Uring" xMin="113" yMin="-47" xMax="1699" yMax="2365">
      <component glyphName="U" x="0" y="0" flags="0x1204"/>
      <component glyphName="ring" x="360" y="223" flags="0x1004"/>
    </TTGlyph>
    <TTGlyph name="Utilde" xMin="113" yMin="-47" xMax="1699" yMax="2089">
      <component glyphName="U" x="0" y="0" flags="0x1204"/>
      <component glyphName="tilde" x="231" y="223" flags="0x1004"/>
    </TTGlyph>
    <TTGlyph name="V" xMin="112" yMin="0" xMax="1768" yMax="1376">
      <contour>
        <pt x="1288" y="10" on="1"/>
        <pt x="1098" y="2" on="0"/>
        <pt x="719" y="0" on="0"/>
        <pt x="543" y="0" on="1"/>
        <pt x="514" y="0" on="0"/>
        <pt x="458" y="12" on="0"/>
        <pt x="432" y="12" on="1"/>
        <pt x="426" y="12" on="0"/>
        <pt x="419" y="10" on="0"/>
        <pt x="414" y="10" on="1"/>
        <pt x="407" y="13" on="0"/>
        <pt x="393" y="28" on="0"/>
        <pt x="393" y="33" on="1"/>
        <pt x="250" y="680" on="1"/>
        <pt x="218" y="804" on="0"/>
        <pt x="157" y="1064" on="0"/>
        <pt x="131" y="1188" on="1"/>
        <pt x="129" y="1202" on="0"/>
        <pt x="115" y="1264" on="0"/>
        <pt x="110" y="1328" on="0"/>
        <pt x="123" y="1376" on="0"/>
        <pt x="147" y="1376" on="1"/>
        <pt x="155" y="1376" on="0"/>
        <pt x="195" y="1376" on="0"/>
        <pt x="246" y="1375" on="0"/>
        <pt x="302" y="1374" on="0"/>
        <pt x="350" y="1373" on="0"/>
        <pt x="381" y="1372" on="0"/>
        <pt x="383" y="1372" on="1"/>
        <pt x="573" y="1372" on="1"/>
        <pt x="573" y="1371" on="0"/>
        <pt x="583" y="1367" on="1"/>
        <pt x="587" y="1365" on="0"/>
        <pt x="594" y="1364" on="1"/>
        <pt x="602" y="1364" on="0"/>
        <pt x="610" y="1372" on="0"/>
        <pt x="622" y="1372" on="1"/>
        <pt x="629" y="1372" on="1"/>
        <pt x="630" y="1372" on="0"/>
        <pt x="671" y="1369" on="0"/>
        <pt x="730" y="1366" on="0"/>
        <pt x="797" y="1364" on="0"/>
        <pt x="823" y="1364" on="1"/>
        <pt x="834" y="1346" on="0"/>
        <pt x="854" y="1268" on="0"/>
        <pt x="876" y="1162" on="0"/>
        <pt x="900" y="1034" on="0"/>
        <pt x="915" y="967" on="1"/>
        <pt x="915" y="965" on="0"/>
        <pt x="927" y="904" on="0"/>
        <pt x="945" y="815" on="0"/>
        <pt x="965" y="712" on="0"/>
        <pt x="983" y="623" on="0"/>
        <pt x="995" y="564" on="0"/>
        <pt x="995" y="563" on="1"/>
        <pt x="995" y="559" on="0"/>
        <pt x="996" y="555" on="1"/>
        <pt x="997" y="551" on="0"/>
        <pt x="999" y="539" on="0"/>
        <pt x="1001" y="532" on="1"/>
        <pt x="1003" y="539" on="0"/>
        <pt x="1004" y="551" on="0"/>
        <pt x="1005" y="555" on="1"/>
        <pt x="1006" y="559" on="0"/>
        <pt x="1007" y="563" on="1"/>
        <pt x="1007" y="564" on="0"/>
        <pt x="1019" y="623" on="0"/>
        <pt x="1037" y="712" on="0"/>
        <pt x="1057" y="815" on="0"/>
        <pt x="1075" y="904" on="0"/>
        <pt x="1087" y="965" on="0"/>
        <pt x="1087" y="967" on="1"/>
        <pt x="1102" y="1034" on="0"/>
        <pt x="1126" y="1162" on="0"/>
        <pt x="1148" y="1268" on="0"/>
        <pt x="1168" y="1346" on="0"/>
        <pt x="1179" y="1364" on="1"/>
        <pt x="1199" y="1364" on="0"/>
        <pt x="1252" y="1366" on="0"/>
        <pt x="1299" y="1369" on="0"/>
        <pt x="1332" y="1372" on="0"/>
        <pt x="1333" y="1372" on="1"/>
        <pt x="1339" y="1372" on="1"/>
        <pt x="1342" y="1372" on="0"/>
        <pt x="1345" y="1364" on="0"/>
        <pt x="1347" y="1364" on="1"/>
        <pt x="1363" y="1364" on="0"/>
        <pt x="1368" y="1370" on="0"/>
        <pt x="1368" y="1372" on="1"/>
        <pt x="1497" y="1372" on="1"/>
        <pt x="1498" y="1373" on="0"/>
        <pt x="1530" y="1373" on="0"/>
        <pt x="1578" y="1374" on="0"/>
        <pt x="1633" y="1375" on="0"/>
        <pt x="1685" y="1376" on="0"/>
        <pt x="1724" y="1376" on="0"/>
        <pt x="1732" y="1376" on="1"/>
        <pt x="1757" y="1376" on="0"/>
        <pt x="1770" y="1328" on="0"/>
        <pt x="1766" y="1264" on="0"/>
        <pt x="1752" y="1202" on="0"/>
        <pt x="1749" y="1188" on="1"/>
        <pt x="1723" y="1064" on="0"/>
        <pt x="1662" y="804" on="0"/>
        <pt x="1630" y="680" on="1"/>
        <pt x="1487" y="33" on="1"/>
        <pt x="1487" y="28" on="0"/>
        <pt x="1472" y="13" on="0"/>
        <pt x="1466" y="10" on="1"/>
        <pt x="1461" y="10" on="0"/>
        <pt x="1454" y="12" on="0"/>
        <pt x="1448" y="12" on="1"/>
        <pt x="1435" y="12" on="0"/>
        <pt x="1411" y="0" on="0"/>
        <pt x="1399" y="0" on="1"/>
        <pt x="1370" y="0" on="0"/>
        <pt x="1317" y="10" on="0"/>
      </contour>
    </TTGlyph>
    <TTGlyph name="W" xMin="98" yMin="-2" xMax="2304" yMax="1376">
      <contour>
        <pt x="1474" y="10" on="1"/>
        <pt x="1445" y="10" on="0"/>
        <pt x="1384" y="12" on="0"/>
        <pt x="1356" y="12" on="1"/>
        <pt x="1337" y="10" on="1"/>
        <pt x="1322" y="13" on="0"/>
        <pt x="1317" y="28" on="0"/>
        <pt x="1317" y="33" on="1"/>
        <pt x="1179" y="709" on="1"/>
        <pt x="1044" y="33" on="1"/>
        <pt x="1039" y="12" on="0"/>
        <pt x="1000" y="0" on="0"/>
        <pt x="977" y="0" on="1"/>
        <pt x="924" y="0" on="0"/>
        <pt x="841" y="-2" on="0"/>
        <pt x="788" y="-2" on="1"/>
        <pt x="733" y="-2" on="0"/>
        <pt x="656" y="-1" on="0"/>
        <pt x="588" y="-1" on="0"/>
        <pt x="518" y="0" on="0"/>
        <pt x="469" y="0" on="1"/>
        <pt x="452" y="0" on="0"/>
        <pt x="416" y="12" on="0"/>
        <pt x="399" y="12" on="1"/>
        <pt x="381" y="10" on="1"/>
        <pt x="365" y="13" on="0"/>
        <pt x="360" y="28" on="0"/>
        <pt x="360" y="33" on="1"/>
        <pt x="217" y="680" on="1"/>
        <pt x="192" y="804" on="0"/>
        <pt x="140" y="1064" on="0"/>
        <pt x="119" y="1188" on="1"/>
        <pt x="111" y="1195" on="0"/>
        <pt x="103" y="1224" on="0"/>
        <pt x="99" y="1260" on="0"/>
        <pt x="98" y="1298" on="0"/>
        <pt x="98" y="1315" on="1"/>
        <pt x="98" y="1341" on="0"/>
        <pt x="113" y="1376" on="0"/>
        <pt x="135" y="1376" on="1"/>
        <pt x="143" y="1376" on="0"/>
        <pt x="183" y="1376" on="0"/>
        <pt x="234" y="1375" on="0"/>
        <pt x="290" y="1374" on="0"/>
        <pt x="337" y="1373" on="0"/>
        <pt x="368" y="1372" on="0"/>
        <pt x="370" y="1372" on="1"/>
        <pt x="459" y="1372" on="1"/>
        <pt x="467" y="1371" on="0"/>
        <pt x="474" y="1369" on="0"/>
        <pt x="476" y="1367" on="1"/>
        <pt x="479" y="1364" on="1"/>
        <pt x="484" y="1364" on="0"/>
        <pt x="497" y="1372" on="0"/>
        <pt x="508" y="1372" on="1"/>
        <pt x="514" y="1372" on="1"/>
        <pt x="515" y="1372" on="0"/>
        <pt x="548" y="1369" on="0"/>
        <pt x="595" y="1366" on="0"/>
        <pt x="647" y="1364" on="0"/>
        <pt x="667" y="1364" on="1"/>
        <pt x="678" y="1344" on="0"/>
        <pt x="699" y="1259" on="0"/>
        <pt x="721" y="1142" on="0"/>
        <pt x="745" y="1001" on="0"/>
        <pt x="760" y="926" on="1"/>
        <pt x="760" y="924" on="0"/>
        <pt x="766" y="891" on="0"/>
        <pt x="774" y="843" on="0"/>
        <pt x="784" y="787" on="0"/>
        <pt x="792" y="740" on="0"/>
        <pt x="798" y="708" on="0"/>
        <pt x="798" y="707" on="1"/>
        <pt x="799" y="702" on="0"/>
        <pt x="800" y="698" on="1"/>
        <pt x="801" y="693" on="0"/>
        <pt x="803" y="683" on="0"/>
        <pt x="805" y="676" on="1"/>
        <pt x="807" y="683" on="0"/>
        <pt x="808" y="693" on="0"/>
        <pt x="809" y="698" on="1"/>
        <pt x="810" y="702" on="0"/>
        <pt x="811" y="707" on="1"/>
        <pt x="811" y="708" on="0"/>
        <pt x="817" y="740" on="0"/>
        <pt x="825" y="787" on="0"/>
        <pt x="836" y="843" on="0"/>
        <pt x="844" y="891" on="0"/>
        <pt x="850" y="924" on="0"/>
        <pt x="850" y="926" on="1"/>
        <pt x="879" y="1077" on="0"/>
        <pt x="918" y="1266" on="0"/>
        <pt x="933" y="1320" on="1"/>
        <pt x="936" y="1332" on="0"/>
        <pt x="945" y="1353" on="0"/>
        <pt x="967" y="1368" on="0"/>
        <pt x="1011" y="1376" on="0"/>
        <pt x="1050" y="1376" on="1"/>
        <pt x="1059" y="1376" on="0"/>
        <pt x="1112" y="1376" on="0"/>
        <pt x="1176" y="1376" on="0"/>
        <pt x="1239" y="1375" on="0"/>
        <pt x="1259" y="1374" on="1"/>
        <pt x="1261" y="1374" on="0"/>
        <pt x="1268" y="1376" on="0"/>
        <pt x="1270" y="1376" on="1"/>
        <pt x="1276" y="1376" on="0"/>
        <pt x="1286" y="1374" on="0"/>
        <pt x="1286" y="1372" on="1"/>
        <pt x="1342" y="1371" on="0"/>
        <pt x="1402" y="1369" on="0"/>
        <pt x="1416" y="1367" on="1"/>
        <pt x="1433" y="1365" on="0"/>
        <pt x="1435" y="1364" on="1"/>
        <pt x="1440" y="1364" on="0"/>
        <pt x="1455" y="1372" on="0"/>
        <pt x="1470" y="1372" on="1"/>
        <pt x="1471" y="1372" on="0"/>
        <pt x="1494" y="1373" on="0"/>
        <pt x="1521" y="1373" on="0"/>
        <pt x="1544" y="1369" on="0"/>
        <pt x="1546" y="1363" on="1"/>
        <pt x="1553" y="1340" on="0"/>
        <pt x="1566" y="1261" on="0"/>
        <pt x="1580" y="1158" on="0"/>
        <pt x="1599" y="1034" on="0"/>
        <pt x="1614" y="967" on="1"/>
        <pt x="1614" y="965" on="0"/>
        <pt x="1620" y="922" on="0"/>
        <pt x="1628" y="860" on="0"/>
        <pt x="1638" y="789" on="0"/>
        <pt x="1646" y="728" on="0"/>
        <pt x="1652" y="687" on="0"/>
        <pt x="1652" y="686" on="1"/>
        <pt x="1653" y="682" on="0"/>
        <pt x="1654" y="678" on="1"/>
        <pt x="1655" y="674" on="0"/>
        <pt x="1657" y="662" on="0"/>
        <pt x="1659" y="655" on="1"/>
        <pt x="1661" y="662" on="0"/>
        <pt x="1662" y="674" on="0"/>
        <pt x="1663" y="678" on="1"/>
        <pt x="1664" y="682" on="0"/>
        <pt x="1665" y="686" on="1"/>
        <pt x="1665" y="687" on="0"/>
        <pt x="1671" y="728" on="0"/>
        <pt x="1679" y="789" on="0"/>
        <pt x="1690" y="860" on="0"/>
        <pt x="1698" y="922" on="0"/>
        <pt x="1704" y="965" on="0"/>
        <pt x="1704" y="967" on="1"/>
        <pt x="1719" y="1034" on="0"/>
        <pt x="1743" y="1162" on="0"/>
        <pt x="1765" y="1268" on="0"/>
        <pt x="1785" y="1346" on="0"/>
        <pt x="1796" y="1364" on="1"/>
        <pt x="1808" y="1364" on="0"/>
        <pt x="1840" y="1366" on="0"/>
        <pt x="1854" y="1368" on="1"/>
        <pt x="1871" y="1370" on="0"/>
        <pt x="1888" y="1372" on="1"/>
        <pt x="1894" y="1372" on="1"/>
        <pt x="1897" y="1372" on="0"/>
        <pt x="1900" y="1364" on="0"/>
        <pt x="1902" y="1364" on="1"/>
        <pt x="1918" y="1364" on="0"/>
        <pt x="1923" y="1370" on="0"/>
        <pt x="1923" y="1372" on="1"/>
        <pt x="2031" y="1372" on="1"/>
        <pt x="2031" y="1373" on="0"/>
        <pt x="2062" y="1373" on="0"/>
        <pt x="2109" y="1374" on="0"/>
        <pt x="2166" y="1375" on="0"/>
        <pt x="2218" y="1376" on="0"/>
        <pt x="2259" y="1376" on="0"/>
        <pt x="2267" y="1376" on="1"/>
        <pt x="2287" y="1376" on="0"/>
        <pt x="2304" y="1340" on="0"/>
        <pt x="2304" y="1315" on="1"/>
        <pt x="2296" y="1297" on="0"/>
        <pt x="2288" y="1259" on="0"/>
        <pt x="2284" y="1224" on="0"/>
        <pt x="2283" y="1195" on="0"/>
        <pt x="2283" y="1188" on="1"/>
        <pt x="2254" y="1051" on="0"/>
        <pt x="2182" y="756" on="0"/>
        <pt x="2144" y="618" on="1"/>
        <pt x="2001" y="33" on="1"/>
        <pt x="1985" y="28" on="0"/>
        <pt x="1980" y="13" on="0"/>
        <pt x="1980" y="10" on="1"/>
        <pt x="1962" y="12" on="1"/>
        <pt x="1948" y="12" on="0"/>
        <pt x="1927" y="9" on="0"/>
        <pt x="1913" y="9" on="1"/>
        <pt x="1868" y="9" on="0"/>
        <pt x="1751" y="9" on="0"/>
        <pt x="1631" y="10" on="0"/>
        <pt x="1517" y="10" on="0"/>
      </contour>
    </TTGlyph>
    <TTGlyph name="Wcircumflex" xMin="98" yMin="-2" xMax="2304" yMax="2269">
      <component glyphName="W" x="0" y="0" flags="0x1204"/>
      <component glyphName="circumflex" x="557" y="223" flags="0x1004"/>
    </TTGlyph>
    <TTGlyph name="X" xMin="102" yMin="-12" xMax="1769" yMax="1391">
      <contour>
        <pt x="809" y="115" on="1"/>
        <pt x="768" y="47" on="1"/>
        <pt x="719" y="2" on="1"/>
        <pt x="719" y="3" on="0"/>
        <pt x="712" y="5" on="0"/>
        <pt x="708" y="6" on="1"/>
        <pt x="698" y="8" on="1"/>
        <pt x="697" y="8" on="0"/>
        <pt x="681" y="1" on="0"/>
        <pt x="659" y="-8" on="0"/>
        <pt x="637" y="-14" on="0"/>
        <pt x="631" y="-12" on="1"/>
        <pt x="617" y="-9" on="0"/>
        <pt x="557" y="-6" on="0"/>
        <pt x="477" y="-4" on="0"/>
        <pt x="384" y="-4" on="0"/>
        <pt x="291" y="-2" on="0"/>
        <pt x="204" y="3" on="0"/>
        <pt x="170" y="8" on="1"/>
        <pt x="162" y="8" on="1"/>
        <pt x="153" y="8" on="0"/>
        <pt x="145" y="16" on="0"/>
        <pt x="143" y="27" on="0"/>
        <pt x="145" y="40" on="0"/>
        <pt x="145" y="45" on="1"/>
        <pt x="145" y="56" on="0"/>
        <pt x="163" y="103" on="0"/>
        <pt x="191" y="162" on="0"/>
        <pt x="227" y="228" on="0"/>
        <pt x="261" y="288" on="0"/>
        <pt x="292" y="338" on="0"/>
        <pt x="301" y="352" on="1"/>
        <pt x="307" y="361" on="0"/>
        <pt x="329" y="402" on="0"/>
        <pt x="357" y="458" on="0"/>
        <pt x="390" y="523" on="0"/>
        <pt x="406" y="555" on="1"/>
        <pt x="444" y="631" on="0"/>
        <pt x="487" y="721" on="1"/>
        <pt x="466" y="756" on="1"/>
        <pt x="457" y="771" on="0"/>
        <pt x="436" y="808" on="0"/>
        <pt x="426" y="827" on="1"/>
        <pt x="423" y="830" on="0"/>
        <pt x="387" y="886" on="0"/>
        <pt x="338" y="967" on="0"/>
        <pt x="281" y="1059" on="0"/>
        <pt x="231" y="1140" on="0"/>
        <pt x="197" y="1195" on="0"/>
        <pt x="194" y="1198" on="1"/>
        <pt x="185" y="1211" on="0"/>
        <pt x="154" y="1256" on="0"/>
        <pt x="124" y="1308" on="0"/>
        <pt x="102" y="1361" on="0"/>
        <pt x="102" y="1382" on="1"/>
        <pt x="117" y="1384" on="0"/>
        <pt x="129" y="1386" on="1"/>
        <pt x="140" y="1388" on="0"/>
        <pt x="157" y="1390" on="0"/>
        <pt x="157" y="1391" on="1"/>
        <pt x="159" y="1391" on="0"/>
        <pt x="206" y="1389" on="0"/>
        <pt x="281" y="1386" on="0"/>
        <pt x="377" y="1382" on="0"/>
        <pt x="476" y="1377" on="0"/>
        <pt x="572" y="1373" on="0"/>
        <pt x="648" y="1370" on="0"/>
        <pt x="696" y="1368" on="0"/>
        <pt x="698" y="1368" on="1"/>
        <pt x="706" y="1368" on="0"/>
        <pt x="742" y="1324" on="0"/>
        <pt x="787" y="1256" on="0"/>
        <pt x="836" y="1176" on="0"/>
        <pt x="877" y="1105" on="0"/>
        <pt x="905" y="1054" on="0"/>
        <pt x="907" y="1049" on="1"/>
        <pt x="907" y="1043" on="0"/>
        <pt x="913" y="1029" on="0"/>
        <pt x="920" y="1017" on="0"/>
        <pt x="927" y="1008" on="0"/>
        <pt x="928" y="1008" on="1"/>
        <pt x="934" y="1013" on="0"/>
        <pt x="940" y="1019" on="1"/>
        <pt x="945" y="1024" on="0"/>
        <pt x="958" y="1039" on="0"/>
        <pt x="964" y="1049" on="1"/>
        <pt x="966" y="1054" on="0"/>
        <pt x="995" y="1105" on="0"/>
        <pt x="1036" y="1176" on="0"/>
        <pt x="1085" y="1256" on="0"/>
        <pt x="1130" y="1324" on="0"/>
        <pt x="1165" y="1368" on="0"/>
        <pt x="1173" y="1368" on="1"/>
        <pt x="1176" y="1368" on="0"/>
        <pt x="1258" y="1371" on="0"/>
        <pt x="1377" y="1377" on="0"/>
        <pt x="1514" y="1382" on="0"/>
        <pt x="1632" y="1388" on="0"/>
        <pt x="1712" y="1391" on="0"/>
        <pt x="1714" y="1391" on="1"/>
        <pt x="1714" y="1390" on="0"/>
        <pt x="1730" y="1388" on="0"/>
        <pt x="1741" y="1386" on="1"/>
        <pt x="1769" y="1382" on="1"/>
        <pt x="1769" y="1363" on="0"/>
        <pt x="1747" y="1315" on="0"/>
        <pt x="1717" y="1269" on="0"/>
        <pt x="1686" y="1229" on="0"/>
        <pt x="1677" y="1219" on="1"/>
        <pt x="1674" y="1216" on="0"/>
        <pt x="1640" y="1157" on="0"/>
        <pt x="1591" y="1072" on="0"/>
        <pt x="1534" y="974" on="0"/>
        <pt x="1484" y="889" on="0"/>
        <pt x="1449" y="830" on="0"/>
        <pt x="1446" y="827" on="1"/>
        <pt x="1433" y="808" on="0"/>
        <pt x="1405" y="771" on="0"/>
        <pt x="1393" y="756" on="1"/>
        <pt x="1379" y="738" on="0"/>
        <pt x="1364" y="721" on="1"/>
        <pt x="1398" y="657" on="0"/>
        <pt x="1428" y="602" on="1"/>
        <pt x="1441" y="579" on="0"/>
        <pt x="1466" y="532" on="0"/>
        <pt x="1489" y="491" on="0"/>
        <pt x="1506" y="460" on="0"/>
        <pt x="1511" y="453" on="1"/>
        <pt x="1523" y="433" on="0"/>
        <pt x="1564" y="363" on="0"/>
        <pt x="1612" y="278" on="0"/>
        <pt x="1661" y="186" on="0"/>
        <pt x="1701" y="104" on="0"/>
        <pt x="1726" y="40" on="0"/>
        <pt x="1726" y="25" on="1"/>
        <pt x="1726" y="20" on="0"/>
        <pt x="1728" y="7" on="0"/>
        <pt x="1726" y="-4" on="0"/>
        <pt x="1719" y="-12" on="0"/>
        <pt x="1710" y="-12" on="1"/>
        <pt x="1702" y="-12" on="1"/>
        <pt x="1670" y="-12" on="0"/>
        <pt x="1587" y="-10" on="0"/>
        <pt x="1498" y="-8" on="0"/>
        <pt x="1409" y="-6" on="0"/>
        <pt x="1332" y="-6" on="0"/>
        <pt x="1274" y="-9" on="0"/>
        <pt x="1261" y="-12" on="1"/>
        <pt x="1255" y="-14" on="0"/>
        <pt x="1233" y="-8" on="0"/>
        <pt x="1211" y="1" on="0"/>
        <pt x="1195" y="8" on="0"/>
        <pt x="1194" y="8" on="1"/>
        <pt x="1192" y="8" on="0"/>
        <pt x="1173" y="4" on="0"/>
        <pt x="1171" y="2" on="1"/>
        <pt x="1124" y="47" on="1"/>
        <pt x="1124" y="63" on="1"/>
        <pt x="1124" y="66" on="0"/>
        <pt x="1121" y="66" on="0"/>
        <pt x="1115" y="65" on="0"/>
        <pt x="1107" y="66" on="0"/>
        <pt x="1102" y="72" on="1"/>
        <pt x="999" y="256" on="1"/>
        <pt x="994" y="267" on="0"/>
        <pt x="975" y="305" on="0"/>
        <pt x="953" y="342" on="0"/>
        <pt x="933" y="369" on="0"/>
        <pt x="928" y="369" on="1"/>
        <pt x="872" y="256" on="1"/>
      </contour>
    </TTGlyph>
    <TTGlyph name="Y" xMin="58" yMin="-195" xMax="1623" yMax="1436">
      <contour>
        <pt x="939" y="-182" on="1"/>
        <pt x="933" y="-182" on="0"/>
        <pt x="925" y="-186" on="0"/>
        <pt x="923" y="-186" on="1"/>
        <pt x="918" y="-186" on="0"/>
        <pt x="912" y="-180" on="0"/>
        <pt x="906" y="-168" on="1"/>
        <pt x="855" y="-162" on="0"/>
        <pt x="773" y="-138" on="0"/>
        <pt x="742" y="-129" on="1"/>
        <pt x="740" y="-128" on="0"/>
        <pt x="725" y="-126" on="0"/>
        <pt x="706" y="-124" on="0"/>
        <pt x="689" y="-122" on="0"/>
        <pt x="687" y="-121" on="1"/>
        <pt x="670" y="-117" on="0"/>
        <pt x="611" y="-99" on="0"/>
        <pt x="542" y="-75" on="0"/>
        <pt x="472" y="-48" on="0"/>
        <pt x="414" y="-21" on="0"/>
        <pt x="378" y="4" on="0"/>
        <pt x="378" y="14" on="1"/>
        <pt x="378" y="33" on="0"/>
        <pt x="389" y="76" on="0"/>
        <pt x="406" y="118" on="0"/>
        <pt x="426" y="160" on="0"/>
        <pt x="435" y="178" on="1"/>
        <pt x="443" y="196" on="0"/>
        <pt x="472" y="240" on="0"/>
        <pt x="500" y="286" on="0"/>
        <pt x="521" y="330" on="0"/>
        <pt x="521" y="348" on="1"/>
        <pt x="521" y="368" on="0"/>
        <pt x="500" y="397" on="0"/>
        <pt x="475" y="424" on="0"/>
        <pt x="454" y="452" on="0"/>
        <pt x="454" y="471" on="1"/>
        <pt x="447" y="471" on="0"/>
        <pt x="445" y="469" on="0"/>
        <pt x="443" y="469" on="1"/>
        <pt x="441" y="469" on="0"/>
        <pt x="438" y="471" on="0"/>
        <pt x="435" y="477" on="1"/>
        <pt x="408" y="512" on="0"/>
        <pt x="339" y="615" on="0"/>
        <pt x="265" y="734" on="0"/>
        <pt x="193" y="862" on="0"/>
        <pt x="163" y="922" on="1"/>
        <pt x="156" y="935" on="0"/>
        <pt x="135" y="980" on="0"/>
        <pt x="112" y="1035" on="0"/>
        <pt x="89" y="1095" on="0"/>
        <pt x="70" y="1149" on="0"/>
        <pt x="58" y="1193" on="0"/>
        <pt x="58" y="1204" on="1"/>
        <pt x="58" y="1217" on="0"/>
        <pt x="83" y="1244" on="0"/>
        <pt x="121" y="1270" on="0"/>
        <pt x="165" y="1292" on="0"/>
        <pt x="183" y="1300" on="1"/>
        <pt x="208" y="1303" on="0"/>
        <pt x="251" y="1316" on="0"/>
        <pt x="284" y="1329" on="0"/>
        <pt x="308" y="1339" on="0"/>
        <pt x="316" y="1339" on="1"/>
        <pt x="324" y="1339" on="0"/>
        <pt x="380" y="1351" on="0"/>
        <pt x="454" y="1369" on="0"/>
        <pt x="535" y="1392" on="0"/>
        <pt x="568" y="1403" on="1"/>
        <pt x="571" y="1403" on="0"/>
        <pt x="574" y="1404" on="1"/>
        <pt x="576" y="1404" on="0"/>
        <pt x="581" y="1405" on="0"/>
        <pt x="583" y="1405" on="1"/>
        <pt x="603" y="1405" on="0"/>
        <pt x="631" y="1394" on="0"/>
        <pt x="652" y="1373" on="0"/>
        <pt x="670" y="1343" on="0"/>
        <pt x="679" y="1325" on="1"/>
        <pt x="685" y="1314" on="0"/>
        <pt x="703" y="1289" on="0"/>
        <pt x="722" y="1265" on="0"/>
        <pt x="738" y="1245" on="0"/>
        <pt x="742" y="1239" on="1"/>
        <pt x="757" y="1217" on="0"/>
        <pt x="799" y="1144" on="0"/>
        <pt x="841" y="1075" on="0"/>
        <pt x="878" y="1024" on="0"/>
        <pt x="890" y="1024" on="1"/>
        <pt x="897" y="1024" on="0"/>
        <pt x="924" y="1068" on="0"/>
        <pt x="958" y="1136" on="0"/>
        <pt x="995" y="1219" on="0"/>
        <pt x="1029" y="1296" on="0"/>
        <pt x="1056" y="1358" on="0"/>
        <pt x="1062" y="1372" on="1"/>
        <pt x="1066" y="1386" on="0"/>
        <pt x="1074" y="1409" on="0"/>
        <pt x="1085" y="1426" on="0"/>
        <pt x="1104" y="1436" on="0"/>
        <pt x="1119" y="1436" on="1"/>
        <pt x="1151" y="1436" on="0"/>
        <pt x="1241" y="1420" on="0"/>
        <pt x="1340" y="1391" on="0"/>
        <pt x="1443" y="1351" on="0"/>
        <pt x="1533" y="1306" on="0"/>
        <pt x="1604" y="1256" on="0"/>
        <pt x="1623" y="1231" on="1"/>
        <pt x="1623" y="1202" on="0"/>
        <pt x="1609" y="1150" on="0"/>
        <pt x="1598" y="1128" on="1"/>
        <pt x="1502" y="918" on="0"/>
        <pt x="1317" y="503" on="0"/>
        <pt x="1222" y="295" on="1"/>
        <pt x="1220" y="293" on="0"/>
        <pt x="1213" y="291" on="0"/>
        <pt x="1211" y="289" on="1"/>
        <pt x="1149" y="168" on="0"/>
        <pt x="1025" y="-68" on="0"/>
        <pt x="963" y="-186" on="1"/>
        <pt x="960" y="-193" on="0"/>
        <pt x="945" y="-195" on="0"/>
        <pt x="939" y="-195" on="1"/>
      </contour>
    </TTGlyph>
    <TTGlyph name="Yacute" xMin="58" yMin="-195" xMax="1623" yMax="2401">
      <component glyphName="acute" x="578" y="253" flags="0x1004"/>
      <component glyphName="Y" x="0" y="0" flags="0x1004"/>
    </TTGlyph>
    <TTGlyph name="Ycircumflex" xMin="58" yMin="-195" xMax="1623" yMax="2269">
      <component glyphName="Y" x="0" y="0" flags="0x1204"/>
      <component glyphName="circumflex" x="198" y="223" flags="0x1004"/>
    </TTGlyph>
    <TTGlyph name="Ydieresis" xMin="58" yMin="-195" xMax="1623" yMax="1962">
      <component glyphName="Y" x="0" y="0" flags="0x1004"/>
      <component glyphName="dieresis" x="195" y="223" flags="0x1004"/>
    </TTGlyph>
    <TTGlyph name="Z" xMin="111" yMin="0" xMax="1322" yMax="1380">
      <contour>
        <pt x="146" y="434" on="1"/>
        <pt x="269" y="556" on="0"/>
        <pt x="367" y="659" on="1"/>
        <pt x="409" y="702" on="0"/>
        <pt x="488" y="790" on="0"/>
        <pt x="551" y="864" on="0"/>
        <pt x="589" y="920" on="0"/>
        <pt x="589" y="932" on="1"/>
        <pt x="589" y="940" on="0"/>
        <pt x="578" y="940" on="1"/>
        <pt x="189" y="946" on="1"/>
        <pt x="170" y="946" on="0"/>
        <pt x="143" y="973" on="0"/>
        <pt x="125" y="1016" on="0"/>
        <pt x="116" y="1071" on="0"/>
        <pt x="112" y="1126" on="0"/>
        <pt x="111" y="1177" on="0"/>
        <pt x="111" y="1196" on="1"/>
        <pt x="111" y="1204" on="0"/>
        <pt x="113" y="1251" on="0"/>
        <pt x="115" y="1301" on="0"/>
        <pt x="117" y="1340" on="0"/>
        <pt x="117" y="1341" on="1"/>
        <pt x="128" y="1352" on="1"/>
        <pt x="142" y="1366" on="0"/>
        <pt x="169" y="1366" on="1"/>
        <pt x="181" y="1366" on="0"/>
        <pt x="207" y="1362" on="0"/>
        <pt x="218" y="1362" on="1"/>
        <pt x="293" y="1362" on="0"/>
        <pt x="442" y="1374" on="0"/>
        <pt x="517" y="1374" on="1"/>
        <pt x="665" y="1374" on="0"/>
        <pt x="952" y="1380" on="0"/>
        <pt x="1105" y="1380" on="1"/>
        <pt x="1174" y="1380" on="0"/>
        <pt x="1259" y="1372" on="0"/>
        <pt x="1306" y="1360" on="0"/>
        <pt x="1322" y="1344" on="0"/>
        <pt x="1322" y="1335" on="1"/>
        <pt x="1322" y="1008" on="1"/>
        <pt x="1322" y="984" on="0"/>
        <pt x="1293" y="904" on="0"/>
        <pt x="1202" y="767" on="0"/>
        <pt x="1030" y="563" on="0"/>
        <pt x="888" y="416" on="1"/>
        <pt x="955" y="416" on="0"/>
        <pt x="1022" y="417" on="1"/>
        <pt x="1079" y="417" on="0"/>
        <pt x="1207" y="418" on="0"/>
        <pt x="1260" y="418" on="1"/>
        <pt x="1280" y="418" on="0"/>
        <pt x="1311" y="389" on="0"/>
        <pt x="1311" y="377" on="1"/>
        <pt x="1311" y="45" on="1"/>
        <pt x="1311" y="40" on="0"/>
        <pt x="1307" y="24" on="0"/>
        <pt x="1280" y="10" on="0"/>
        <pt x="1222" y="0" on="0"/>
        <pt x="1168" y="0" on="1"/>
        <pt x="808" y="0" on="1"/>
        <pt x="722" y="0" on="0"/>
        <pt x="574" y="1" on="0"/>
        <pt x="431" y="3" on="0"/>
        <pt x="284" y="4" on="0"/>
        <pt x="199" y="4" on="1"/>
        <pt x="190" y="4" on="0"/>
        <pt x="171" y="14" on="0"/>
        <pt x="156" y="29" on="0"/>
        <pt x="146" y="48" on="0"/>
        <pt x="146" y="57" on="1"/>
      </contour>
    </TTGlyph>
    <TTGlyph name="Zacute" xMin="111" yMin="0" xMax="1322" yMax="2371">
      <component glyphName="Z" x="0" y="0" flags="0x1204"/>
      <component glyphName="acute" x="256" y="223" flags="0x1004"/>
    </TTGlyph>
    <TTGlyph name="Zcaron" xMin="111" yMin="0" xMax="1322" yMax="2289">
      <component glyphName="Z" x="0" y="0" flags="0x1004"/>
      <component glyphName="caron" x="74" y="243" flags="0x1004"/>
    </TTGlyph>
    <TTGlyph name="Zdotaccent" xMin="111" yMin="0" xMax="1322" yMax="2003">
      <component glyphName="Z" x="0" y="0" flags="0x1204"/>
      <component glyphName="dotaccent" x="338" y="223" flags="0x1004"/>
    </TTGlyph>
    <TTGlyph name="a" xMin="108" yMin="-2" xMax="1546" yMax="1178">
      <contour>
        <pt x="631" y="1167" on="1"/>
        <pt x="667" y="1167" on="0"/>
        <pt x="718" y="1169" on="0"/>
        <pt x="758" y="1171" on="0"/>
        <pt x="793" y="1174" on="0"/>
        <pt x="836" y="1176" on="0"/>
        <pt x="893" y="1178" on="0"/>
        <pt x="934" y="1178" on="1"/>
        <pt x="941" y="1178" on="0"/>
        <pt x="982" y="1177" on="0"/>
        <pt x="1036" y="1175" on="0"/>
        <pt x="1098" y="1174" on="0"/>
        <pt x="1153" y="1172" on="0"/>
        <pt x="1196" y="1171" on="0"/>
        <pt x="1204" y="1171" on="1"/>
        <pt x="1216" y="1171" on="0"/>
        <pt x="1235" y="1163" on="0"/>
        <pt x="1247" y="1163" on="1"/>
        <pt x="1263" y="1163" on="1"/>
        <pt x="1270" y="1161" on="0"/>
        <pt x="1280" y="1148" on="0"/>
        <pt x="1280" y="1143" on="1"/>
        <pt x="1425" y="602" on="1"/>
        <pt x="1453" y="496" on="0"/>
        <pt x="1507" y="270" on="0"/>
        <pt x="1530" y="162" on="1"/>
        <pt x="1532" y="150" on="0"/>
        <pt x="1544" y="95" on="0"/>
        <pt x="1547" y="40" on="0"/>
        <pt x="1535" y="-2" on="0"/>
        <pt x="1513" y="-2" on="1"/>
        <pt x="1507" y="-2" on="0"/>
        <pt x="1472" y="-2" on="0"/>
        <pt x="1428" y="-1" on="0"/>
        <pt x="1381" y="0" on="0"/>
        <pt x="1340" y="1" on="0"/>
        <pt x="1312" y="1" on="0"/>
        <pt x="1311" y="2" on="1"/>
        <pt x="1198" y="2" on="1"/>
        <pt x="1198" y="4" on="0"/>
        <pt x="1194" y="10" on="0"/>
        <pt x="1182" y="10" on="1"/>
        <pt x="1180" y="10" on="0"/>
        <pt x="1176" y="2" on="0"/>
        <pt x="1173" y="2" on="1"/>
        <pt x="1167" y="2" on="1"/>
        <pt x="1166" y="2" on="0"/>
        <pt x="1137" y="4" on="0"/>
        <pt x="1096" y="7" on="0"/>
        <pt x="1051" y="10" on="0"/>
        <pt x="1034" y="10" on="1"/>
        <pt x="1022" y="32" on="0"/>
        <pt x="995" y="143" on="0"/>
        <pt x="981" y="217" on="1"/>
        <pt x="960" y="213" on="0"/>
        <pt x="910" y="210" on="0"/>
        <pt x="856" y="210" on="0"/>
        <pt x="802" y="211" on="0"/>
        <pt x="778" y="211" on="1"/>
        <pt x="763" y="140" on="0"/>
        <pt x="737" y="32" on="0"/>
        <pt x="725" y="10" on="1"/>
        <pt x="719" y="10" on="0"/>
        <pt x="700" y="2" on="0"/>
        <pt x="698" y="2" on="1"/>
        <pt x="694" y="2" on="1"/>
        <pt x="683" y="2" on="0"/>
        <pt x="672" y="10" on="0"/>
        <pt x="667" y="10" on="1"/>
        <pt x="622" y="9" on="0"/>
        <pt x="587" y="7" on="1"/>
        <pt x="557" y="5" on="0"/>
        <pt x="508" y="3" on="0"/>
        <pt x="508" y="2" on="1"/>
        <pt x="342" y="2" on="1"/>
        <pt x="341" y="2" on="0"/>
        <pt x="314" y="1" on="0"/>
        <pt x="273" y="0" on="0"/>
        <pt x="225" y="-1" on="0"/>
        <pt x="181" y="-2" on="0"/>
        <pt x="146" y="-2" on="0"/>
        <pt x="139" y="-2" on="1"/>
        <pt x="118" y="-2" on="0"/>
        <pt x="106" y="40" on="0"/>
        <pt x="110" y="95" on="0"/>
        <pt x="121" y="150" on="0"/>
        <pt x="123" y="162" on="1"/>
        <pt x="146" y="270" on="0"/>
        <pt x="199" y="496" on="0"/>
        <pt x="227" y="602" on="1"/>
        <pt x="366" y="1147" on="1"/>
        <pt x="366" y="1152" on="0"/>
        <pt x="378" y="1165" on="0"/>
        <pt x="383" y="1167" on="1"/>
        <pt x="399" y="1167" on="1"/>
        <pt x="422" y="1167" on="0"/>
        <pt x="456" y="1176" on="0"/>
        <pt x="481" y="1176" on="1"/>
        <pt x="519" y="1176" on="0"/>
        <pt x="589" y="1167" on="0"/>
      </contour>
      <contour>
        <pt x="874" y="883" on="1"/>
        <pt x="874" y="882" on="0"/>
        <pt x="866" y="836" on="0"/>
        <pt x="854" y="762" on="0"/>
        <pt x="837" y="667" on="0"/>
        <pt x="821" y="569" on="0"/>
        <pt x="805" y="475" on="0"/>
        <pt x="799" y="438" on="1"/>
        <pt x="889" y="438" on="1"/>
        <pt x="891" y="440" on="0"/>
        <pt x="899" y="444" on="0"/>
        <pt x="901" y="444" on="1"/>
        <pt x="905" y="444" on="1"/>
        <pt x="922" y="444" on="0"/>
        <pt x="948" y="437" on="0"/>
        <pt x="962" y="434" on="1"/>
        <pt x="956" y="471" on="0"/>
        <pt x="940" y="566" on="0"/>
        <pt x="924" y="665" on="0"/>
        <pt x="907" y="760" on="0"/>
        <pt x="895" y="835" on="0"/>
        <pt x="887" y="882" on="0"/>
        <pt x="887" y="883" on="1"/>
        <pt x="886" y="885" on="0"/>
        <pt x="885" y="889" on="1"/>
        <pt x="884" y="892" on="0"/>
        <pt x="882" y="902" on="0"/>
        <pt x="880" y="909" on="1"/>
        <pt x="878" y="902" on="0"/>
        <pt x="876" y="892" on="0"/>
        <pt x="875" y="889" on="1"/>
        <pt x="874" y="885" on="0"/>
      </contour>
    </TTGlyph>
    <TTGlyph name="aacute" xMin="108" yMin="-2" xMax="1546" yMax="2148">
      <component glyphName="a" x="0" y="0" flags="0x1004"/>
      <component glyphName="acute" x="381" y="0" flags="0x1004"/>
    </TTGlyph>
    <TTGlyph name="abreve" xMin="108" yMin="-2" xMax="1546" yMax="1867">
      <component glyphName="a" x="0" y="0" flags="0x1204"/>
      <component glyphName="breve" x="228" y="0" flags="0x1004"/>
    </TTGlyph>
    <TTGlyph name="acircumflex" xMin="108" yMin="-2" xMax="1546" yMax="2046">
      <component glyphName="a" x="0" y="0" flags="0x1004"/>
      <component glyphName="circumflex" x="198" y="0" flags="0x1004"/>
    </TTGlyph>
    <TTGlyph name="acute" xMin="94" yMin="1305" xMax="829" yMax="2148">
      <contour>
        <pt x="551" y="1577" on="1"/>
        <pt x="535" y="1546" on="0"/>
        <pt x="495" y="1454" on="0"/>
        <pt x="454" y="1368" on="0"/>
        <pt x="416" y="1307" on="0"/>
        <pt x="401" y="1307" on="1"/>
        <pt x="383" y="1307" on="0"/>
        <pt x="341" y="1307" on="0"/>
        <pt x="325" y="1305" on="1"/>
        <pt x="311" y="1313" on="1"/>
        <pt x="303" y="1307" on="1"/>
        <pt x="244" y="1307" on="1"/>
        <pt x="216" y="1307" on="0"/>
        <pt x="161" y="1305" on="0"/>
        <pt x="133" y="1305" on="1"/>
        <pt x="107" y="1305" on="0"/>
        <pt x="94" y="1344" on="0"/>
        <pt x="94" y="1366" on="1"/>
        <pt x="94" y="1419" on="0"/>
        <pt x="105" y="1526" on="0"/>
        <pt x="120" y="1635" on="0"/>
        <pt x="136" y="1744" on="0"/>
        <pt x="141" y="1798" on="1"/>
        <pt x="157" y="1880" on="0"/>
        <pt x="192" y="2030" on="0"/>
        <pt x="215" y="2114" on="1"/>
        <pt x="231" y="2128" on="1"/>
        <pt x="319" y="2142" on="1"/>
        <pt x="392" y="2142" on="0"/>
        <pt x="510" y="2148" on="0"/>
        <pt x="563" y="2148" on="1"/>
        <pt x="575" y="2142" on="1"/>
        <pt x="585" y="2145" on="0"/>
        <pt x="610" y="2144" on="0"/>
        <pt x="618" y="2146" on="1"/>
        <pt x="623" y="2143" on="0"/>
        <pt x="637" y="2142" on="0"/>
        <pt x="643" y="2140" on="1"/>
        <pt x="731" y="2134" on="1"/>
        <pt x="745" y="2130" on="1"/>
        <pt x="750" y="2130" on="0"/>
        <pt x="755" y="2132" on="0"/>
        <pt x="760" y="2132" on="1"/>
        <pt x="800" y="2123" on="0"/>
        <pt x="829" y="2109" on="0"/>
        <pt x="829" y="2093" on="1"/>
        <pt x="830" y="2091" on="0"/>
        <pt x="816" y="2061" on="0"/>
        <pt x="791" y="2015" on="0"/>
        <pt x="759" y="1960" on="0"/>
        <pt x="725" y="1903" on="0"/>
        <pt x="694" y="1850" on="0"/>
        <pt x="682" y="1831" on="1"/>
        <pt x="662" y="1799" on="0"/>
        <pt x="631" y="1736" on="0"/>
        <pt x="602" y="1673" on="0"/>
        <pt x="571" y="1610" on="0"/>
      </contour>
    </TTGlyph>
    <TTGlyph name="adieresis" xMin="108" yMin="-2" xMax="1546" yMax="1739">
      <component glyphName="a" x="0" y="0" flags="0x1004"/>
      <component glyphName="dieresis" x="180" y="0" flags="0x1004"/>
    </TTGlyph>
    <TTGlyph name="ae" xMin="102" yMin="-2" xMax="2094" yMax="1190">
      <contour>
        <pt x="868" y="1167" on="1"/>
        <pt x="916" y="1167" on="0"/>
        <pt x="975" y="1170" on="0"/>
        <pt x="1026" y="1173" on="0"/>
        <pt x="1080" y="1176" on="0"/>
        <pt x="1124" y="1177" on="1"/>
        <pt x="1155" y="1183" on="0"/>
        <pt x="1231" y="1184" on="0"/>
        <pt x="1257" y="1184" on="1"/>
        <pt x="1336" y="1184" on="0"/>
        <pt x="1486" y="1174" on="0"/>
        <pt x="1565" y="1174" on="1"/>
        <pt x="1658" y="1174" on="0"/>
        <pt x="1857" y="1190" on="0"/>
        <pt x="1950" y="1190" on="1"/>
        <pt x="1958" y="1190" on="0"/>
        <pt x="1960" y="1187" on="0"/>
        <pt x="1960" y="1182" on="1"/>
        <pt x="2024" y="1182" on="1"/>
        <pt x="2042" y="1182" on="0"/>
        <pt x="2061" y="1143" on="0"/>
        <pt x="2075" y="1083" on="0"/>
        <pt x="2085" y="1011" on="0"/>
        <pt x="2094" y="979" on="1"/>
        <pt x="2094" y="960" on="0"/>
        <pt x="2087" y="922" on="0"/>
        <pt x="2073" y="922" on="1"/>
        <pt x="2071" y="922" on="0"/>
        <pt x="2061" y="930" on="0"/>
        <pt x="2059" y="930" on="1"/>
        <pt x="2045" y="932" on="0"/>
        <pt x="2024" y="922" on="0"/>
        <pt x="2010" y="922" on="1"/>
        <pt x="1997" y="922" on="0"/>
        <pt x="1982" y="930" on="0"/>
        <pt x="1971" y="930" on="1"/>
        <pt x="1952" y="930" on="0"/>
        <pt x="1901" y="917" on="0"/>
        <pt x="1883" y="915" on="1"/>
        <pt x="1869" y="913" on="0"/>
        <pt x="1811" y="912" on="0"/>
        <pt x="1747" y="912" on="0"/>
        <pt x="1687" y="913" on="0"/>
        <pt x="1672" y="913" on="1"/>
        <pt x="1663" y="913" on="0"/>
        <pt x="1650" y="870" on="0"/>
        <pt x="1641" y="813" on="0"/>
        <pt x="1637" y="756" on="0"/>
        <pt x="1637" y="743" on="1"/>
        <pt x="1637" y="722" on="0"/>
        <pt x="1657" y="711" on="0"/>
        <pt x="1686" y="711" on="1"/>
        <pt x="1967" y="711" on="1"/>
        <pt x="1980" y="714" on="0"/>
        <pt x="2013" y="686" on="0"/>
        <pt x="2016" y="655" on="1"/>
        <pt x="2019" y="520" on="1"/>
        <pt x="2022" y="502" on="0"/>
        <pt x="1995" y="482" on="0"/>
        <pt x="1946" y="472" on="0"/>
        <pt x="1882" y="469" on="0"/>
        <pt x="1848" y="469" on="1"/>
        <pt x="1758" y="469" on="1"/>
        <pt x="1722" y="469" on="0"/>
        <pt x="1672" y="469" on="0"/>
        <pt x="1642" y="461" on="0"/>
        <pt x="1629" y="439" on="0"/>
        <pt x="1629" y="418" on="1"/>
        <pt x="1629" y="413" on="0"/>
        <pt x="1629" y="405" on="0"/>
        <pt x="1630" y="402" on="1"/>
        <pt x="1630" y="398" on="0"/>
        <pt x="1631" y="395" on="1"/>
        <pt x="1631" y="386" on="0"/>
        <pt x="1629" y="362" on="0"/>
        <pt x="1628" y="351" on="1"/>
        <pt x="1626" y="339" on="0"/>
        <pt x="1625" y="326" on="1"/>
        <pt x="1625" y="317" on="0"/>
        <pt x="1626" y="296" on="0"/>
        <pt x="1626" y="276" on="0"/>
        <pt x="1627" y="260" on="0"/>
        <pt x="1627" y="256" on="1"/>
        <pt x="1720" y="256" on="0"/>
        <pt x="1909" y="268" on="0"/>
        <pt x="2001" y="268" on="1"/>
        <pt x="2008" y="268" on="0"/>
        <pt x="2015" y="250" on="0"/>
        <pt x="2020" y="225" on="0"/>
        <pt x="2022" y="197" on="0"/>
        <pt x="2024" y="188" on="1"/>
        <pt x="2029" y="168" on="0"/>
        <pt x="2037" y="140" on="0"/>
        <pt x="2043" y="112" on="0"/>
        <pt x="2046" y="78" on="0"/>
        <pt x="2046" y="53" on="1"/>
        <pt x="2046" y="51" on="0"/>
        <pt x="2045" y="44" on="0"/>
        <pt x="2045" y="40" on="1"/>
        <pt x="2044" y="36" on="0"/>
        <pt x="2044" y="31" on="1"/>
        <pt x="2030" y="16" on="1"/>
        <pt x="2026" y="15" on="0"/>
        <pt x="2022" y="15" on="1"/>
        <pt x="2019" y="14" on="0"/>
        <pt x="2012" y="14" on="0"/>
        <pt x="2010" y="14" on="1"/>
        <pt x="1975" y="14" on="0"/>
        <pt x="1919" y="12" on="0"/>
        <pt x="1860" y="8" on="0"/>
        <pt x="1790" y="4" on="0"/>
        <pt x="1690" y="0" on="0"/>
        <pt x="1553" y="-2" on="0"/>
        <pt x="1457" y="-2" on="1"/>
        <pt x="1450" y="-2" on="0"/>
        <pt x="1416" y="-2" on="0"/>
        <pt x="1373" y="-1" on="0"/>
        <pt x="1325" y="0" on="0"/>
        <pt x="1284" y="1" on="0"/>
        <pt x="1257" y="1" on="0"/>
        <pt x="1256" y="2" on="1"/>
        <pt x="1143" y="2" on="1"/>
        <pt x="1143" y="6" on="0"/>
        <pt x="1140" y="8" on="1"/>
        <pt x="1138" y="8" on="0"/>
        <pt x="1138" y="9" on="1"/>
        <pt x="1136" y="9" on="0"/>
        <pt x="1132" y="10" on="0"/>
        <pt x="1129" y="10" on="1"/>
        <pt x="1127" y="10" on="0"/>
        <pt x="1121" y="2" on="0"/>
        <pt x="1118" y="2" on="1"/>
        <pt x="1112" y="2" on="1"/>
        <pt x="1111" y="2" on="0"/>
        <pt x="1083" y="4" on="0"/>
        <pt x="1042" y="7" on="0"/>
        <pt x="998" y="10" on="0"/>
        <pt x="981" y="10" on="1"/>
        <pt x="974" y="32" on="0"/>
        <pt x="975" y="143" on="0"/>
        <pt x="980" y="217" on="1"/>
        <pt x="958" y="213" on="0"/>
        <pt x="907" y="210" on="0"/>
        <pt x="853" y="210" on="0"/>
        <pt x="799" y="211" on="0"/>
        <pt x="775" y="211" on="1"/>
        <pt x="743" y="140" on="0"/>
        <pt x="689" y="32" on="0"/>
        <pt x="672" y="10" on="1"/>
        <pt x="666" y="10" on="0"/>
        <pt x="645" y="2" on="0"/>
        <pt x="643" y="2" on="1"/>
        <pt x="639" y="2" on="1"/>
        <pt x="628" y="2" on="0"/>
        <pt x="619" y="10" on="0"/>
        <pt x="614" y="10" on="1"/>
        <pt x="568" y="9" on="0"/>
        <pt x="533" y="7" on="1"/>
        <pt x="503" y="5" on="0"/>
        <pt x="453" y="3" on="0"/>
        <pt x="453" y="2" on="1"/>
        <pt x="327" y="2" on="1"/>
        <pt x="325" y="1" on="0"/>
        <pt x="269" y="0" on="0"/>
        <pt x="198" y="-1" on="0"/>
        <pt x="134" y="-2" on="0"/>
        <pt x="124" y="-2" on="1"/>
        <pt x="103" y="-2" on="0"/>
        <pt x="102" y="40" on="0"/>
        <pt x="119" y="95" on="0"/>
        <pt x="144" y="150" on="0"/>
        <pt x="148" y="162" on="1"/>
        <pt x="193" y="270" on="0"/>
        <pt x="292" y="496" on="0"/>
        <pt x="342" y="602" on="1"/>
        <pt x="598" y="1147" on="1"/>
        <pt x="599" y="1152" on="0"/>
        <pt x="615" y="1165" on="0"/>
        <pt x="620" y="1167" on="1"/>
        <pt x="636" y="1167" on="1"/>
        <pt x="659" y="1167" on="0"/>
        <pt x="695" y="1176" on="0"/>
        <pt x="720" y="1176" on="1"/>
        <pt x="758" y="1176" on="0"/>
        <pt x="826" y="1167" on="0"/>
      </contour>
      <contour>
        <pt x="1039" y="883" on="1"/>
        <pt x="1039" y="882" on="0"/>
        <pt x="1019" y="836" on="0"/>
        <pt x="988" y="762" on="0"/>
        <pt x="949" y="667" on="0"/>
        <pt x="908" y="569" on="0"/>
        <pt x="868" y="475" on="0"/>
        <pt x="853" y="438" on="1"/>
        <pt x="943" y="438" on="1"/>
        <pt x="945" y="440" on="0"/>
        <pt x="954" y="444" on="0"/>
        <pt x="956" y="444" on="1"/>
        <pt x="960" y="444" on="1"/>
        <pt x="977" y="444" on="0"/>
        <pt x="1002" y="437" on="0"/>
        <pt x="1015" y="434" on="1"/>
        <pt x="1018" y="471" on="0"/>
        <pt x="1026" y="566" on="0"/>
        <pt x="1034" y="665" on="0"/>
        <pt x="1042" y="760" on="0"/>
        <pt x="1048" y="835" on="0"/>
        <pt x="1052" y="882" on="0"/>
        <pt x="1052" y="883" on="1"/>
        <pt x="1052" y="909" on="1"/>
      </contour>
    </TTGlyph>
    <TTGlyph name="agrave" xMin="108" yMin="-2" xMax="1546" yMax="2148">
      <component glyphName="a" x="0" y="0" flags="0x1004"/>
      <component glyphName="grave" x="425" y="0" flags="0x1004"/>
    </TTGlyph>
    <TTGlyph name="amacron" xMin="108" yMin="-2" xMax="1546" yMax="1826">
      <component glyphName="a" x="0" y="0" flags="0x1204"/>
      <component glyphName="macron" x="278" y="0" flags="0x1004"/>
    </TTGlyph>
</ttFont>
